<svg width="550" height="525" viewBox="0 0 550 525" fill="none" xmlns="http://www.w3.org/2000/svg">
<path d="M84.1048 432.104L57.9365 432.496C49.1571 432.627 40.2991 432.692 31.4673 432.705H30.8655V432.104V417.462V416.808H31.5328L57.845 416.9L71.0076 417.018L84.1702 417.175H84.4581V417.449L84.1048 432.104ZM84.1048 432.104L83.8169 417.462L84.1048 417.75L70.9422 417.907L57.7795 418.025L31.4673 418.117L32.1085 417.462V432.104L31.5066 431.502C40.2206 431.502 48.9085 431.58 57.6749 431.711L84.1048 432.104Z" fill="#EBEBEB"/>
<path d="M54.7312 435.924H2.09375V450.565H54.7312V435.924Z" fill="#EBEBEB"/>
<path d="M338.957 488.679H286.32V503.32H338.957V488.679Z" fill="#EBEBEB"/>
<path d="M547.388 312.672H494.75V327.313H547.388V312.672Z" fill="#EBEBEB"/>
<path d="M403.763 15.2954L377.595 15.6879C368.815 15.8187 359.957 15.8841 351.113 15.8972H350.511V15.2954V0.654207V0H351.165L377.49 0.0915935L390.64 0.209346L403.802 0.366359H404.09V0.641125L403.763 15.2954ZM403.763 15.2954L403.488 0.641125L403.763 0.928977L390.6 1.08599L377.451 1.20374L351.126 1.29533L351.78 0.641125V15.2823L351.178 14.6804C359.879 14.6804 368.58 14.7589 377.346 14.8897L403.763 15.2954Z" fill="#EBEBEB"/>
<path d="M433.124 19.1159H380.487V33.757H433.124V19.1159Z" fill="#EBEBEB"/>
<path d="M54.7309 15.2954L28.5627 15.6879C19.7832 15.8187 10.9253 15.8841 2.08038 15.8972H1.47852V15.2954V0.654207V0H2.13272L28.458 0.0915935L41.6206 0.209346L54.7047 0.366359H54.9926V0.641125L54.7309 15.2954ZM54.7309 15.2954L54.4561 0.641125L54.7309 0.928977L41.6468 1.08599L28.4842 1.20374L2.15889 1.29533L2.81309 0.641125V15.2823L2.21122 14.6804C10.9122 14.6804 19.6131 14.7589 28.3795 14.8897L54.7309 15.2954Z" fill="#EBEBEB"/>
<path d="M292.457 214.004H239.819V228.645H292.457V214.004Z" fill="#EBEBEB"/>
<path d="M531.307 9.76111H442.872V117.038H531.307V9.76111Z" fill="#EBEBEB"/>
<path d="M521.206 19.5477H452.973V107.238H521.206V19.5477Z" fill="white"/>
<path d="M455.629 19.5477H452.973V107.238H455.629V19.5477Z" fill="#C7C7C7"/>
<path d="M533.964 9.76099H531.308V117.038H533.964V9.76099Z" fill="#C7C7C7"/>
<path d="M488.601 87.7556H504.694V39.8284H488.601V87.7556Z" fill="#EBEBEB"/>
<path d="M512.375 55.7777H468.163V30.9178H512.375V55.7777ZM469.472 54.4693H511.066V32.2263H469.472V54.4693Z" fill="#EBEBEB"/>
<path d="M531.307 274.126H442.872V381.402H531.307V274.126Z" fill="#EBEBEB"/>
<path d="M521.206 283.926H452.973V371.615H521.206V283.926Z" fill="white"/>
<path d="M455.629 283.926H452.973V371.615H455.629V283.926Z" fill="#C7C7C7"/>
<path d="M533.964 274.126H531.308V381.402H533.964V274.126Z" fill="#C7C7C7"/>
<path d="M491.937 304.206H475.844V352.133H491.937V304.206Z" fill="#EBEBEB"/>
<path d="M512.375 320.156H468.163V295.362H512.375V320.156ZM469.472 318.848H511.066V296.67H469.472V318.848Z" fill="#EBEBEB"/>
<path d="M531.307 142.434H442.872V249.711H531.307V142.434Z" fill="#EBEBEB"/>
<path d="M521.206 152.221H452.973V239.911H521.206V152.221Z" fill="white"/>
<path d="M455.629 152.221H452.973V239.911H455.629V152.221Z" fill="#C7C7C7"/>
<path d="M533.964 142.434H531.308V249.711H533.964V142.434Z" fill="#C7C7C7"/>
<path d="M494.253 174.883H480.476V209.726H494.253V174.883Z" fill="#EBEBEB"/>
<path d="M509.43 220.743H471.094V195.412H509.43V220.743ZM472.402 219.434H508.122V196.72H472.402V219.434Z" fill="#DBDBDB"/>
<path d="M49.432 392.838C71.0862 414.1 74.7236 446.81 70.1572 475.595C70.0395 476.249 69.032 476.066 69.032 475.464C69.032 468.922 69.2283 462.38 69.2021 455.982C69.0843 455.681 68.9927 455.406 68.875 455.105C63.2226 450.997 58.0152 446.352 54.7965 439.993C51.1853 432.875 49.7591 424.855 46.946 417.423C46.6843 416.717 47.4432 416.926 47.9404 417.292C61.1161 427.001 65.3161 437.455 69.0974 451.429C69.0152 444.124 68.2486 436.844 66.8077 429.683C63.9554 416.416 58.3292 403.279 48.8039 393.44C48.7644 393.399 48.7334 393.35 48.7127 393.297C48.6919 393.244 48.6819 393.187 48.6831 393.13C48.6843 393.073 48.6968 393.016 48.7198 392.964C48.7427 392.912 48.7758 392.864 48.817 392.825C48.8583 392.785 48.9069 392.754 48.9601 392.734C49.0133 392.713 49.0701 392.703 49.1272 392.704C49.1843 392.705 49.2406 392.718 49.2929 392.741C49.3452 392.764 49.3925 392.797 49.432 392.838Z" fill="#263238"/>
<path d="M45.3628 395.311C41.6338 395.442 39.2917 401.395 36.3871 403.162C36.0819 403.408 35.7285 403.588 35.3495 403.689C34.9706 403.79 34.5746 403.81 34.1873 403.749C33.8 403.687 33.4299 403.545 33.1011 403.331C32.7723 403.117 32.4921 402.836 32.2786 402.507C29.4001 398.491 33.3515 393.545 37.0674 390.732C34.4506 391.818 32.2132 393.741 29.3478 394.277C28.9817 394.4 28.5936 394.442 28.2098 394.401C27.826 394.36 27.4556 394.236 27.1239 394.039C26.7922 393.841 26.5071 393.574 26.288 393.256C26.0689 392.939 25.921 392.577 25.8543 392.197C24.5459 386.728 31.4674 384.347 36.1777 384.177C33.888 382.58 27.3459 378.262 30.8263 376.143C34.3067 374.023 42.0263 380.186 44.5385 382.214C48.2151 385.21 52.6114 389.672 52.7815 394.343C52.9908 399.812 48.2282 396.463 45.3628 395.311Z" fill="#FB923C"/>
<path opacity="0.1" d="M45.3628 395.311C41.6338 395.442 39.2917 401.395 36.3871 403.162C36.0819 403.408 35.7285 403.588 35.3495 403.689C34.9706 403.79 34.5746 403.81 34.1873 403.749C33.8 403.687 33.4299 403.545 33.1011 403.331C32.7723 403.117 32.4921 402.836 32.2786 402.507C29.4001 398.491 33.3515 393.545 37.0674 390.732C34.4506 391.818 32.2132 393.741 29.3478 394.277C28.9817 394.4 28.5936 394.442 28.2098 394.401C27.826 394.36 27.4556 394.236 27.1239 394.039C26.7922 393.841 26.5071 393.574 26.288 393.256C26.0689 392.939 25.921 392.577 25.8543 392.197C24.5459 386.728 31.4674 384.347 36.1777 384.177C33.888 382.58 27.3459 378.262 30.8263 376.143C34.3067 374.023 42.0263 380.186 44.5385 382.214C48.2151 385.21 52.6114 389.672 52.7815 394.343C52.9908 399.812 48.2282 396.463 45.3628 395.311Z" fill="black"/>
<path d="M46.4359 396.227C41.6733 394.068 32.5275 397.182 31.7424 395.376C30.1723 391.713 37.4733 389.188 41.4247 388.704C37.7873 387.722 30.8265 386.152 31.0359 382.646C31.2975 378.367 41.7256 382.044 46.9985 386.087C53.6452 391.189 53.5406 396.109 52.4938 397.09C51.0022 398.399 47.2209 396.593 46.4359 396.227Z" fill="#FB923C"/>
<path d="M98.7462 390.744C76.2938 411.103 71.4134 443.735 74.8807 472.625C74.9854 473.279 75.9929 473.135 76.019 472.533C76.2676 465.991 76.32 459.449 76.5817 453.051C76.7125 452.763 76.8172 452.488 76.948 452.201C82.7574 448.275 88.1219 443.866 91.5891 437.625C95.5144 430.651 97.1892 422.696 100.238 415.382C100.526 414.675 99.7537 414.858 99.2434 415.199C85.7144 424.357 81.1219 434.694 76.8172 448.511C77.1706 441.211 78.2133 433.96 79.9312 426.857C83.2807 413.772 89.4041 400.806 99.2957 391.333C99.6621 390.98 99.1387 390.378 98.7462 390.744Z" fill="#263238"/>
<path d="M102.724 393.361C106.439 393.636 108.546 399.668 111.372 401.526C111.667 401.786 112.013 401.982 112.389 402.099C112.764 402.216 113.161 402.252 113.551 402.205C113.942 402.158 114.318 402.029 114.655 401.826C114.992 401.623 115.282 401.352 115.507 401.029C118.542 397.103 114.787 392.027 111.176 389.122C113.793 390.313 115.912 392.315 118.752 392.956C119.113 393.092 119.5 393.149 119.885 393.123C120.271 393.096 120.646 392.986 120.985 392.801C121.325 392.616 121.62 392.36 121.851 392.05C122.082 391.74 122.243 391.384 122.324 391.006C123.789 385.589 117.09 382.894 112.314 382.593C114.656 381.101 121.368 377.032 117.967 374.743C114.565 372.453 106.623 378.354 104.032 380.29C100.238 383.13 95.6843 387.421 95.3441 392.066C94.9124 397.574 99.8058 394.395 102.724 393.361Z" fill="#FB923C"/>
<path opacity="0.1" d="M102.724 393.361C106.439 393.636 108.546 399.668 111.372 401.526C111.667 401.786 112.013 401.982 112.389 402.099C112.764 402.216 113.161 402.252 113.551 402.205C113.942 402.158 114.318 402.029 114.655 401.826C114.992 401.623 115.282 401.352 115.507 401.029C118.542 397.103 114.787 392.027 111.176 389.122C113.793 390.313 115.912 392.315 118.752 392.956C119.113 393.092 119.5 393.149 119.885 393.123C120.271 393.096 120.646 392.986 120.985 392.801C121.325 392.616 121.62 392.36 121.851 392.05C122.082 391.74 122.243 391.384 122.324 391.006C123.789 385.589 117.09 382.894 112.314 382.593C114.656 381.101 121.368 377.032 117.967 374.743C114.565 372.453 106.623 378.354 104.032 380.29C100.238 383.13 95.6843 387.421 95.3441 392.066C94.9124 397.574 99.8058 394.395 102.724 393.361Z" fill="black"/>
<path d="M101.611 394.238C106.453 392.262 115.467 395.717 116.318 393.95C118.032 390.339 110.823 387.552 106.897 386.911C110.574 386.074 117.587 384.765 117.509 381.259C117.404 376.967 106.858 380.251 101.428 384.085C94.5983 388.926 94.4544 393.846 95.5142 394.866C96.9665 396.279 100.8 394.565 101.611 394.238Z" fill="#FB923C"/>
<path d="M75.8619 444.52C74.3394 455.412 72.0084 466.175 68.8881 476.72C68.8447 476.928 68.7204 477.111 68.5425 477.227C68.3646 477.344 68.1477 477.385 67.9395 477.342C67.7313 477.298 67.5488 477.174 67.4323 476.996C67.3157 476.818 67.2746 476.601 67.318 476.393C68.7965 466.475 71.4787 456.767 72.9572 446.81C74.5651 436.772 75.1438 426.597 74.6843 416.442C73.7292 399.733 69.189 381.939 58.2899 368.868C58.0413 368.554 58.5516 368.109 58.8002 368.397C80.6376 393.871 77.118 425.09 77.118 427.89C80.2189 417.344 83.3984 405.268 95.0956 394.526C95.6058 394.068 95.9984 394.29 95.9068 395.075C93.8133 414.623 88.3834 424.842 77.0395 435.296C76.6862 438.384 76.2806 441.472 75.8619 444.52Z" fill="#263238"/>
<path d="M58.0153 371.785C54.0901 370.045 48.6732 375.043 44.7872 375.397C42.733 375.58 41.2022 374.769 40.862 372.649C39.8938 367.036 46.4882 363.883 51.7349 362.875C48.4246 362.666 45.1929 363.556 41.9349 362.679C41.4896 362.626 41.0611 362.477 40.6789 362.242C40.2967 362.008 39.97 361.693 39.7212 361.32C39.4725 360.947 39.3076 360.524 39.238 360.081C39.1684 359.638 39.1957 359.185 39.3181 358.754C40.7573 352.447 49.1181 353.376 54.0639 355.627C52.4938 352.827 47.8751 345.055 52.5461 344.597C57.2172 344.139 62.1368 354.436 63.72 357.812C66.0359 362.757 68.3387 369.587 66.1667 374.533C63.6807 380.303 60.4228 374.415 58.0153 371.785Z" fill="#FB923C"/>
<path opacity="0.1" d="M58.0153 371.785C54.0901 370.045 48.6732 375.043 44.7872 375.397C42.733 375.58 41.2022 374.769 40.862 372.649C39.8938 367.036 46.4882 363.883 51.7349 362.875C48.4246 362.666 45.1929 363.556 41.9349 362.679C41.4896 362.626 41.0611 362.477 40.6789 362.242C40.2967 362.008 39.97 361.693 39.7212 361.32C39.4725 360.947 39.3076 360.524 39.238 360.081C39.1684 359.638 39.1957 359.185 39.3181 358.754C40.7573 352.447 49.1181 353.376 54.0639 355.627C52.4938 352.827 47.8751 345.055 52.5461 344.597C57.2172 344.139 62.1368 354.436 63.72 357.812C66.0359 362.757 68.3387 369.587 66.1667 374.533C63.6807 380.303 60.4228 374.415 58.0153 371.785Z" fill="black"/>
<path d="M58.6823 373.29C54.7571 368.646 43.7664 367.272 43.858 365.008C44.0673 360.403 52.9253 361.475 57.2692 362.954C53.9982 360.102 47.5608 354.973 49.5365 351.44C51.9701 347.135 60.9328 356.203 64.3608 363.046C68.6917 371.681 66.1795 376.758 64.544 377.229C62.2935 377.87 59.3103 374.049 58.6823 373.29Z" fill="#FB923C"/>
<path d="M90.163 450.408L99.7929 524.006H41.176C42.3798 517.464 53.2919 450.317 53.2919 450.317L90.163 450.408Z" fill="#FB923C"/>
<path d="M188.385 221.659C187.122 217.272 185.165 213.115 182.589 209.346C179.914 205.619 176.799 202.228 173.312 199.246C159.404 187.143 140.236 182.459 122.114 183.702C113.835 184.202 105.719 186.22 98.1702 189.655C94.4916 191.37 91.0805 193.609 88.0431 196.302C85.23 198.801 82.0636 201.875 80.7552 205.46C80.7134 205.589 80.7145 205.729 80.7582 205.857C80.802 205.985 80.8861 206.096 80.998 206.173C81.1099 206.249 81.2436 206.287 81.3791 206.282C81.5146 206.276 81.6446 206.227 81.7496 206.141C83.4113 204.832 84.8113 203.184 86.3945 201.745C87.9916 200.318 89.688 199.006 91.4711 197.819C94.9738 195.514 98.6998 193.568 102.593 192.01C118.15 185.73 136.611 185.887 152.312 191.565C159.926 194.345 166.955 198.52 173.038 203.877C175.903 206.41 178.531 209.2 180.888 212.212C183.415 215.271 185.744 218.487 187.862 221.842C188.097 222.025 188.503 221.947 188.385 221.659Z" fill="#263238"/>
<path d="M176.911 196.903C175.338 194.393 173.362 192.161 171.062 190.296C168.653 188.526 166.106 186.951 163.447 185.585C153.708 180.331 143.045 177.008 132.045 175.798C126.738 175.214 121.372 175.479 116.148 176.584C113.672 177.137 111.23 177.832 108.834 178.664C106.393 179.385 104.074 180.465 101.952 181.869C101.902 181.917 101.868 181.978 101.855 182.046C101.842 182.113 101.851 182.183 101.88 182.245C101.909 182.307 101.957 182.359 102.016 182.392C102.076 182.426 102.145 182.44 102.213 182.432C105.013 181.856 107.696 180.823 110.509 180.286C113.322 179.75 115.952 179.645 118.699 179.384C150.847 176.4 174.098 196.275 176.374 197.466C176.451 197.521 176.545 197.546 176.64 197.538C176.734 197.529 176.822 197.486 176.887 197.418C176.952 197.349 176.991 197.259 176.995 197.165C176.999 197.07 176.969 196.977 176.911 196.903Z" fill="#263238"/>
<path d="M65.6824 298.658C72.2244 302.884 79.9702 299.797 85.0992 294.838C90.4375 289.683 94.0749 282.931 96.8749 276.141C99.4917 269.939 101.337 263.462 103.417 257.064C105.497 250.666 107.342 243.98 110.639 238.131C113.725 232.538 118.899 228.393 125.032 226.604C131.676 224.816 138.74 225.451 144.959 228.397C148.253 229.849 151.241 231.914 153.765 234.481C156.076 236.992 157.876 239.93 159.064 243.129C161.825 250.038 163.211 257.391 164.886 264.6C166.26 270.567 169.112 275.944 174.699 278.888C179.462 281.4 185.324 282.159 190.165 279.451C190.237 279.416 190.294 279.356 190.325 279.283C190.356 279.209 190.359 279.126 190.333 279.05C190.307 278.975 190.255 278.911 190.185 278.871C190.115 278.832 190.034 278.819 189.955 278.836C186.906 279.429 183.761 279.311 180.766 278.489C177.77 277.667 175.004 276.165 172.684 274.099C170.293 271.679 168.637 268.63 167.909 265.307C166.862 261.382 166.077 257.339 165.004 253.387C163.225 246.845 161.458 239.688 157.153 234.245C152.769 228.973 146.859 225.188 140.236 223.411C133.86 221.556 127.05 221.85 120.858 224.249C114.701 226.795 109.68 231.491 106.727 237.464C100.552 249.24 98.5628 262.664 93.8001 274.989C91.6085 281.108 88.3381 286.785 84.1441 291.75C79.787 296.617 72.787 300.228 66.2711 297.52C66.1209 297.448 65.9487 297.438 65.7909 297.491C65.6331 297.544 65.5021 297.656 65.4257 297.804C65.3492 297.952 65.3332 298.124 65.3811 298.283C65.429 298.443 65.5371 298.577 65.6824 298.658Z" fill="#263238"/>
<path d="M64.2561 278.025C67.2655 278.43 70.0262 276.167 71.4262 273.681C73.3294 270.104 74.7882 266.307 75.7702 262.376C77.8431 254.244 80.4659 246.261 83.6206 238.484C88.8543 226.303 97.0057 214.554 108.742 207.802C114.558 204.416 121.043 202.341 127.744 201.724C134.445 201.107 141.201 201.963 147.537 204.23C153.569 206.43 159.084 209.851 163.735 214.279C168.521 218.988 172.374 224.559 175.092 230.699C177.807 237.064 180.038 243.625 181.765 250.326C182.537 253.008 183.623 256.266 186.213 257.718C187.18 258.324 188.329 258.566 189.458 258.403C190.586 258.241 191.62 257.682 192.376 256.828C192.52 256.658 192.284 256.475 192.127 256.58C191.393 257.067 190.517 257.293 189.639 257.222C188.761 257.151 187.932 256.786 187.286 256.187C185.888 255 184.96 253.353 184.669 251.542C183.793 247.931 183.086 244.294 182.053 240.696C180.119 233.385 177.07 226.416 173.011 220.036C169.356 214.562 164.653 209.865 159.175 206.215C153.697 202.566 147.551 200.036 141.091 198.771C134.631 197.506 127.985 197.532 121.535 198.846C115.085 200.16 108.959 202.737 103.509 206.428C92.2038 214.096 84.5496 225.911 79.486 238.38C76.869 245.214 74.684 252.206 72.944 259.314C72.0805 262.909 71.0147 266.452 69.7515 269.926C69.1603 271.448 68.4607 272.926 67.658 274.348C67.369 275.002 66.9113 275.567 66.3319 275.985C65.7525 276.404 65.0722 276.66 64.3608 276.729C64.189 276.715 64.0188 276.77 63.8875 276.882C63.7562 276.994 63.6747 277.153 63.6608 277.325C63.6469 277.496 63.7018 277.667 63.8135 277.798C63.9251 277.929 64.0844 278.011 64.2561 278.025Z" fill="#263238"/>
<path d="M67.9067 304.311C67.8873 304.456 67.9238 304.603 68.0088 304.722C68.0939 304.841 68.2211 304.923 68.3647 304.952C69.4268 305.204 70.5076 305.371 71.5964 305.449C72.0846 305.476 72.5738 305.476 73.0619 305.449C78.832 305.161 84.8376 301.89 90.8825 295.728C95.9923 290.513 100.202 284.487 103.339 277.894C105.812 272.245 107.714 266.363 109.017 260.335C109.436 258.647 109.868 256.946 110.325 255.272C111.752 249.907 114.342 242.188 120.191 237.32C122.165 235.676 124.483 234.495 126.974 233.865C129.465 233.236 132.065 233.173 134.583 233.683C138.493 234.476 142.198 236.064 145.469 238.348C148.739 240.633 151.505 243.565 153.595 246.963C156.872 252.426 158.054 258.894 156.918 265.163C155.528 271.939 152.237 278.179 147.432 283.154C142.428 288.304 136.498 292.463 129.952 295.414C127.178 296.722 123.501 298.462 119.733 299.849L117.574 300.647C114.826 301.655 112 302.675 109.292 303.866C109.116 303.951 108.977 304.096 108.9 304.275C108.823 304.454 108.813 304.655 108.872 304.841C108.93 305.027 109.054 305.185 109.22 305.287C109.386 305.39 109.584 305.428 109.776 305.397C111.673 304.991 113.544 304.468 115.284 303.958C127.911 300.333 143.638 294.472 153.228 281.244C157.563 275.511 160.079 268.611 160.451 261.434C160.622 254.85 158.576 248.399 154.641 243.117C149.69 236.312 142.277 231.71 133.982 230.294C131.252 229.845 128.459 229.961 125.776 230.637C123.093 231.312 120.577 232.531 118.385 234.219C113.544 237.974 109.985 243.954 107.512 252.537C106.832 254.866 106.204 257.247 105.641 259.55C104.393 265.123 102.641 270.571 100.408 275.827C97.2472 282.681 92.882 288.912 87.5198 294.223C83.1367 298.541 76.3067 303.683 68.6264 303.696C68.45 303.685 68.2764 303.743 68.1421 303.858C68.0078 303.973 67.9234 304.135 67.9067 304.311Z" fill="#263238"/>
<path d="M65.3944 285.574C67.0272 285.942 68.7237 285.921 70.3466 285.512C71.9696 285.103 73.4734 284.317 74.7365 283.219C77.6019 280.929 79.0804 277.122 80.258 273.746C82.9926 265.896 85.1122 257.784 87.8337 249.894C92.0599 237.595 98.301 225.034 109.383 217.628C114.367 214.353 119.993 212.18 125.885 211.254C131.777 210.329 137.798 210.673 143.546 212.264C149.908 214.065 155.676 217.529 160.254 222.299C164.453 226.954 167.781 232.326 170.081 238.157C171.297 241.088 172.344 244.071 173.273 247.107C174.123 250.319 175.136 253.485 176.309 256.593C178.454 261.748 183.858 267.937 190.086 265.385C190.187 265.337 190.269 265.256 190.32 265.156C190.37 265.055 190.386 264.941 190.366 264.831C190.345 264.721 190.288 264.621 190.204 264.546C190.121 264.471 190.015 264.426 189.903 264.417C188.168 264.256 186.489 263.719 184.983 262.845C183.476 261.971 182.177 260.78 181.176 259.354C178.965 256.24 178.114 252.393 177.107 248.769C175.344 241.999 172.742 235.476 169.361 229.352C166.347 223.934 162.244 219.198 157.31 215.443C151.97 211.583 145.808 209.012 139.307 207.933C133.357 206.962 127.274 207.19 121.414 208.603C115.554 210.016 110.036 212.587 105.183 216.163C94.415 224.21 88.2786 236.823 84.0786 249.266C81.7103 256.253 79.8786 263.384 77.7066 270.423C76.058 275.787 73.1402 284.815 65.8131 283.625C65.5716 283.609 65.3323 283.68 65.139 283.826C64.9457 283.971 64.8113 284.182 64.7605 284.418C64.7097 284.655 64.7458 284.902 64.8622 285.114C64.9786 285.327 65.1675 285.49 65.3944 285.574Z" fill="#263238"/>
<path d="M64.8582 290.703C65.7189 291.673 66.7584 292.469 67.9199 293.045C70.3273 294.249 73.847 293.857 76.2545 292.888C79.2131 291.535 81.6972 289.324 83.3853 286.543C85.2305 283.57 86.7901 280.428 88.0432 277.161C89.5479 273.537 90.8563 269.808 92.1386 266.092C94.7554 258.621 97.0975 251.085 99.9891 243.705C102.501 237.163 105.628 230.922 110.888 226.159C115.571 221.863 121.385 218.995 127.644 217.893C133.903 216.792 140.347 217.504 146.215 219.944C152.235 222.473 157.354 226.754 160.909 232.23C164.834 238.21 166.613 245.184 168.341 252C169.884 258.072 171.127 264.627 175.013 269.716C178.245 273.969 185.127 277.331 189.668 272.909C189.715 272.867 189.746 272.809 189.755 272.746C189.763 272.683 189.748 272.62 189.713 272.567C189.678 272.514 189.625 272.476 189.563 272.459C189.502 272.443 189.437 272.449 189.38 272.477C186.135 274.086 182.327 272.987 179.619 270.789C177.125 268.604 175.255 265.796 174.202 262.651C171.52 255.703 170.46 248.258 168 241.18C165.987 234.905 162.475 229.215 157.769 224.602C153.25 220.285 147.742 217.141 141.727 215.443C135.624 213.861 129.214 213.885 123.123 215.513C117.031 217.141 111.464 220.317 106.963 224.733C101.978 229.744 98.8507 236.064 96.3255 242.593C93.5778 249.75 91.3535 257.103 88.8675 264.365C87.5591 268.081 86.2507 271.771 84.7984 275.447C83.694 278.614 82.3149 281.679 80.6769 284.606C79.1673 287.333 76.8047 289.488 73.9516 290.743C72.6228 291.331 71.1614 291.554 69.7174 291.391C68.2734 291.228 66.8989 290.683 65.7348 289.814C65.1329 289.356 64.4133 290.206 64.8582 290.703Z" fill="#263238"/>
<path d="M191.211 252.943C191.31 251.243 191.31 249.539 191.211 247.84C189.851 233.813 183.868 220.636 174.202 210.38C165.249 200.679 153.322 194.234 140.301 192.062C127.507 190.111 114.422 192.119 102.802 197.819C91.2397 203.528 81.7216 212.667 75.5478 223.987C69.1977 235.147 66.3315 247.952 67.3179 260.754C67.3179 261.029 67.7627 260.976 67.7758 260.754C68.6043 246.938 73.0881 233.591 80.7683 222.077C87.5999 212.029 97.2118 204.191 108.428 199.52C119.62 194.928 131.955 193.896 143.755 196.563C155.91 199.581 166.736 206.509 174.568 216.281C178.704 221.463 182.038 227.236 184.46 233.408C186.853 239.794 188.747 246.355 190.125 253.034C190.322 253.531 191.172 253.531 191.211 252.943Z" fill="#263238"/>
<path d="M171.232 300.137C172.671 298.018 175.759 299.889 177.355 300.778C179.75 302.087 182.327 303.879 185.206 303.395C185.253 303.379 185.304 303.383 185.348 303.405C185.392 303.427 185.426 303.466 185.441 303.513C185.457 303.56 185.453 303.611 185.431 303.655C185.409 303.699 185.37 303.733 185.323 303.748C184.39 304.21 183.364 304.457 182.323 304.47C181.281 304.484 180.25 304.264 179.305 303.827C178.286 303.409 177.29 302.937 176.322 302.414C175.404 301.884 174.424 301.47 173.404 301.184C173.217 301.158 173.028 301.158 172.841 301.184C172.645 301.184 172.697 301.184 172.671 301.249C172.488 301.589 172.776 302.309 172.88 302.649C173.123 303.534 173.46 304.389 173.888 305.201C174.796 306.87 175.947 308.396 177.303 309.728C178.066 310.508 178.874 311.242 179.723 311.926C180.587 312.619 181.608 313.143 182.432 313.875C182.499 313.912 182.55 313.974 182.572 314.047C182.594 314.121 182.586 314.2 182.55 314.268C182.513 314.336 182.451 314.386 182.378 314.408C182.304 314.43 182.225 314.422 182.157 314.386C181.161 314.077 180.211 313.637 179.331 313.077C178.411 312.538 177.536 311.926 176.714 311.246C175.054 309.879 173.657 308.221 172.593 306.352C172.058 305.422 171.62 304.44 171.284 303.421C171.018 302.916 170.875 302.356 170.866 301.785C170.857 301.215 170.982 300.65 171.232 300.137Z" fill="#263238"/>
<path d="M175.615 304.193C177.177 304.908 178.633 305.833 179.946 306.941C180.53 307.429 181.132 307.887 181.752 308.314C182.053 308.524 182.38 308.72 182.694 308.903C183.016 309.068 183.348 309.213 183.688 309.335C183.753 309.354 183.81 309.394 183.85 309.448C183.891 309.503 183.912 309.568 183.912 309.636C183.912 309.704 183.891 309.769 183.85 309.824C183.81 309.878 183.753 309.918 183.688 309.937C182.131 310.316 180.496 309.296 179.318 308.406C177.832 307.328 176.51 306.041 175.393 304.586C175.21 304.455 175.367 304.193 175.615 304.193Z" fill="#263238"/>
<path d="M73.3366 308.995C73.3302 309.025 73.3302 309.056 73.3366 309.086C73.3455 309.193 73.3885 309.294 73.4592 309.374C73.5299 309.454 73.6245 309.509 73.7291 309.531C74.1147 309.63 74.5091 309.692 74.9066 309.714C76.2897 309.736 77.6689 309.56 79.002 309.191C80.8685 308.748 82.6839 308.113 84.4188 307.294C87.81 305.654 90.9475 303.534 93.7347 301C103.221 292.705 109.894 280.89 113.57 265.856C113.806 264.862 114.054 263.855 114.29 262.86C115.598 257.43 116.907 251.83 119.916 247.159C121.498 244.69 123.653 242.639 126.196 241.18C128.846 239.85 131.792 239.22 134.753 239.348C134.906 239.341 135.052 239.284 135.169 239.186C135.286 239.087 135.367 238.953 135.399 238.804C135.432 238.655 135.415 238.499 135.35 238.361C135.285 238.223 135.177 238.11 135.041 238.04C131.653 236.378 127.439 237.948 125.791 238.694C122.867 240.082 120.306 242.128 118.307 244.673C114.381 249.527 112.916 255.755 111.503 261.774L111.137 263.279C109.627 270.079 107.294 276.67 104.189 282.905C100.997 289.025 96.7185 294.514 91.5627 299.103C89.067 301.394 86.288 303.355 83.2936 304.939C81.7557 305.711 80.164 306.372 78.531 306.914C77.9814 307.098 77.4188 307.242 76.8562 307.399C75.7504 307.657 74.6756 308.035 73.6506 308.524C73.5604 308.566 73.4836 308.633 73.4282 308.716C73.3729 308.799 73.3412 308.895 73.3366 308.995Z" fill="#263238"/>
<path d="M106.165 301.576C106.157 301.677 106.178 301.778 106.224 301.868C106.27 301.958 106.34 302.034 106.426 302.087C106.503 302.142 106.594 302.174 106.688 302.178C106.783 302.182 106.878 302.162 106.963 302.118C107.048 302.075 107.12 302.01 107.172 301.93C108.319 300.514 109.83 299.438 111.542 298.816C113.086 298.096 114.696 297.507 116.253 296.866L116.959 296.578C121.238 294.903 124.718 293.412 127.911 291.881C142.068 285.09 150.507 276.298 153.032 265.713C154.466 260.068 153.757 254.092 151.043 248.939C149.811 246.486 148.081 244.318 145.963 242.572C143.846 240.825 141.387 239.541 138.744 238.799C138.588 238.758 138.422 238.776 138.278 238.848C138.134 238.92 138.02 239.042 137.959 239.191C137.897 239.328 137.888 239.483 137.934 239.625C137.98 239.768 138.078 239.889 138.208 239.963C143.279 242.9 147.242 247.425 149.486 252.838C152.352 260.427 150.965 272.831 137.593 282.866C132.593 286.397 127.207 289.347 121.539 291.659C118.712 292.902 115.52 294.275 112.458 295.937C111.19 296.574 109.982 297.323 108.847 298.175C107.804 299.056 106.919 300.109 106.23 301.289C106.178 301.375 106.155 301.476 106.165 301.576Z" fill="#263238"/>
<path d="M69.1494 311.651C71.0725 312.807 73.2538 313.464 75.4952 313.562C79.5987 313.624 83.6507 312.642 87.2709 310.709C92.6562 307.862 97.5399 304.154 101.729 299.732C102.134 299.313 102.514 298.881 102.906 298.423L103.26 298.044C103.354 297.999 103.438 297.937 103.508 297.861C106.819 294.563 111.359 292.732 115.716 290.952C117.234 290.337 118.817 289.644 120.295 289.016C127.609 285.614 132.594 282.238 136.441 278.051C140.342 274.009 142.802 268.795 143.441 263.214C143.899 258.373 142.761 251.621 138.09 248.481C133.419 245.341 127.505 247.578 124.037 251.36C120.007 255.769 117.953 261.997 116.291 267.061L115.716 268.827C114.204 273.887 112.27 278.811 109.933 283.547C107.348 288.439 104.113 292.96 100.316 296.984C96.5385 300.986 92.2334 304.455 87.5195 307.294C81.3176 310.997 75.2728 312.122 69.5812 310.683H69.4765C69.3581 310.679 69.241 310.71 69.1406 310.773C69.0402 310.836 68.9612 310.928 68.9139 311.036C68.8768 311.15 68.8799 311.274 68.9228 311.386C68.9657 311.497 69.0457 311.591 69.1494 311.651ZM108.794 291.109C109.736 289.801 110.561 288.492 111.293 287.184C114.025 282.33 116.219 277.193 117.835 271.862C118.11 271.012 118.372 270.162 118.66 269.246C120.164 264.483 121.721 259.55 124.482 255.39C125.803 253.167 127.783 251.412 130.148 250.365C131.225 249.941 132.38 249.749 133.536 249.803C134.918 249.855 136.235 250.397 137.252 251.333C141.178 254.997 141.426 261.709 139.869 266.734C138.096 271.779 134.857 276.18 130.566 279.373C125.712 283.233 119.968 285.81 114.865 288.087L114.381 288.296C112.563 289.251 110.613 290.128 108.794 291.109Z" fill="#263238"/>
<path d="M117.312 282.395C117.281 282.511 117.284 282.633 117.321 282.747C117.358 282.861 117.428 282.961 117.522 283.036C117.618 283.115 117.737 283.161 117.862 283.167C117.945 283.172 118.028 283.158 118.105 283.127C118.182 283.095 118.251 283.046 118.307 282.984C118.594 282.696 120.714 281.178 121.735 280.485C122.062 280.262 122.402 280.053 122.729 279.817C123.422 279.359 124.142 278.888 124.822 278.365C126.863 276.821 128.779 275.119 130.553 273.275C133.981 269.677 135.591 266.079 135.303 262.559C135.298 261.691 135.05 260.841 134.588 260.106C134.126 259.37 133.467 258.779 132.686 258.399C131.736 258.08 130.709 258.072 129.754 258.375C128.8 258.679 127.966 259.278 127.374 260.086C126.184 261.673 125.256 263.44 124.626 265.32C124.024 266.838 123.488 268.421 122.951 269.939L122.52 271.169C121.048 274.831 119.33 278.389 117.378 281.819C117.315 281.9 117.277 281.997 117.265 282.098C117.254 282.199 117.27 282.302 117.312 282.395ZM123.998 273.341C125.233 270.115 126.684 266.976 128.342 263.946L128.421 263.815C128.865 263.03 129.925 261.199 130.946 260.989H131.168C131.384 261.007 131.589 261.089 131.757 261.225C132.647 261.918 132.516 263.842 132.097 265.294C131.129 268.774 128.172 271.587 125.869 273.851L124.037 275.604C123.409 276.193 122.794 276.795 122.179 277.397C122.965 275.944 123.527 274.518 123.998 273.341Z" fill="#263238"/>
<path d="M125.581 341.431C123.321 345.92 121.295 350.523 119.51 355.221C119.506 355.252 119.511 355.283 119.526 355.31C119.54 355.337 119.563 355.359 119.591 355.372C119.619 355.385 119.65 355.389 119.68 355.383C119.711 355.377 119.738 355.362 119.759 355.339C122.31 351.545 124.43 347.488 126.824 343.563C128.394 341.038 131.234 335.137 135.067 336.092C136.677 336.485 137.828 338.264 138.718 339.533C139.884 341.289 141.151 342.975 142.512 344.584C144.606 346.965 148.531 350.079 151.959 349.242C152.116 349.242 152.207 348.954 152.05 348.875C151.135 348.391 150.166 348.09 149.264 347.567C148.268 347.006 147.346 346.324 146.516 345.539C144.915 343.905 143.502 342.097 142.303 340.148C140.34 337.113 138.05 333.109 133.785 333.606C129.834 334.064 127.138 338.212 125.581 341.431Z" fill="#263238"/>
<path d="M68.9665 315.04C73.1141 320.496 80.5328 319.528 85.8973 316.623C88.9887 314.827 91.906 312.746 94.6114 310.408C97.4732 307.995 100.537 305.832 103.77 303.945C103.81 303.933 103.844 303.905 103.863 303.868C103.883 303.831 103.887 303.788 103.875 303.748C103.863 303.709 103.835 303.675 103.798 303.655C103.762 303.636 103.719 303.632 103.679 303.644C97.045 304.704 92.2562 310.186 86.8525 313.64C81.7758 316.911 74.4095 318.874 69.1758 314.739C69.045 314.582 68.8356 314.87 68.9665 315.04Z" fill="#263238"/>
<path d="M176.989 325.376C177.408 325.376 177.578 324.748 177.146 324.643C170.447 322.982 165.161 317.957 161.916 311.978C158.981 306.528 157.288 300.496 156.957 294.314C156.655 289.666 157.341 285.005 158.972 280.642C159.403 279.186 160.154 277.844 161.17 276.716C161.401 276.424 161.691 276.185 162.021 276.013C162.351 275.842 162.714 275.744 163.086 275.724C163.457 275.704 163.828 275.764 164.175 275.899C164.522 276.034 164.835 276.241 165.096 276.507C165.811 277.501 166.454 278.547 167.019 279.634C168.559 281.944 170.609 283.869 173.011 285.26C175.402 286.65 178.099 287.428 180.862 287.524C183.796 287.6 186.692 286.852 189.223 285.365C189.393 285.26 189.314 284.933 189.105 284.999C185.618 286.063 181.893 286.073 178.401 285.025C174.908 283.977 171.804 281.919 169.479 279.111C167.882 277.056 167.019 273.877 163.97 273.642C160.922 273.406 158.802 275.84 157.598 278.365C154.919 284.417 154.037 291.112 155.06 297.651C156.669 309.178 163.604 324.761 176.989 325.376Z" fill="#263238"/>
<path d="M128.578 350.877C128.158 352.069 127.967 353.33 128.015 354.593C128.025 354.631 128.045 354.665 128.073 354.692C128.101 354.719 128.136 354.738 128.174 354.746C128.212 354.754 128.252 354.751 128.288 354.738C128.325 354.725 128.357 354.702 128.381 354.672C128.989 353.72 129.452 352.684 129.755 351.597C130.161 350.472 130.58 349.346 131.064 348.247C131.541 347.143 132.101 346.075 132.738 345.055C132.948 344.606 133.231 344.194 133.576 343.838L133.667 343.773L133.877 343.982C134.073 344.17 134.257 344.371 134.426 344.584C135.755 346.41 137.188 348.157 138.718 349.817C140.026 351.034 142.107 352.356 143.952 351.937C143.977 351.926 143.998 351.907 144.013 351.884C144.028 351.861 144.036 351.834 144.036 351.806C144.036 351.779 144.028 351.752 144.013 351.728C143.998 351.705 143.977 351.687 143.952 351.675C142.901 351.137 141.929 350.459 141.06 349.66C140.25 348.822 139.519 347.911 138.875 346.939C138.129 345.918 137.462 344.832 136.651 343.851C135.839 342.87 134.937 341.601 133.641 341.601C132.346 341.601 131.731 342.765 131.221 343.694C130.6 344.803 130.074 345.963 129.651 347.161C129.297 348.391 128.905 349.621 128.578 350.877Z" fill="#263238"/>
<path d="M180.116 318.324C180.166 318.339 180.221 318.337 180.269 318.316C180.317 318.295 180.357 318.258 180.381 318.211C180.404 318.164 180.41 318.11 180.398 318.059C180.385 318.007 180.355 317.962 180.312 317.931C178.704 316.574 177.216 315.081 175.864 313.47C174.576 311.791 173.379 310.044 172.279 308.236C170.088 305.124 168.212 301.802 166.679 298.318C165.887 296.627 165.476 294.782 165.475 292.914C165.724 290.298 168.353 292.208 169.492 293.189C170.758 294.43 172.114 295.575 173.548 296.617C176.397 298.451 179.778 299.275 183.152 298.959C184.774 298.67 186.336 298.108 187.77 297.298C188.097 297.154 187.862 296.709 187.535 296.814C186.251 297.128 184.929 297.251 183.61 297.18C182.524 297.2 181.439 297.134 180.365 296.984C178.13 296.635 176.004 295.78 174.15 294.485C171.925 292.901 167.843 287.589 164.729 290.154C162.034 292.365 164.114 297.507 165.2 300.019C166.997 303.832 169.19 307.446 171.742 310.8C173.836 313.679 176.61 317.12 180.116 318.324Z" fill="#263238"/>
<path d="M77.3141 328.333C80.1658 328.901 83.1266 328.403 85.6356 326.933C86.1721 326.645 86.6693 326.318 87.1926 325.991C86.9179 326.305 86.6562 326.606 86.4076 326.92C84.6103 329.115 83.4837 331.782 83.1627 334.601C83.1618 334.639 83.173 334.677 83.1947 334.709C83.2164 334.74 83.2476 334.764 83.2838 334.777C83.32 334.79 83.3594 334.792 83.3964 334.781C83.4333 334.771 83.466 334.749 83.4898 334.718C84.9552 332.481 86.4599 330.23 88.1347 328.176C89.8095 326.122 91.759 324.094 93.3683 321.935C93.4308 321.839 93.4641 321.728 93.4641 321.613C93.4641 321.499 93.4309 321.387 93.3685 321.292C93.3061 321.196 93.2171 321.12 93.1126 321.074C93.008 321.028 92.8923 321.014 92.7796 321.032C90.0057 321.66 87.9253 323.649 85.4655 324.958C82.8629 326.321 80.1155 327.387 77.2749 328.137C77.1702 328.137 77.1702 328.307 77.3141 328.333Z" fill="#263238"/>
<path d="M107.682 340.58C106.194 343.351 104.883 346.213 103.757 349.15C103.721 349.221 103.714 349.304 103.738 349.38C103.763 349.456 103.817 349.519 103.888 349.556C103.959 349.592 104.042 349.599 104.118 349.574C104.194 349.55 104.257 349.496 104.293 349.425C106.518 346.429 108.31 343.105 110.378 339.991C112.445 336.877 114.499 334.051 116.75 331.212C120.327 326.59 124.663 322.608 129.572 319.436C130.83 318.633 132.142 317.916 133.497 317.29C134.895 316.5 136.459 316.051 138.064 315.982C140.968 316.139 142.852 318.926 144.148 321.085C147.275 326.318 149.944 331.84 154.785 335.83C156.905 337.677 159.464 338.947 162.217 339.52C163.389 339.86 164.638 339.823 165.789 339.415C166.142 339.193 166.365 338.866 166.011 338.552C165.894 338.46 165.71 338.552 165.789 338.735C165.867 338.918 164.101 338.565 164.023 338.539L162.897 338.225C162.107 337.981 161.34 337.666 160.608 337.283C159.209 336.553 157.893 335.676 156.682 334.666C154.099 332.357 151.93 329.622 150.271 326.58C148.766 324.028 147.432 321.346 145.757 318.9C144.453 316.691 142.464 314.968 140.092 313.993C137.108 313.025 134.086 314.098 131.391 315.301C128.791 316.478 126.329 317.94 124.05 319.658C119.404 323.183 115.417 327.502 112.275 332.415C110.602 335.055 109.07 337.78 107.682 340.58Z" fill="#263238"/>
<path d="M115.18 346.416C114.26 348.601 113.61 350.89 113.243 353.233C113.24 353.271 113.249 353.309 113.27 353.341C113.291 353.373 113.322 353.397 113.359 353.409C113.395 353.421 113.434 353.421 113.47 353.408C113.506 353.395 113.537 353.37 113.557 353.337C114.866 351.061 115.781 348.535 117.142 346.259C118.503 343.982 119.759 341.732 121.067 339.547C123.515 335.622 126.351 331.953 129.533 328.595C131.038 327.064 132.804 325.756 135.002 325.978C137.064 326.396 138.915 327.521 140.236 329.158C143.193 332.468 144.553 337.008 147.602 340.253C148.953 341.735 150.639 342.871 152.519 343.568C154.4 344.264 156.419 344.501 158.41 344.257C158.54 344.257 158.58 343.982 158.41 343.943C155.848 343.33 153.447 342.174 151.37 340.554C149.346 338.816 147.679 336.701 146.464 334.326C144.213 330.401 142.028 326.135 137.776 324.173C135.911 323.277 133.77 323.145 131.809 323.806C129.766 324.697 127.97 326.071 126.576 327.81C123.252 331.414 120.391 335.418 118.058 339.73C116.941 341.887 115.979 344.122 115.18 346.416Z" fill="#263238"/>
<path d="M96.2467 344.205C96.2153 344.309 96.2232 344.421 96.269 344.52C96.3148 344.619 96.3954 344.698 96.4953 344.741H96.6654C96.7399 344.742 96.8133 344.724 96.8794 344.69C96.9455 344.656 97.0023 344.606 97.0449 344.545C99.0244 341.449 101.169 338.461 103.469 335.595C105.886 332.656 108.468 329.855 111.202 327.208C115.732 322.581 120.571 318.266 125.686 314.294C128.21 312.372 130.95 310.751 133.851 309.466C136.611 308.262 140.393 306.627 143.009 308.956C144.528 310.532 145.732 312.384 146.555 314.412C146.922 315.171 147.288 315.904 147.667 316.597C149.258 319.552 151.129 322.348 153.254 324.945C155.318 327.478 157.79 329.649 160.568 331.369C163.225 333.042 166.255 334.031 169.387 334.248C169.494 334.259 169.601 334.228 169.687 334.163C169.772 334.097 169.829 334.001 169.845 333.894C169.873 333.792 169.861 333.683 169.809 333.59C169.758 333.497 169.672 333.427 169.57 333.397C160.869 330.348 155.282 323.689 152.142 318.638C151.265 317.225 150.467 315.694 149.722 314.229C148.976 312.763 148.204 311.285 147.314 309.872C145.417 306.797 142.983 305.227 140.131 305.135C136.703 305.044 133.144 306.535 130.436 307.818C127.46 309.255 124.648 311.01 122.049 313.051C116.792 317.326 111.887 322.017 107.381 327.077C102.71 332.115 98.1047 337.689 96.2467 344.205Z" fill="#263238"/>
<path d="M177.918 322.629C178.35 322.838 178.612 322.197 178.284 321.935C173.903 318.603 170.124 314.545 167.111 309.937C164.643 305.923 162.94 301.487 162.086 296.853C161.634 294.481 161.402 292.072 161.393 289.657C161.393 287.891 160.935 283.429 163.526 283.416C166.116 283.403 167.542 286.517 169.047 288.008C170.766 289.753 172.793 291.164 175.026 292.169C177.241 293.207 179.706 293.589 182.131 293.271C184.556 292.954 186.84 291.949 188.712 290.377C188.742 290.352 188.762 290.317 188.768 290.279C188.774 290.241 188.766 290.202 188.745 290.17C188.723 290.137 188.691 290.114 188.654 290.104C188.617 290.093 188.577 290.097 188.542 290.115C182.785 293.32 175.236 290.821 170.787 286.53C168.982 284.803 167.516 282.304 164.952 281.61C164.433 281.408 163.877 281.318 163.321 281.347C162.765 281.375 162.222 281.522 161.727 281.777C161.232 282.032 160.797 282.389 160.45 282.825C160.104 283.261 159.854 283.766 159.718 284.305C159.197 286.715 159.047 289.191 159.273 291.646C159.392 294.134 159.769 296.602 160.398 299.012C162.976 308.59 168.916 318.076 177.918 322.629Z" fill="#263238"/>
<path d="M92.5571 334.901C91.5106 336.708 90.7305 338.655 90.2412 340.685C90.1901 340.925 90.2233 341.176 90.3352 341.396C90.4472 341.615 90.6311 341.789 90.8561 341.888C90.9537 341.921 91.0546 341.943 91.1571 341.954C91.3185 341.961 91.479 341.925 91.6217 341.849C91.7644 341.773 91.8841 341.66 91.9683 341.522C92.7402 340.331 93.4729 339.115 94.2056 337.911C95.7659 335.205 97.5147 332.612 99.4393 330.152C102.306 326.687 105.419 323.433 108.755 320.417C115.495 314.786 122.55 309.544 129.886 304.716C140.353 297.756 147.537 294.079 149.185 294.838C150.31 295.361 150.363 297.232 150.415 298.763C150.415 299.2 150.437 299.637 150.48 300.072C150.749 302.215 151.133 304.342 151.632 306.444C152.51 310.47 154.025 314.33 156.12 317.879C158.046 321.108 160.659 323.873 163.774 325.978C165.475 327.09 169.884 329.589 173.94 328.817C174.046 328.776 174.137 328.705 174.204 328.613C174.27 328.521 174.308 328.411 174.314 328.298C174.319 328.184 174.292 328.072 174.235 327.974C174.178 327.876 174.094 327.796 173.993 327.744C173.325 327.483 172.684 327.247 172.017 327.012C170.614 326.535 169.246 325.963 167.922 325.298C166.01 324.266 164.249 322.976 162.688 321.464C159.515 318.269 157.128 314.382 155.714 310.107C154.396 305.941 153.519 301.647 153.097 297.298C153.086 296.37 152.865 295.458 152.45 294.628C152.035 293.799 151.438 293.074 150.703 292.509C149.159 291.501 146.503 292.195 145.194 292.758C137.684 295.976 113.557 311.389 103.94 320.313C100.949 323.156 98.2527 326.295 95.8935 329.681C94.6857 331.358 93.5718 333.101 92.5571 334.901Z" fill="#263238"/>
<path d="M73.4544 322.589C78.4918 324.774 84.4581 322.589 89.0506 320.313C93.6432 318.036 97.4245 314.961 101.729 312.462C102.841 311.834 103.953 311.245 105.105 310.709C105.681 310.447 106.269 310.199 106.858 309.976C107.159 309.858 107.512 309.636 107.826 309.741C108.14 309.845 108.206 309.741 107.957 309.989C107.709 310.238 107.8 310.212 107.709 310.316C106.217 312.174 103.875 313.509 102.082 315.053C98.4161 318.151 95.0834 321.624 92.1385 325.415C89.3647 329.014 86.4731 333.148 85.5964 337.688C85.5964 337.911 85.8581 337.989 85.9759 337.832C87.7422 335.425 89.2207 332.808 90.974 330.387C92.6958 328.027 94.5987 325.805 96.6656 323.741C98.5105 321.883 100.434 320.09 102.383 318.35C104.333 316.61 106.387 315.118 108.14 313.273C109.357 311.965 111.529 309.348 109.148 308.04C107.225 306.993 104.372 308.785 102.671 309.636C97.8563 312.043 93.5123 315.301 88.8282 317.892C86.4179 319.252 83.8581 320.327 81.2002 321.098C78.6654 321.746 76.0689 322.123 73.4544 322.223C73.245 322.236 73.245 322.511 73.4544 322.589Z" fill="#263238"/>
<path d="M133.537 348.104C133.534 348.056 133.534 348.008 133.537 347.96C133.552 347.915 133.578 347.874 133.613 347.84C133.647 347.806 133.688 347.781 133.734 347.766C133.779 347.751 133.827 347.746 133.875 347.753C133.922 347.759 133.968 347.776 134.008 347.803L134.112 347.868C134.57 348.038 134.871 348.706 135.041 349.098C135.211 349.491 135.473 350.079 135.695 350.55C136.127 351.493 136.507 352.461 137.004 353.39C137.031 353.43 137.041 353.479 137.034 353.527C137.027 353.575 137.003 353.619 136.965 353.649C136.928 353.68 136.88 353.696 136.832 353.694C136.784 353.692 136.738 353.672 136.703 353.638C135.776 353.008 134.984 352.198 134.374 351.257C134.1 350.799 133.86 350.323 133.654 349.831C133.526 349.522 133.442 349.196 133.406 348.863C133.367 348.602 133.413 348.336 133.537 348.104Z" fill="#263238"/>
<path d="M31.0485 206.952H27.1233V161.079H72.9962V165.004H31.0485V206.952Z" fill="#FB923C"/>
<path d="M228.802 362.744H182.929V358.819H224.877V316.871H228.802V362.744Z" fill="#FB923C"/>
<path d="M72.9962 362.744H27.1233V316.871H31.0485V358.819H72.9962V362.744Z" fill="#FB923C"/>
<path d="M228.802 206.952H224.877V165.004H182.929V161.079H228.802V206.952Z" fill="#FB923C"/>
<path d="M238.903 372.858H235.802V371.877H237.922V369.757H238.903V372.858Z" fill="#FB923C"/>
<path d="M230.542 372.859H225.309V371.877H230.542V372.859ZM220.075 372.859H214.841V371.877H220.075V372.859ZM209.608 372.859H204.374V371.877H209.608V372.859ZM199.14 372.859H193.907V371.877H199.14V372.859ZM188.673 372.859H183.439V371.877H188.673V372.859ZM178.206 372.859H172.972V371.877H178.206V372.859ZM167.738 372.859H162.505V371.877H167.738V372.859ZM157.271 372.859H152.038V371.877H157.271V372.859ZM146.804 372.859H141.57V371.877H146.804V372.859ZM136.337 372.859H131.103V371.877H136.337V372.859ZM125.869 372.859H120.636V371.877H125.869V372.859ZM115.402 372.859H110.168V371.877H115.402V372.859ZM104.935 372.859H99.701V371.877H104.935V372.859ZM94.4674 372.859H89.2337V371.877H94.4674V372.859ZM84.0001 372.859H78.7664V371.877H84.0001V372.859ZM73.5328 372.859H68.2991V371.877H73.5328V372.859ZM63.0655 372.859H57.8318V371.877H63.0655V372.859ZM52.5982 372.859H47.3645V371.877H52.5982V372.859ZM42.1309 372.859H36.8972V371.877H42.1309V372.859ZM31.6636 372.859H26.4299V371.877H31.6636V372.859Z" fill="#FB923C"/>
<path d="M20.1234 372.858H17.0225V369.757H18.0038V371.877H20.1234V372.858Z" fill="#FB923C"/>
<path d="M18.0037 364.485H16.9832V359.251H17.9645L18.0037 364.485ZM18.0037 354.017H16.9832V348.784H17.9645L18.0037 354.017ZM18.0037 343.55H16.9832V338.316H17.9645L18.0037 343.55ZM18.0037 333.083H16.9832V327.849H17.9645L18.0037 333.083ZM18.0037 322.615H16.9832V317.382H17.9645L18.0037 322.615ZM18.0037 312.148H16.9832V306.914H17.9645L18.0037 312.148ZM18.0037 301.681H16.9832V296.447H17.9645L18.0037 301.681ZM18.0037 291.213H16.9832V285.98H17.9645L18.0037 291.213ZM18.0037 280.746H16.9832V275.513H17.9645L18.0037 280.746ZM18.0037 270.279H16.9832V265.045H17.9645L18.0037 270.279ZM18.0037 259.812H16.9832V254.578H17.9645L18.0037 259.812ZM18.0037 249.344H16.9832V244.111H17.9645L18.0037 249.344ZM18.0037 238.877H16.9832V233.643H17.9645L18.0037 238.877ZM18.0037 228.41H16.9832V223.176H17.9645L18.0037 228.41ZM18.0037 217.942H16.9832V212.709H17.9645L18.0037 217.942ZM18.0037 207.41H16.9832V202.176H17.9645L18.0037 207.41ZM18.0037 196.942H16.9832V191.709H17.9645L18.0037 196.942ZM18.0037 186.475H16.9832V181.241H17.9645L18.0037 186.475ZM18.0037 176.008H16.9832V170.774H17.9645L18.0037 176.008ZM18.0037 165.54H16.9832V160.307H17.9645L18.0037 165.54Z" fill="#FB923C"/>
<path d="M18.0038 154.079H17.0225V150.978H20.1234V151.959H18.0038V154.079Z" fill="#FB923C"/>
<path d="M230.542 151.959H225.309V150.978H230.542V151.959ZM220.075 151.959H214.841V150.978H220.075V151.959ZM209.608 151.959H204.374V150.978H209.608V151.959ZM199.14 151.959H193.907V150.978H199.14V151.959ZM188.673 151.959H183.439V150.978H188.673V151.959ZM178.206 151.959H172.972V150.978H178.206V151.959ZM167.738 151.959H162.505V150.978H167.738V151.959ZM157.271 151.959H152.038V150.978H157.271V151.959ZM146.804 151.959H141.57V150.978H146.804V151.959ZM136.337 151.959H131.103V150.978H136.337V151.959ZM125.869 151.959H120.636V150.978H125.869V151.959ZM115.402 151.959H110.168V150.978H115.402V151.959ZM104.935 151.959H99.701V150.978H104.935V151.959ZM94.4674 151.959H89.2337V150.978H94.4674V151.959ZM84.0001 151.959H78.7664V150.978H84.0001V151.959ZM73.5328 151.959H68.2991V150.978H73.5328V151.959ZM63.0655 151.959H57.8318V150.978H63.0655V151.959ZM52.5982 151.959H47.3645V150.978H52.5982V151.959ZM42.1309 151.959H36.8972V150.978H42.1309V151.959ZM31.6636 151.959H26.4299V150.978H31.6636V151.959Z" fill="#FB923C"/>
<path d="M238.903 154.079H237.922V151.959H235.802V150.978H238.903V154.079Z" fill="#FB923C"/>
<path d="M238.903 364.485H237.922V359.251H238.903V364.485ZM238.903 354.017H237.922V348.784H238.903V354.017ZM238.903 343.55H237.922V338.316H238.903V343.55ZM238.903 333.083H237.922V327.849H238.903V333.083ZM238.903 322.615H237.922V317.382H238.903V322.615ZM238.903 312.148H237.922V306.914H238.903V312.148ZM238.903 301.681H237.922V296.447H238.903V301.681ZM238.903 291.213H237.922V285.98H238.903V291.213ZM238.903 280.746H237.922V275.513H238.903V280.746ZM238.903 270.279H237.922V265.045H238.903V270.279ZM238.903 259.812H237.922V254.578H238.903V259.812ZM238.903 249.344H237.922V244.111H238.903V249.344ZM238.903 238.877H237.922V233.643H238.903V238.877ZM238.903 228.41H237.922V223.176H238.903V228.41ZM238.903 217.942H237.922V212.709H238.903V217.942ZM238.903 207.41H237.922V202.176H238.903V207.41ZM238.903 196.942H237.922V191.709H238.903V196.942ZM238.903 186.475H237.922V181.241H238.903V186.475ZM238.903 176.008H237.922V170.774H238.903V176.008ZM238.903 165.54H237.922V160.307H238.903V165.54Z" fill="#FB923C"/>
<path d="M302.702 524.007H423.52C424.515 520.081 425.47 516.287 426.438 512.519C427.537 508.157 428.615 503.931 429.67 499.84C429.892 498.924 430.141 498.008 430.377 497.106C431.175 493.952 431.947 490.878 432.719 487.947C433.177 486.115 433.635 484.322 434.027 482.556C434.42 480.79 434.943 478.971 435.335 477.244C435.453 476.786 435.571 476.315 435.689 475.936C435.807 475.556 435.937 474.928 436.055 474.444L436.513 472.651C436.683 472.023 436.84 471.408 436.984 470.793C437.298 469.629 437.586 468.491 437.861 467.365C438.292 465.717 438.698 464.094 439.104 462.511C439.274 461.831 439.457 461.137 439.627 460.47C439.915 459.358 440.19 458.285 440.451 457.238C440.635 456.532 440.805 455.838 440.975 455.171C441.694 452.397 442.349 449.793 442.964 447.321C443.134 446.679 443.278 446.012 443.448 445.436C443.709 444.377 443.971 443.369 444.22 442.388C444.39 441.773 444.534 441.184 444.678 440.595C445.214 438.515 445.698 436.67 446.117 434.956C446.235 434.511 446.339 434.079 446.457 433.648L447.203 430.691C447.294 430.35 447.373 430.01 447.464 429.696C447.556 429.382 447.635 429.029 447.7 428.741C447.765 428.453 447.818 428.309 447.857 428.126C447.896 427.943 448.014 427.537 448.079 427.302C448.099 427.177 448.13 427.055 448.171 426.935L448.446 425.836H331.003C331.003 425.836 327.077 439.195 320.928 460.719C319.619 465.102 318.311 469.878 316.859 474.85C312.685 489.072 307.883 505.82 302.702 524.007Z" fill="#37474F"/>
<path d="M403.737 524.006H406.746C411.221 505.497 415.556 486.956 419.752 468.386C420.764 463.867 421.763 459.345 422.748 454.817L423.023 453.509C423.031 453.464 423.021 453.417 422.996 453.379C422.971 453.341 422.933 453.313 422.888 453.301C422.844 453.29 422.797 453.295 422.757 453.317C422.716 453.338 422.685 453.374 422.67 453.417L422.552 453.836C421.191 458.686 419.839 463.549 418.496 468.425C413.432 486.874 408.513 505.401 403.737 524.006Z" fill="#263238"/>
<path d="M334.757 425.718L339.991 451.703L344.204 472.978L351.453 509.287L352.198 513.016L353.441 519.217L354.37 523.915H423.533C424.514 519.989 425.483 516.182 426.438 512.427C427.537 508.065 428.614 503.839 429.67 499.748C429.892 498.832 430.141 497.917 430.376 497.014C431.174 493.86 431.946 490.786 432.718 487.855C433.176 486.023 433.634 484.231 434.027 482.464C434.419 480.698 434.942 478.879 435.335 477.152C435.453 476.694 435.571 476.223 435.688 475.844C435.806 475.464 435.937 474.836 436.055 474.352L436.513 472.559C436.683 471.931 436.84 471.317 436.984 470.702C437.298 469.537 437.586 468.399 437.86 467.274C438.292 465.625 438.698 464.002 439.103 462.419C439.286 461.726 439.456 461.045 439.627 460.378C439.914 459.266 440.189 458.193 440.451 457.146C440.634 456.44 440.804 455.746 440.974 455.079C441.694 452.305 442.348 449.702 442.963 447.229C443.133 446.587 443.277 445.92 443.447 445.344C443.709 444.285 443.971 443.277 444.219 442.296C444.389 441.681 444.533 441.092 444.677 440.503C445.214 438.423 445.698 436.578 446.116 434.864C446.234 434.419 446.339 433.987 446.457 433.556L447.202 430.599C447.294 430.258 447.372 429.918 447.464 429.604C447.556 429.29 447.634 428.937 447.7 428.649C447.765 428.361 447.817 428.217 447.857 428.034C447.896 427.851 448.014 427.445 448.079 427.21C448.099 427.085 448.129 426.963 448.171 426.844L448.445 425.744L334.757 425.718Z" fill="#263238"/>
<path d="M334.744 425.679C334.744 426.333 335.242 433.347 336.367 443.997C336.694 447.124 337.073 450.539 337.518 454.229C338.212 460.038 339.062 466.436 340.135 473.201C341.941 484.977 344.296 497.877 347.358 510.464C348.443 514.991 349.647 519.479 350.916 523.876H502.692C500.9 500.743 499.264 479.821 497.969 463.335C496.137 440.124 494.986 425.588 494.986 425.588H357.288L334.744 425.679Z" fill="#37474F"/>
<path d="M335.072 439.627C335.242 445.057 335.464 450.487 335.817 455.89C336.184 461.752 336.72 467.601 337.492 473.449C337.506 473.664 337.532 473.878 337.571 474.09C338.295 479.568 339.115 485.033 340.03 490.485C340.907 495.562 341.548 501.044 343.799 505.754C344.651 507.57 345.857 509.197 347.344 510.543C348.716 511.789 350.389 512.655 352.199 513.055C352.495 513.129 352.797 513.177 353.101 513.199C353.18 513.199 353.272 513.199 353.363 513.199C353.306 513.228 353.259 513.273 353.229 513.329C353.199 513.385 353.186 513.45 353.193 513.513C353.258 515.332 353.193 517.19 353.416 518.995C353.416 519.074 353.416 519.152 353.416 519.231C353.599 520.801 353.887 522.358 354.174 523.928H356.791C356.791 523.928 356.791 523.928 356.791 523.836C356.333 522.122 355.954 520.395 355.483 518.603C355.012 516.81 354.436 515.122 354.03 513.369C354.01 513.298 353.964 513.237 353.9 513.199C355.555 513.282 357.195 512.855 358.599 511.975C360.003 511.095 361.103 509.805 361.75 508.279C362.408 505.953 362.453 503.497 361.881 501.148L360.468 491.819C359.578 486.115 358.44 480.462 357.419 474.81C357.275 473.947 357.118 473.083 356.961 472.193C354.933 460.64 352.801 449.074 350.249 437.625C350.158 437.154 350.04 436.683 349.935 436.199C349.83 435.715 349.359 435.976 349.386 436.277C349.464 437.049 349.543 437.821 349.634 438.593C350.079 442.989 350.602 447.36 351.204 451.677C351.937 456.806 352.447 461.961 353.167 467.09L353.913 472.324C355.09 480.763 356.32 489.203 357.759 497.603C358.44 501.528 360.873 508.502 355.247 509.719C353.96 510.004 352.614 509.833 351.44 509.234C348.96 507.76 347.101 505.435 346.206 502.692C344.61 498.218 344.047 493.298 343.223 488.64C342.29 483.502 341.47 478.352 340.763 473.188C339.847 466.75 338.905 460.313 337.885 453.889C337.387 450.604 336.864 447.346 336.341 444.049C336.105 442.545 335.857 441.027 335.608 439.509C335.569 439.208 335.072 439.3 335.072 439.627Z" fill="#263238"/>
<path d="M469.393 479.978C463.072 479.916 456.783 479.072 450.67 477.466C447.844 476.734 445.057 475.831 442.296 474.928C439.553 474.164 436.985 472.876 434.733 471.134C430.481 467.457 428.492 461.674 426.647 456.545C424.628 450.757 422.989 444.843 421.741 438.842C421.675 438.541 421.244 438.633 421.23 438.92C421.111 445.716 421.992 452.492 423.847 459.031C425.378 464.578 427.432 470.806 431.92 474.732C436.631 478.814 443.042 480.253 449.074 480.999C455.86 481.791 462.722 481.699 469.485 480.724C469.534 480.718 469.581 480.703 469.624 480.678C469.667 480.654 469.705 480.621 469.735 480.583C469.765 480.544 469.788 480.499 469.801 480.452C469.814 480.404 469.818 480.354 469.812 480.306C469.806 480.257 469.79 480.209 469.766 480.166C469.742 480.123 469.709 480.086 469.67 480.055C469.631 480.025 469.587 480.002 469.539 479.989C469.492 479.976 469.442 479.972 469.393 479.978Z" fill="#263238"/>
<path d="M479.913 438.96C480.253 447.465 480.611 455.969 480.986 464.474C481.858 484.283 482.813 504.093 483.851 523.902H486.704C485.395 504.04 484.021 484.2 482.582 464.382C481.954 455.886 481.309 447.408 480.646 438.947C480.644 438.85 480.604 438.757 480.534 438.69C480.464 438.622 480.37 438.585 480.273 438.587C480.176 438.589 480.083 438.629 480.016 438.699C479.948 438.769 479.911 438.863 479.913 438.96Z" fill="#263238"/>
<path d="M351.597 250.757C291.802 304.651 236.365 363.673 232.021 393.793C226.015 435.505 251.647 447.085 263.161 447.189C294.458 447.503 351.335 320.666 371.118 272.241C390.326 225.217 364.733 238.916 351.597 250.757Z" fill="#BB756C"/>
<path d="M261.342 337.008L327.836 373.147C327.836 373.147 369.169 296.788 378.694 261.395C388.219 226.003 373.997 226.997 342.778 254.552C311.559 282.107 261.342 337.008 261.342 337.008Z" fill="#C7C7C7"/>
<path d="M261.342 337.008L327.836 373.147C327.836 373.147 369.169 296.788 378.694 261.395C388.219 226.003 373.997 226.997 342.778 254.552C311.559 282.107 261.342 337.008 261.342 337.008Z" fill="#FB923C"/>
<path opacity="0.1" d="M378.694 261.382C369.169 296.787 327.823 373.159 327.823 373.159L267.283 340.24L378.786 235.436C382.502 238.288 382.659 246.701 378.694 261.382Z" fill="black"/>
<path d="M275.028 326.816C300.66 344.165 325.507 355.431 330.492 358.296C330.727 358.44 330.924 358.048 330.675 357.917C325.638 355.365 298.357 338.382 275.225 326.397C274.963 326.253 274.74 326.646 275.028 326.816Z" fill="#263238"/>
<path d="M312.842 472.861L507.546 473.424C507.546 473.424 490.537 326.881 419.072 240.382C402.533 220.35 375.894 231.223 364.655 241.874C336.131 268.866 312.292 472.154 312.842 472.861Z" fill="#FB923C"/>
<path d="M379.819 232.413C384.49 235.828 388.978 239.597 393.466 243.09L406.55 253.23C410.475 256.305 414.401 259.772 418.862 262.193C422.879 264.391 427.55 265.372 431.855 263.41C432.907 262.921 433.896 262.306 434.799 261.578L435.244 262.271C433.051 264.095 430.342 265.184 427.498 265.385C423.193 265.634 419.176 263.671 415.722 261.316C411.352 258.359 407.283 254.944 403.109 251.712C395.01 245.445 387.016 238.903 378.694 232.911C379.021 232.74 379.414 232.57 379.819 232.413ZM457.474 348.98C464.363 348.938 471.241 349.547 478.016 350.799C477.859 350.341 477.689 349.87 477.505 349.412C471.552 348.322 465.514 347.757 459.462 347.724C441.838 347.397 418.26 348.496 407.61 331.225C403.41 324.421 402.049 315.38 406.668 308.406C410.737 302.256 418.339 299.6 425.47 299.666C429.189 299.689 432.869 300.417 436.317 301.812C440.388 303.668 444.145 306.149 447.451 309.165C453.784 314.555 459.685 320.875 467.614 323.871L466.986 322.354C464.625 321.339 462.387 320.062 460.313 318.546C452.946 313.221 446.993 305.841 438.803 301.681C432.531 298.518 425.348 297.662 418.509 299.26C411.967 300.843 406.145 305.096 403.724 311.572C401.029 318.795 403.135 327.064 407.44 333.227C418.509 349.019 440.294 348.757 457.474 348.98ZM427.589 281.649C432.741 279.18 438.068 277.094 443.526 275.408C443.29 275.028 443.055 274.623 442.806 274.243C430.245 277.763 418.64 285.705 405.687 287.929C389.968 290.421 373.88 287.105 360.429 278.6C356.743 276.296 353.306 273.617 350.171 270.606C350.014 271.025 349.87 271.443 349.726 271.914C352.721 274.73 355.971 277.262 359.434 279.477C372.425 287.799 387.884 291.393 403.214 289.656C411.81 288.492 419.713 285.208 427.589 281.649ZM439.365 420.668C448.966 424.138 458.777 426.996 468.739 429.225C479.782 431.842 493.442 434.04 502.365 441.511C502.247 440.87 502.117 440.202 501.986 439.588C493.075 432.797 480.292 430.625 469.655 428.139C459.664 425.89 449.819 423.032 440.176 419.582C431.894 416.533 423.703 412.438 417.645 405.83C415.033 403.035 413.016 399.738 411.716 396.139C410.416 392.54 409.861 388.715 410.083 384.896C410.593 377.176 414.989 370.15 422.591 367.743C430.743 365.126 439.836 368.2 446.64 372.845C454.412 378.171 459.999 386.165 465.978 393.283C471.644 400.073 477.924 406.367 486.206 409.795C489.314 411.112 492.624 411.887 495.993 412.085C495.902 411.705 495.823 411.3 495.718 410.907C489.111 410.488 482.634 407.244 477.505 403.266C469.956 397.43 464.539 389.305 458.324 382.161C452.632 375.619 446.117 369.81 437.717 367.088C430.442 364.733 422.081 364.969 415.931 369.98C410.567 374.376 408.434 381.494 408.801 388.232C409.246 395.601 412.385 402.548 417.619 407.754C423.612 413.812 431.436 417.711 439.352 420.642L439.365 420.668ZM415.696 453.993C414.309 460.313 414.963 466.776 414.584 473.161H415.788C416.245 465.311 415.002 457.107 418.26 449.715C419.038 447.824 420.216 446.125 421.714 444.733C423.211 443.342 424.993 442.292 426.935 441.655C431.285 440.534 435.895 441.051 439.888 443.107C448.341 447.242 452.855 456.191 456.963 464.146C458.56 467.195 460.195 470.348 462.079 473.305H463.492C458.834 466.24 455.864 458.18 450.84 451.324C445.986 444.782 438.685 439.365 430.115 439.941C422.173 440.477 417.279 446.653 415.683 453.993H415.696ZM339.363 472.978H340.907C342.649 469.909 343.894 466.584 344.597 463.126C346.481 454.438 345.905 445.449 345.303 436.657C343.864 416.285 340.344 395.481 344.806 375.24C346.512 366.95 349.742 359.048 354.331 351.937C359.146 344.741 366.107 337.976 374.52 335.228C376.733 334.406 379.09 334.039 381.448 334.15C383.807 334.26 386.118 334.845 388.245 335.87C391.829 337.886 394.666 341.007 396.331 344.767C400.584 353.821 397.954 364.066 393.898 372.675C385.956 389.475 373.068 403.632 366.67 421.244C363.84 429.108 362.657 437.471 363.192 445.812C363.728 454.153 365.972 462.295 369.784 469.733C370.359 470.845 370.961 471.945 371.602 473.031H373.029C369.882 467.861 367.535 462.246 366.068 456.374C363.923 448.02 363.646 439.295 365.257 430.821C367.036 421.662 371.105 413.249 375.724 405.294C380.343 397.339 385.851 389.593 390.548 381.468C395.245 373.343 399.799 364.223 399.707 354.528C399.616 347.043 396.135 339.114 389.515 335.202C381.664 330.544 372.257 333.711 365.387 338.604C351.872 348.247 345.015 364.432 342.503 380.395C339.232 401.225 343.328 422.264 344.309 443.12C344.715 451.442 344.688 460.038 341.771 467.98C341.154 469.729 340.346 471.405 339.363 472.978ZM358.885 297.127C354.683 293.568 349.407 291.522 343.903 291.318C343.812 291.658 343.72 292.025 343.615 292.365C344.934 292.429 346.246 292.591 347.541 292.849C355.574 294.445 363.713 300.699 363.804 309.531C363.922 319.148 355.758 326.292 347.855 330.27C343.223 332.599 338.369 334.404 333.619 336.406C333.541 336.825 333.449 337.23 333.371 337.714C336.38 336.406 339.442 335.281 342.529 334.025C350.707 330.675 358.95 326.174 363.019 317.931C364.818 314.508 365.389 310.572 364.636 306.779C363.884 302.986 361.854 299.566 358.885 297.088V297.127Z" fill="white"/>
<path d="M432.744 246.924C489.451 290.455 548.578 364.38 549.507 407.008C550.384 449.139 526.715 444.952 522.737 443.644C480.606 430.56 429.84 313.653 411.025 266.066C392.341 218.871 418.666 236.156 432.744 246.924Z" fill="#BB756C"/>
<path d="M523.85 331.84L458.01 369.169C458.01 369.169 415.304 293.555 405.15 258.333C394.997 223.11 409.246 223.882 441.014 250.849C472.782 277.815 523.85 331.84 523.85 331.84Z" fill="#FB923C"/>
<path d="M509.98 321.896C484.649 339.69 460.012 351.414 455.027 354.357C454.791 354.501 454.595 354.109 454.83 353.978C459.815 351.361 486.795 333.868 509.705 321.477C510.032 321.333 510.255 321.726 509.98 321.896Z" fill="#263238"/>
<path d="M462.236 366.591C460.896 367.108 459.586 367.698 458.311 368.358C451.991 355.784 453.143 358.662 446.692 346.115C443.543 340.009 440.386 333.872 437.219 327.705C433.948 321.32 431.017 314.621 427.406 308.472C427.387 308.434 427.354 308.405 427.313 308.391C427.273 308.378 427.228 308.381 427.19 308.4C427.152 308.419 427.123 308.452 427.11 308.493C427.096 308.533 427.099 308.578 427.118 308.616C429.212 314.661 432.051 320.522 434.733 326.358C434.144 325.455 433.582 324.526 432.928 323.649C431.475 321.7 430.049 319.724 428.767 317.683C428.558 317.369 428.034 317.618 428.23 317.945C429.539 319.907 430.559 321.935 431.645 324.003C432.731 326.07 433.922 328.019 435.139 330.008C436.356 331.997 437.625 333.724 438.933 335.543L439.404 336.223C441.131 339.874 442.806 343.537 444.638 347.148C450.971 359.801 457.487 369.758 457.722 369.692C459.386 368.898 460.983 367.97 462.498 366.919C462.602 366.814 462.419 366.578 462.236 366.591Z" fill="#263238"/>
<path d="M266.053 445.711C285.574 442.859 296.63 406.602 318.298 348.888C322.092 338.761 271.705 280.759 264.862 290.088C256.24 301.864 233.46 367.01 231.131 384.726C226.643 419.634 243.339 449.047 266.053 445.711Z" fill="#BB756C"/>
<path d="M296.081 407.283C297.834 402.376 299.692 397.509 301.563 392.642L307.228 378.079C309.191 373.251 311.075 368.397 312.972 363.556C313.941 361.131 314.874 358.701 315.772 356.268C316.701 353.834 317.604 351.387 318.298 348.875C317.212 353.984 315.747 359.005 313.914 363.896C312.2 368.829 310.303 373.696 308.445 378.563C306.587 383.43 304.52 388.232 302.479 393.021C300.438 397.81 298.292 402.586 296.081 407.283Z" fill="#263238"/>
<path d="M246.78 331.919C249.514 312.109 255.101 284.475 262.18 278.679C269.612 272.608 296.604 252.288 304.389 249.593C312.174 246.898 346.926 233.67 353.311 237.359C358.427 240.317 352.369 253.754 335.843 260.204C321.307 265.857 313.823 271.143 309.675 272.935C305.528 274.728 295.283 288.492 298.03 294.563C299.666 298.135 310.081 302.335 316.557 299.404C323.034 296.474 324.63 283.703 332.023 277.619C339.415 271.535 352.473 272.307 353.232 275.827C353.991 279.346 349.673 280.995 343 292.98C338.709 300.674 338.421 319.148 328.686 332.416C323.793 339.076 315.301 356.791 315.301 356.791L246.78 331.919Z" fill="#BB756C"/>
<path d="M338.931 272.15C341.32 271.805 343.562 270.789 345.395 269.219C346.133 268.51 346.647 267.6 346.873 266.602C346.959 266.056 346.959 265.5 346.873 264.954C346.855 264.369 346.633 263.809 346.245 263.37C346.114 263.279 346.311 263.122 346.376 263.253C346.553 263.528 346.75 263.791 346.965 264.038C347.117 264.272 347.244 264.522 347.344 264.784C347.54 265.302 347.633 265.853 347.619 266.406C347.567 267.617 347.105 268.775 346.311 269.69C345.356 270.668 344.189 271.412 342.9 271.866C341.611 272.32 340.235 272.471 338.879 272.307C338.853 272.346 338.853 272.176 338.931 272.15Z" fill="#263238"/>
<path d="M262.18 278.679C268.473 268.8 284.58 250.954 300.542 244.83C311.324 240.683 348.456 258.739 347.384 265.83C346.311 272.922 339.965 272.961 330.57 271.849C327.155 271.443 309.06 264.954 305.972 268.748C301.55 274.217 295.924 292.862 295.924 292.862L262.18 278.679Z" fill="#BB756C"/>
<path d="M346.455 263.057C341.862 255.468 331.787 251.425 321.752 248.232C321.595 248.232 321.503 248.416 321.66 248.468C324.212 249.279 340.567 256.789 346.35 263.188C346.416 263.253 346.507 263.135 346.455 263.057Z" fill="#263238"/>
<path d="M262.18 278.679C268.473 268.8 284.58 250.954 300.542 244.83C311.324 240.683 340.711 263.789 339.625 270.894C338.539 277.999 329.445 278.561 319.37 275.068C316.112 273.929 305.2 266.262 302.112 270.057C297.69 275.513 286.896 289.068 286.896 289.068L262.18 278.679Z" fill="#BB756C"/>
<path d="M293.058 280.642C294.079 279.085 294.367 278.535 295.453 276.991C296.539 275.447 297.546 273.93 298.697 272.477C299.592 271.123 300.717 269.937 302.021 268.971C303.369 268.202 304.929 267.89 306.469 268.081C309.963 268.408 313.116 270.619 316.086 272.32C319.397 274.217 326.253 277.292 331.512 276.73C332.958 276.645 334.37 276.262 335.66 275.604C336.637 275.157 337.487 274.474 338.133 273.615C340.41 269.69 337.557 265.346 334.653 262.219C329.223 256.397 321.922 252.184 314.843 248.716C313.103 247.866 311.35 247.068 309.61 246.257C307.639 245.204 305.467 244.584 303.238 244.438C299.587 244.438 293.608 248.128 291.763 249.253C291.619 249.331 291.514 249.109 291.645 249.017C293.896 247.617 299.496 243.064 305.331 243.352C307.482 243.677 309.559 244.377 311.468 245.419C313.522 246.296 315.55 247.251 317.552 248.245C321.458 250.165 325.211 252.383 328.778 254.879C332.127 257.273 335.699 260.113 337.937 263.554C338.98 265.077 339.592 266.854 339.707 268.697C339.822 270.54 339.436 272.38 338.591 274.021C336.982 276.638 333.54 277.344 331.97 277.554C330.429 277.757 328.867 277.757 327.326 277.554C323.893 276.813 320.518 275.829 317.225 274.61C314.032 273.301 311.154 271.182 307.869 270.187C307.094 269.922 306.273 269.814 305.455 269.87C304.637 269.926 303.839 270.145 303.107 270.515C301.765 271.412 300.565 272.506 299.548 273.759C297.352 275.919 295.363 278.281 293.608 280.812C293.176 281.544 292.692 281.322 293.058 280.642Z" fill="#263238"/>
<path d="M257.522 287.314C259.825 282.604 263.711 263.213 267.453 257.221C271.195 251.228 288.256 230.699 296.238 231.589C306.273 232.701 295.832 250.77 290.585 258.215C285.339 265.66 286.241 278.313 286.241 278.313L257.522 287.314Z" fill="#BB756C"/>
<path d="M297.9 245.93C296.029 248.285 294.38 250.902 292.757 253.427C291.087 255.774 289.592 258.24 288.283 260.806C287.185 263.433 286.526 266.222 286.333 269.062C286.202 270.462 286.163 271.849 286.15 273.249C286.137 274.649 286.281 276.324 286.255 277.842C286.248 277.861 286.247 277.882 286.25 277.903C286.253 277.923 286.261 277.943 286.273 277.959C286.285 277.976 286.301 277.99 286.319 277.999C286.338 278.009 286.358 278.014 286.379 278.014C286.4 278.014 286.42 278.009 286.438 277.999C286.457 277.99 286.473 277.976 286.485 277.959C286.497 277.943 286.505 277.923 286.508 277.903C286.511 277.882 286.51 277.861 286.503 277.842C286.681 275.051 287.044 272.276 287.589 269.533C288.077 266.68 288.916 263.898 290.088 261.251C292.43 256.017 295.858 251.307 298.24 246.087C298.292 245.89 298.03 245.76 297.9 245.93Z" fill="#263238"/>
<path d="M286.359 280.484C286.505 282.833 286.995 285.147 287.812 287.354C288.555 289.595 289.456 291.781 290.507 293.896C291.523 296.006 292.654 298.059 293.896 300.045C295.099 302.047 296.512 303.853 297.991 305.763C300.998 309.492 303.396 313.674 305.096 318.154C306.688 322.635 307.485 327.359 307.451 332.114C307.015 327.429 305.914 322.829 304.18 318.455C302.319 314.156 299.886 310.128 296.944 306.483C295.448 304.628 294.068 302.684 292.81 300.66C291.58 298.611 290.487 296.482 289.539 294.288C287.733 289.931 286.058 285.273 286.359 280.484Z" fill="#263238"/>
<path d="M357.943 252.799C358.225 255.872 358.662 258.929 359.251 261.958C359.715 264.716 360.429 267.427 361.384 270.057C363.255 274.78 366.827 279.216 372.335 280.432C374.897 280.924 377.532 280.896 380.083 280.349C382.634 279.803 385.049 278.75 387.186 277.253C391.752 274.244 395.311 269.978 398.569 265.831C400.601 263.266 402.507 260.623 404.287 257.902C405.176 256.515 406.092 255.154 406.903 253.728C407.715 252.302 408.487 250.862 409.402 249.502C409.481 249.384 409.716 249.502 409.651 249.593C407.872 252.812 402.533 263.017 400.754 265.543C397.496 270.148 393.95 274.846 389.227 278.247C384.702 281.691 379.015 283.239 373.369 282.565C370.663 282.142 368.11 281.033 365.953 279.346C363.796 277.658 362.106 275.447 361.043 272.922C359.794 269.907 358.996 266.724 358.675 263.475C358.23 259.917 357.995 256.331 357.838 252.76C357.864 252.76 357.943 252.76 357.943 252.799Z" fill="#263238"/>
<path d="M376.797 271.548C388.808 271.221 403.619 248.834 407.571 232.832C407.832 231.733 393.675 194.482 391.634 186.802C391.189 185.232 346.533 211.296 346.533 211.296C346.533 211.296 355.548 226.12 359.015 239.518C359.29 240.643 365.178 271.862 376.797 271.548Z" fill="#BB756C"/>
<path d="M346.533 211.296C346.533 211.296 355.548 226.12 359.015 239.531C359.015 239.793 359.46 241.742 360.154 244.569C382.488 236.365 393.335 218.4 398.307 206.324C395.258 197.871 392.445 189.929 391.634 186.828C391.189 185.232 346.533 211.296 346.533 211.296Z" fill="#263238"/>
<path d="M320.888 124.482C318.023 124.966 308.406 147.811 309.806 157.808C311.206 167.804 317.735 187.168 320.718 187.077C323.701 186.985 323.152 124.103 320.888 124.482Z" fill="#263238"/>
<path d="M389.606 133.34C399.472 148.95 403.933 200.606 394.84 214.894C381.612 235.606 353.232 244.987 333.933 227.599C315.21 210.72 310.578 143.297 321.399 129.625C337.309 109.488 375.031 110.286 389.606 133.34Z" fill="#BB756C"/>
<path d="M352.487 166.326C354.009 166.539 355.542 166.675 357.079 166.731C358.845 166.862 360.245 167.163 361.855 166.26C362.281 165.952 362.594 165.512 362.745 165.009C362.897 164.505 362.878 163.965 362.692 163.473C361.776 161.419 359.657 160.713 357.537 160.464C355.413 160.131 353.24 160.597 351.44 161.772C351.037 162.065 350.729 162.47 350.554 162.936C350.379 163.402 350.346 163.91 350.457 164.395C350.569 164.881 350.821 165.322 351.181 165.666C351.542 166.009 351.996 166.239 352.487 166.326Z" fill="#263238"/>
<path d="M354.554 177.604C354.554 177.46 354.842 177.735 354.855 177.879C355.103 181.372 355.98 185.324 359.238 186.161C359.342 186.161 359.356 186.357 359.238 186.357C355.286 186.213 354.174 180.941 354.554 177.604Z" fill="#263238"/>
<path d="M357.236 173.653C362.797 172.645 364.38 183.832 359.238 184.748C354.096 185.664 352.591 174.49 357.236 173.653Z" fill="#263238"/>
<path d="M334.509 179.894C334.509 179.763 334.261 180.103 334.287 180.234C334.889 183.688 334.993 187.731 332.023 189.327C331.932 189.327 332.023 189.55 332.023 189.524C335.831 188.49 335.621 183.112 334.509 179.894Z" fill="#263238"/>
<path d="M330.898 176.767C325.271 177.146 326.423 188.373 331.63 188.032C336.838 187.692 335.621 176.466 330.898 176.767Z" fill="#263238"/>
<path d="M325.769 170.814C327.224 170.294 328.652 169.7 330.047 169.034C331.683 168.328 333.056 167.935 334.064 166.417C334.299 165.945 334.372 165.41 334.273 164.892C334.173 164.374 333.907 163.904 333.514 163.552C331.748 162.152 329.524 162.518 327.522 163.277C325.479 163.983 323.772 165.424 322.733 167.32C322.529 167.764 322.456 168.257 322.525 168.741C322.595 169.225 322.802 169.679 323.122 170.048C323.443 170.416 323.863 170.685 324.332 170.821C324.802 170.957 325.301 170.954 325.769 170.814Z" fill="#263238"/>
<path d="M361.698 205.918C360.991 206.847 360.389 208.077 359.081 208.365C357.789 208.526 356.478 208.41 355.234 208.025C355.221 208.016 355.207 208.01 355.192 208.007C355.176 208.004 355.161 208.004 355.146 208.007C355.13 208.01 355.116 208.016 355.103 208.025C355.09 208.033 355.079 208.044 355.071 208.057C355.062 208.07 355.056 208.085 355.053 208.1C355.05 208.115 355.05 208.131 355.053 208.146C355.056 208.161 355.062 208.175 355.071 208.188C355.079 208.201 355.09 208.212 355.103 208.221C355.69 208.842 356.435 209.292 357.257 209.523C358.08 209.753 358.95 209.755 359.774 209.529C360.453 209.245 361.032 208.767 361.44 208.155C361.847 207.543 362.064 206.824 362.064 206.088C362.077 205.826 361.802 205.787 361.698 205.918Z" fill="#263238"/>
<path d="M356.595 196.066C355.91 197.562 354.923 198.901 353.696 199.997C352.468 201.094 351.028 201.925 349.464 202.438C348.104 202.901 346.686 203.17 345.251 203.236C344.977 203.262 344.701 203.262 344.427 203.236C344.169 203.249 343.912 203.249 343.655 203.236C343.464 203.226 343.281 203.155 343.135 203.032C342.988 202.909 342.886 202.742 342.843 202.555C342.83 202.438 342.83 202.32 342.843 202.202V201.901C342.385 199.284 342.071 195.15 342.071 195.15C341.169 195.778 336.511 198.709 336.393 197.309C335.451 185.677 334.391 172.75 335.896 160.987C335.911 160.913 335.951 160.847 336.009 160.799C336.068 160.751 336.141 160.725 336.216 160.725C336.292 160.725 336.365 160.751 336.423 160.799C336.482 160.847 336.522 160.913 336.537 160.987C337.845 172.135 337.283 183.439 338.473 194.64C340.122 193.567 341.915 192.735 343.799 192.167C344.191 192.167 344.27 200.017 344.57 201.26C344.561 201.299 344.561 201.339 344.57 201.378C349.124 201.378 352.316 199.481 356.228 195.856C356.451 195.595 356.752 195.765 356.595 196.066Z" fill="#263238"/>
<path d="M395.664 177.683C386.662 179.711 380.827 170.173 375.802 156.421C372.858 148.374 372.845 131.561 372.845 131.561C372.845 131.561 351.021 145.587 337.662 146.189C324.303 146.791 311.494 136.939 310.709 126.563C310.042 117.601 323.479 104.045 343.079 100.565C356.752 98.1444 381.455 106.06 393.688 119.472C393.688 119.472 412.098 125.425 411.273 138.836C410.449 152.247 405.883 175.38 395.664 177.683Z" fill="#263238"/>
<path d="M394.879 176.727C383.221 180.875 374.455 163.643 372.898 154.288C371.275 144.54 373.709 134.138 374.128 124.365H374.049C371.537 136.494 369.103 151.737 374.677 163.316C378.184 170.617 385.472 182.484 395.115 177.368C395.442 177.185 395.245 176.596 394.879 176.727Z" fill="#263238"/>
<path d="M413.432 134.492C410.672 126.642 400.427 119.956 392.498 119.105C392.419 119.105 392.393 119.223 392.498 119.236C402.154 121.356 414.244 130.554 412.765 141.27C411.574 149.827 409.062 161.223 404.313 168.524C404.195 168.707 404.47 168.877 404.601 168.707C408.447 163.696 409.612 157.664 411.143 151.698C412.412 146.425 415.29 139.922 413.432 134.492Z" fill="#263238"/>
<path d="M395.599 120.413C382.672 106.282 356.857 91.7328 337.492 99.1908C337.492 99.1908 337.492 99.3085 337.492 99.2824C358.296 93.1982 379.885 108.703 394.945 121.159C395.416 121.525 395.965 120.806 395.599 120.413Z" fill="#263238"/>
<path d="M389.881 179.004C389.881 179.004 396.881 160.124 405.176 162.204C413.472 164.285 411.116 189.681 403.436 195.006C402.499 195.765 401.418 196.326 400.259 196.657C399.099 196.988 397.885 197.081 396.688 196.931C395.492 196.78 394.338 196.39 393.297 195.782C392.255 195.175 391.347 194.364 390.627 193.397L389.881 179.004Z" fill="#BB756C"/>
<path d="M404.365 169.426C404.509 169.426 404.574 169.557 404.47 169.649C399.144 173.574 397.444 179.972 396.75 186.279C397.941 183.662 400.047 181.765 403.554 183.099C403.737 183.165 403.659 183.453 403.475 183.453C402.339 183.395 401.213 183.689 400.25 184.296C399.287 184.902 398.536 185.791 398.098 186.841C397.389 188.605 396.867 190.438 396.541 192.311C396.397 192.926 395.363 192.886 395.402 192.219C395.397 192.171 395.397 192.123 395.402 192.075C393.27 184.539 396.423 172.357 404.365 169.426Z" fill="#263238"/>
<path d="M365.95 262.782L393.427 344.701C394.5 347.083 393.427 349.163 391.019 349.346L347.894 352.604C346.578 352.612 345.286 352.247 344.168 351.553C343.05 350.858 342.151 349.862 341.574 348.679L314.098 266.759C313.025 264.365 314.098 262.285 316.505 262.101L359.604 258.791C360.931 258.788 362.232 259.161 363.355 259.867C364.478 260.574 365.378 261.584 365.95 262.782Z" fill="#37474F"/>
<path d="M360.821 263.122L388.298 345.042C389.371 347.423 388.298 349.517 385.89 349.7L342.778 353.01C341.455 353.009 340.16 352.633 339.042 351.927C337.924 351.221 337.028 350.213 336.458 349.02L308.982 267.1C307.896 264.719 308.982 262.638 311.389 262.455L354.554 259.145C355.867 259.152 357.151 259.529 358.259 260.232C359.368 260.936 360.256 261.937 360.821 263.122Z" fill="#455A64"/>
<path d="M349.32 267.845C349.391 268.569 349.675 269.256 350.136 269.818C350.597 270.381 351.215 270.794 351.911 271.005C352.607 271.217 353.35 271.217 354.046 271.006C354.742 270.795 355.36 270.382 355.821 269.82C356.283 269.258 356.567 268.571 356.638 267.848C356.71 267.124 356.565 266.395 356.222 265.754C355.879 265.112 355.353 264.587 354.712 264.244C354.07 263.902 353.341 263.757 352.617 263.829C351.648 263.925 350.756 264.402 350.138 265.155C349.519 265.908 349.225 266.876 349.32 267.845Z" fill="#263238"/>
<path d="M531.635 444.193C512.872 446.928 489.19 432.549 427.825 388.795C419.32 382.698 445.933 311.298 455.302 317.277C467.143 324.827 511.459 356.726 514.403 359.474C539.302 382.698 544.392 442.231 531.635 444.193Z" fill="#BB756C"/>
<path d="M477.322 338.565C477.322 338.565 459.711 314.438 446.535 304.612C428.885 291.527 408.238 287.393 399.432 286.202C381.114 283.716 335.32 290.35 334.862 303.905C334.496 316.178 381.075 307.019 381.075 307.019C381.075 307.019 332.049 308.511 334.326 323.361C336.602 338.212 390.09 324.526 390.09 324.526C390.09 324.526 339.742 327.142 344.518 342.137C348.129 353.428 397.26 343.746 397.26 343.746C397.26 343.746 354.004 346.363 357.21 358.139C360.769 371.144 406.668 365.06 406.668 365.06C419.974 393.584 437.9 401.787 451.376 406.092C454.634 407.126 477.322 338.565 477.322 338.565Z" fill="#BB756C"/>
<path d="M398.058 305.423C392.288 305.423 386.453 305.318 380.709 305.789C374.965 306.26 369.221 306.954 363.543 307.961C349.608 310.447 341.3 314.189 341.823 314.006C354.593 309.884 375.135 307.843 380.892 307.359C386.649 306.875 392.341 306.116 398.085 305.632C398.229 305.619 398.189 305.423 398.058 305.423Z" fill="#263238"/>
<path d="M400.165 326.148C392.799 326.423 385.485 326.423 378.131 327.025C370.778 327.627 363.922 328.843 356.66 329.942C356.098 330.021 356.333 330.296 356.896 330.23C364.184 329.419 371.001 329.236 378.301 328.516C385.602 327.797 392.89 326.776 400.191 326.318C400.348 326.318 400.348 326.148 400.165 326.148Z" fill="#263238"/>
<path d="M405.176 343.615C393.898 343.458 382.606 345.382 371.576 347.541C371.027 347.645 371.367 347.972 371.93 347.894C383.077 346.376 391.804 345.107 405.176 343.969C405.373 343.982 405.412 343.615 405.176 343.615Z" fill="#263238"/>
<path d="M497.498 346.886C502.365 350.092 507.049 353.559 511.589 357.236C513.867 359.056 516.05 360.991 518.131 363.032C520.287 365.062 522.181 367.352 523.771 369.849C526.792 374.874 529.329 380.175 531.346 385.681C533.441 391.139 534.924 396.813 535.769 402.599C535.142 399.761 534.356 396.961 533.414 394.212C532.511 391.451 531.517 388.729 530.404 386.047C528.277 380.668 525.686 375.484 522.659 370.555C521.165 368.109 519.362 365.866 517.294 363.883C515.266 361.828 513.081 359.957 510.909 357.995C508.737 356.032 506.487 354.226 504.236 352.382C501.986 350.537 499.788 348.679 497.498 346.886Z" fill="#263238"/>
<path d="M311.73 90.4373C311.73 90.4373 306.352 133.484 297.507 143.179C286.896 154.798 279.189 153.097 274.911 159.09C270.619 153.084 262.926 154.798 252.302 143.166C243.47 133.484 238.105 90.4373 238.105 90.4373C261.395 79.1326 274.924 66.4541 274.924 66.4541C275.33 66.8597 288.793 79.3027 311.73 90.4373Z" fill="#FB923C"/>
<path opacity="0.2" d="M274.911 66.4672V159.09C270.619 153.084 262.926 154.798 252.302 143.166C243.47 133.484 238.105 90.4373 238.105 90.4373C261.395 79.1326 274.924 66.4541 274.924 66.4541L274.911 66.4672Z" fill="black"/>
<path opacity="0.1" d="M311.729 90.4374C311.729 90.4374 306.352 133.484 297.507 143.18C286.896 154.798 279.189 153.097 274.911 159.09V66.4673C275.329 66.8598 288.793 79.3028 311.729 90.4374Z" fill="black"/>
<path d="M306.012 93.9047C306.012 93.9047 301.472 130.279 294.001 138.456C285.038 148.295 278.522 146.843 274.911 151.907C271.286 146.843 264.784 148.295 255.808 138.456C248.337 130.279 243.81 93.9047 243.81 93.9047C263.436 84.3533 274.911 73.6505 274.911 73.6505C274.911 73.6505 286.333 84.3795 306.012 93.9047Z" fill="#FB923C"/>
<path opacity="0.1" d="M274.911 73.6636V151.907C271.3 146.843 264.784 148.282 255.821 138.456C248.35 130.266 243.823 93.8917 243.823 93.8917C263.449 84.3403 274.911 73.6375 274.911 73.6375V73.6636Z" fill="black"/>
<path d="M288.845 105.851H260.976V131.129H288.845V105.851Z" fill="white"/>
<path d="M286.059 113.662H283.219V102.37C283.219 100.167 282.344 98.0534 280.786 96.4953C279.228 94.9372 277.114 94.0618 274.911 94.0618C272.707 94.0618 270.594 94.9372 269.036 96.4953C267.478 98.0534 266.602 100.167 266.602 102.37V113.662H263.763V102.37C263.659 100.846 263.869 99.3157 264.38 97.8756C264.892 96.4355 265.694 95.1159 266.737 93.9989C267.78 92.8819 269.041 91.9913 270.443 91.3823C271.845 90.7734 273.356 90.4592 274.885 90.4592C276.413 90.4592 277.925 90.7734 279.327 91.3823C280.728 91.9913 281.99 92.8819 283.033 93.9989C284.076 95.1159 284.878 96.4355 285.389 97.8756C285.901 99.3157 286.111 100.846 286.006 102.37L286.059 113.662Z" fill="white"/>
<path d="M275.787 118.922L276.69 123.187H272.87L273.772 118.922C273.42 118.703 273.148 118.375 272.998 117.987C272.848 117.6 272.829 117.174 272.943 116.775C273.057 116.375 273.298 116.024 273.629 115.774C273.961 115.524 274.365 115.388 274.78 115.388C275.195 115.388 275.599 115.524 275.931 115.774C276.262 116.024 276.503 116.375 276.617 116.775C276.731 117.174 276.711 117.6 276.562 117.987C276.412 118.375 276.14 118.703 275.787 118.922Z" fill="#37474F"/>
<path d="M275.395 260.701H269.821V259.707H274.911V260.047H275.395V260.701ZM264.587 260.701H259.354V259.707H264.587V260.701ZM254.12 260.701H248.886V259.707H254.12V260.701ZM243.653 260.701H238.419V259.707H243.653V260.701ZM275.395 254.826H274.414V249.593H275.395V254.826ZM275.395 244.359H274.414V239.126H275.395V244.359ZM275.395 233.892H274.414V228.658H275.395V233.892ZM275.395 223.425H274.414V218.191H275.395V223.425ZM275.395 212.957H274.414V207.724H275.395V212.957ZM275.395 202.49H274.414V197.256H275.395V202.49ZM275.395 192.023H274.414V186.789H275.395V192.023ZM275.395 181.555H274.414V176.322H275.395V181.555ZM275.395 171.088H274.414V165.854H275.395V171.088Z" fill="#FB923C"/>
<path d="M277.122 164.782C277.122 164.344 276.992 163.917 276.749 163.553C276.507 163.189 276.161 162.906 275.757 162.739C275.353 162.571 274.908 162.528 274.48 162.613C274.051 162.698 273.657 162.909 273.347 163.218C273.038 163.527 272.828 163.921 272.742 164.35C272.657 164.779 272.701 165.224 272.868 165.628C273.035 166.032 273.319 166.377 273.682 166.62C274.046 166.863 274.474 166.993 274.911 166.993C275.497 166.993 276.06 166.76 276.474 166.345C276.889 165.93 277.122 165.368 277.122 164.782Z" fill="#FB923C"/>
<path d="M84.432 106.4H17.2974V20.215H67.1479L84.432 36.6486V106.4Z" fill="#EBEBEB"/>
<path d="M67.1479 20.215L84.4321 36.6486H67.1479V20.215Z" fill="#DBDBDB"/>
<path d="M23.8526 36.8842L61.1816 36.8842V34.673L23.8526 34.673V36.8842Z" fill="#DBDBDB"/>
<path d="M23.8526 42.4711L61.1816 42.4711V40.2598L23.8526 40.2598V42.4711Z" fill="#DBDBDB"/>
<path d="M23.8526 48.071L61.1816 48.071V45.8598L23.8526 45.8598V48.071Z" fill="#DBDBDB"/>
<path d="M23.8525 53.658L78.5442 53.658V51.4468L23.8525 51.4468V53.658Z" fill="#DBDBDB"/>
<path d="M23.8525 59.2449L78.5442 59.2449V57.0337L23.8525 57.0337V59.2449Z" fill="#DBDBDB"/>
<path d="M23.8525 64.8319H78.5442V62.6207L23.8525 62.6207V64.8319Z" fill="#DBDBDB"/>
<path d="M23.8525 70.4191H78.5442V68.2078H23.8525V70.4191Z" fill="#DBDBDB"/>
<path d="M23.8525 75.9926H78.5442V73.7813H23.8525V75.9926Z" fill="#DBDBDB"/>
<path d="M23.8525 81.5796H78.5442V79.3684H23.8525V81.5796Z" fill="#DBDBDB"/>
<path d="M23.8525 87.1667H78.5442V84.9555H23.8525V87.1667Z" fill="#DBDBDB"/>
<path d="M23.8525 92.7534H78.5442V90.5422H23.8525V92.7534Z" fill="#DBDBDB"/>
<path d="M23.8525 98.3403H78.5442V96.1291H23.8525V98.3403Z" fill="#DBDBDB"/>
<path d="M88.9678 114.245C94.9706 111.743 97.8083 104.848 95.3058 98.8448C92.8034 92.842 85.9085 90.0044 79.9057 92.5068C73.9029 95.0092 71.0652 101.904 73.5677 107.907C76.0701 113.91 82.965 116.747 88.9678 114.245Z" fill="#263238"/>
<path d="M90.2675 100.408H78.5964V111.006H90.2675V100.408Z" fill="white"/>
<path d="M89.103 103.666H87.9124V98.9425C87.9124 98.0195 87.5457 97.1342 86.893 96.4815C86.2403 95.8288 85.355 95.4621 84.432 95.4621C83.5089 95.4621 82.6237 95.8288 81.971 96.4815C81.3183 97.1342 80.9516 98.0195 80.9516 98.9425V103.666H79.7871V98.9425C79.7871 97.7037 80.2792 96.5156 81.1552 95.6396C82.0312 94.7636 83.2193 94.2715 84.4581 94.2715C85.697 94.2715 86.8851 94.7636 87.7611 95.6396C88.637 96.5156 89.1292 97.7037 89.1292 98.9425L89.103 103.666Z" fill="white"/>
<path d="M84.9294 105.824L85.4135 108.153H83.3462L83.8303 105.824C83.6403 105.705 83.4943 105.527 83.4143 105.318C83.3342 105.108 83.3245 104.879 83.3865 104.663C83.4486 104.448 83.579 104.258 83.7582 104.123C83.9374 103.988 84.1556 103.915 84.3798 103.915C84.6041 103.915 84.8223 103.988 85.0015 104.123C85.1807 104.258 85.3111 104.448 85.3731 104.663C85.4352 104.879 85.4255 105.108 85.3454 105.318C85.2653 105.527 85.1193 105.705 84.9294 105.824Z" fill="#263238"/>
<path d="M130.436 151.462H129.507V146.228H130.488L130.436 151.462ZM130.436 140.995H129.507V135.761H130.488L130.436 140.995ZM130.436 130.527H129.507V125.294H130.488L130.436 130.527ZM130.436 120.06H129.507V114.826H130.488L130.436 120.06ZM130.436 109.593H129.507V104.359H130.488L130.436 109.593ZM130.436 99.1254H129.507V93.8917H130.488L130.436 99.1254ZM130.436 88.6581H129.507V83.4244H130.488L130.436 88.6581ZM130.436 78.1908H129.507V72.9571H130.488L130.436 78.1908ZM125.581 72.6039H120.348V71.6226H125.581V72.6039ZM115.114 72.6039H109.881V71.6226H115.114V72.6039ZM104.647 72.6039H99.4132V71.6226H104.647V72.6039ZM94.1796 72.6039H91.916V71.6226H94.1796V72.6039Z" fill="#FB923C"/>
<path d="M91.9685 69.9873C91.5258 69.9849 91.0924 70.1145 90.7239 70.3597C90.3553 70.605 90.0683 70.9546 89.8996 71.3638C89.7309 71.7731 89.6881 72.2234 89.7768 72.6571C89.8654 73.0908 90.0815 73.4882 90.3973 73.7985C90.7131 74.1087 91.1143 74.3176 91.5496 74.3985C91.9848 74.4794 92.4343 74.4285 92.8405 74.2525C93.2466 74.0765 93.591 73.7833 93.8296 73.4104C94.0682 73.0375 94.1901 72.6019 94.1797 72.1593C94.1661 71.5808 93.9275 71.0303 93.5147 70.6248C93.1018 70.2192 92.5472 69.9906 91.9685 69.9873Z" fill="#FB923C"/>
<path d="M168.053 442.506H164.978V441.577H168.053V442.506ZM159.744 442.506H154.511V441.577H159.744V442.506ZM149.277 442.506H144.043V441.577H149.277V442.506ZM138.81 442.506H133.576V441.577H138.81V442.506ZM130.436 440.412H129.507V435.179H130.488L130.436 440.412ZM130.436 429.945H129.507V424.711H130.488L130.436 429.945ZM130.436 419.478H129.507V414.244H130.488L130.436 419.478ZM130.436 409.01H129.507V403.777H130.488L130.436 409.01ZM130.436 398.543H129.507V393.309H130.488L130.436 398.543ZM130.436 388.076H129.507V382.842H130.488L130.436 388.076ZM130.436 377.608H129.507V372.375H130.488L130.436 377.608Z" fill="#FB923C"/>
<path d="M167.935 444.232C169.156 444.232 170.146 443.242 170.146 442.021C170.146 440.8 169.156 439.81 167.935 439.81C166.714 439.81 165.724 440.8 165.724 442.021C165.724 443.242 166.714 444.232 167.935 444.232Z" fill="#FB923C"/>
<path d="M259.275 427.668H175.667V478.12H259.275V427.668Z" fill="#455A64"/>
<path d="M205.605 434.013H182.236V463.898H205.605V434.013Z" fill="white"/>
<path d="M193.92 451.507C196.977 451.507 199.455 449.029 199.455 445.972C199.455 442.916 196.977 440.438 193.92 440.438C190.863 440.438 188.385 442.916 188.385 445.972C188.385 449.029 190.863 451.507 193.92 451.507Z" fill="#455A64"/>
<path d="M205.604 463.898H182.236C182.236 463.898 182.877 458.324 184.016 456.662C185.154 455 188.163 453.129 193.92 453.129C199.677 453.129 202.687 455 203.825 456.662C204.963 458.324 205.604 463.898 205.604 463.898Z" fill="#455A64"/>
<path d="M250.116 434.013H211.649V435.466H250.116V434.013Z" fill="white"/>
<path d="M250.116 448.223H211.649V449.676H250.116V448.223Z" fill="white"/>
<path d="M250.116 452.41H211.649V453.863H250.116V452.41Z" fill="white"/>
<path d="M250.116 456.584H211.649V458.036H250.116V456.584Z" fill="white"/>
<path d="M250.116 460.771H211.649V462.224H250.116V460.771Z" fill="white"/>
<path d="M250.116 464.945H211.649V466.397H250.116V464.945Z" fill="white"/>
<path d="M242.802 438.201H211.649V439.653H242.802V438.201Z" fill="white"/>
<path d="M263.806 489.002C269.809 486.499 272.646 479.604 270.144 473.602C267.642 467.599 260.747 464.761 254.744 467.264C248.741 469.766 245.903 476.661 248.406 482.664C250.908 488.666 257.803 491.504 263.806 489.002Z" fill="#263238"/>
<path d="M265.111 475.15H253.44V485.748H265.111V475.15Z" fill="white"/>
<path d="M263.947 478.408H262.756V473.685C262.756 472.762 262.389 471.876 261.737 471.224C261.084 470.571 260.199 470.204 259.276 470.204C258.352 470.204 257.467 470.571 256.815 471.224C256.162 471.876 255.795 472.762 255.795 473.685V478.408H254.604V473.685C254.604 472.446 255.097 471.258 255.973 470.382C256.849 469.506 258.037 469.014 259.276 469.014C260.514 469.014 261.702 469.506 262.578 470.382C263.454 471.258 263.947 472.446 263.947 473.685V478.408Z" fill="white"/>
<path d="M259.773 480.567L260.257 482.896H258.176L258.673 480.567C258.521 480.472 258.397 480.338 258.312 480.18C258.227 480.021 258.185 479.843 258.19 479.663C258.195 479.484 258.246 479.308 258.34 479.155C258.433 479.001 258.565 478.875 258.722 478.788C258.88 478.7 259.057 478.656 259.237 478.658C259.416 478.661 259.592 478.71 259.747 478.801C259.902 478.892 260.031 479.022 260.12 479.178C260.209 479.334 260.256 479.511 260.257 479.691C260.257 479.866 260.213 480.038 260.128 480.191C260.043 480.345 259.921 480.474 259.773 480.567Z" fill="#263238"/>
<path d="M549.481 524.006L480.802 524.32L412.111 524.438L274.74 524.661L137.37 524.438L68.6917 524.32L0 524.006L68.6917 523.679L137.37 523.575L274.74 523.352L412.111 523.575L480.802 523.692L549.481 524.006Z" fill="#263238"/>
</svg>
