<svg width="306" height="307" viewBox="0 0 306 307" fill="none" xmlns="http://www.w3.org/2000/svg">
<path d="M88.1469 5.95715H8.89081V137.146H88.1469V5.95715Z" fill="#E0E0E0"/>
<path d="M85.5108 5.95715H6.25473V137.146H85.5108V5.95715Z" fill="#EBEBEB"/>
<path d="M82.1343 8.61401H9.63113V134.483H82.1343V8.61401Z" fill="white"/>
<path d="M68.0198 24.9703H23.4344V118.126H68.0198V24.9703Z" fill="#EBEBEB"/>
<path d="M23.4343 85.1441C23.3306 76.4401 31.1558 67.9437 39.7699 66.726C43.8797 66.1517 48.2455 66.9682 52.0855 65.3906C58.9352 62.5816 61.1216 53.4763 67.999 50.771L68.3173 118.106H23.4343V85.1441Z" fill="#E0E0E0"/>
<path d="M295.41 0V72.1919H191.723L187.987 0.50508L295.41 0Z" fill="#E0E0E0"/>
<path d="M187.994 0.505104V72.0397H291.68V0.505104H187.994Z" fill="white"/>
<path d="M292.165 72.5309H187.495V0.0415039H292.165V72.5309ZM188.485 71.5484H291.182V0.975556H188.485V71.5484Z" fill="#E0E0E0"/>
<path d="M280.444 9.39587H199.216V63.1558H280.444V9.39587Z" fill="white"/>
<path d="M280.444 9.39587H280.043H278.887H274.431L257.688 9.45814L199.216 9.57576L199.451 9.34052C199.451 25.766 199.451 43.935 199.451 63.0935L199.195 62.8375L280.423 62.8859L280.223 63.0935C280.264 46.7303 280.299 33.3422 280.326 23.974C280.326 19.3107 280.368 15.6713 280.382 13.1598C280.382 11.9282 280.382 10.9803 280.382 10.3161C280.382 9.67262 280.382 9.3336 280.382 9.3336C280.382 9.3336 280.382 9.64495 280.382 10.2746C280.382 10.9042 280.382 11.859 280.382 13.0421C280.382 15.5329 280.382 19.1654 280.43 23.8149C280.43 33.1831 280.492 46.6473 280.541 63.0589V63.2596H280.333L199.105 63.3149H198.849V63.0589C198.849 43.9281 198.849 25.7314 198.849 9.30592V9.07068H199.078L257.708 9.1883L274.39 9.25057H278.804H279.932C280.106 9.2864 280.277 9.33496 280.444 9.39587Z" fill="#E0E0E0"/>
<path d="M187.987 0.304443C188.628 0.612615 189.228 1.00086 189.772 1.4599C190.83 2.2279 192.276 3.31417 193.84 4.55957C195.404 5.80497 196.767 6.98811 197.735 7.87373C198.293 8.3149 198.79 8.82656 199.216 9.39589C199.126 9.50659 196.628 7.44475 193.515 4.96087C190.401 2.47698 187.897 0.422065 187.987 0.304443Z" fill="#E0E0E0"/>
<path d="M291.673 0.5051C291.763 0.615802 289.321 2.69839 286.221 5.1546C283.122 7.61082 280.534 9.5066 280.444 9.39589C280.354 9.28519 282.796 7.2026 285.903 4.74639C289.01 2.29018 291.583 0.394397 291.673 0.5051Z" fill="#E0E0E0"/>
<path d="M291.59 72.0535L280.029 62.6783L291.59 72.0535Z" fill="white"/>
<path d="M280.029 62.6784C280.119 62.5746 282.796 64.5811 285.972 67.1688C289.148 69.7564 291.68 71.9428 291.59 72.0535C291.5 72.1642 288.823 70.1508 285.654 67.5632C282.485 64.9755 279.946 62.7891 280.029 62.6784Z" fill="#E0E0E0"/>
<path d="M187.987 72.0397C187.904 71.929 190.318 69.8741 193.39 67.4456C196.462 65.017 199.015 63.142 199.105 63.2527C199.195 63.3634 196.774 65.4183 193.709 67.8469C190.644 70.2754 188.077 72.1504 187.987 72.0397Z" fill="#E0E0E0"/>
<path d="M215.711 26.1397V44.1427H266.821V26.1397L215.711 26.1397Z" fill="#E0E0E0"/>
<path d="M138.15 239.837C138.15 236.703 140.551 234.433 143.782 234.433C144.56 234.405 145.335 234.548 146.052 234.851C146.77 235.155 147.412 235.612 147.933 236.191L146.681 237.36C146.328 236.965 145.895 236.651 145.41 236.438C144.926 236.226 144.401 236.12 143.872 236.128C143.373 236.107 142.874 236.186 142.407 236.363C141.939 236.539 141.512 236.808 141.151 237.153C140.791 237.499 140.504 237.914 140.307 238.373C140.111 238.833 140.01 239.327 140.01 239.827C140.01 240.326 140.111 240.821 140.307 241.28C140.504 241.739 140.791 242.154 141.151 242.5C141.512 242.846 141.939 243.114 142.407 243.291C142.874 243.467 143.373 243.546 143.872 243.525C144.403 243.534 144.93 243.426 145.415 243.21C145.9 242.994 146.332 242.674 146.681 242.272L147.947 243.476C147.425 244.054 146.783 244.511 146.066 244.814C145.349 245.118 144.574 245.261 143.796 245.234C140.53 245.248 138.15 242.978 138.15 239.837Z" fill="#EBEBEB"/>
<path d="M127.474 248.077H114.439V235.042H127.474V248.077ZM115.131 247.385H126.782V235.734H115.131V247.385Z" fill="#EBEBEB"/>
<path d="M111.955 250.79C111.567 250.499 114.681 245.822 119.476 240.861C124.27 235.9 128.823 232.607 129.162 232.98C129.501 233.354 125.516 237.215 120.804 242.113C116.092 247.012 112.356 251.108 111.955 250.79Z" fill="#E0E0E0"/>
<path d="M129.342 250.506C128.92 250.81 125.364 246.486 120.666 241.47C115.968 236.454 111.899 232.607 112.225 232.205C112.55 231.804 117.199 235.111 121.98 240.238C126.761 245.365 129.736 250.257 129.342 250.506Z" fill="#E0E0E0"/>
<path d="M40.2058 197.32L33.8058 196.864L32.3321 199.742L29.8759 199.569L36.5526 187.163L38.8912 187.329L43.7344 200.551L41.2436 200.378L40.2058 197.32ZM39.5554 195.397L37.542 189.62L34.7744 195.051L39.5554 195.397Z" fill="#EBEBEB"/>
<path d="M19.3038 200.268L3.57019 199.154L4.69105 183.393L20.4177 184.513L19.3038 200.268ZM4.31051 198.51L18.6603 199.534L19.6774 185.178L5.32759 184.161L4.31051 198.51Z" fill="#EBEBEB"/>
<path d="M0.228347 202.309C-0.131436 201.997 4.12369 196.635 10.3853 191.017C16.6469 185.399 22.4173 181.711 22.694 182.099C22.9708 182.486 17.7609 186.79 11.6238 192.352C5.48671 197.915 0.608887 202.655 0.228347 202.309Z" fill="#E0E0E0"/>
<path d="M21.4348 203.499C20.992 203.776 17.1036 198.137 11.7968 191.612C6.48997 185.088 1.80587 180.099 2.15182 179.719C2.49776 179.338 7.81148 183.828 13.2221 190.478C18.6326 197.127 21.843 203.257 21.4348 203.499Z" fill="#E0E0E0"/>
<path d="M305.65 128.879C306.252 130.996 304.958 132.705 301.761 133.604L295.617 135.341L292.158 122.984L297.949 121.344C300.91 120.507 302.854 121.344 303.408 123.267C303.585 123.819 303.602 124.409 303.458 124.97C303.313 125.531 303.013 126.039 302.591 126.436C303.302 126.44 303.99 126.683 304.545 127.126C305.1 127.569 305.489 128.187 305.65 128.879ZM294.925 124.132L295.894 127.543L299.139 126.623C300.73 126.173 301.471 125.35 301.152 124.222C300.834 123.094 299.769 122.762 298.177 123.212L294.925 124.132ZM303.276 129.301C302.924 128.069 301.83 127.785 300.101 128.277L296.399 129.328L297.402 132.891L301.111 131.84C302.841 131.349 303.622 130.539 303.276 129.301Z" fill="#EBEBEB"/>
<path d="M268.986 144.391L264.69 129.218L279.863 124.921L284.159 140.094L268.986 144.391ZM265.527 129.695L269.443 143.533L283.281 139.61L279.358 125.772L265.527 129.695Z" fill="#EBEBEB"/>
<path d="M266.918 148.501C266.468 148.321 268.647 141.838 272.626 134.421C276.604 127.004 280.783 121.579 281.17 121.856C281.558 122.133 278.126 127.938 274.252 135.272C270.377 142.606 267.388 148.694 266.918 148.501Z" fill="#E0E0E0"/>
<path d="M287.266 142.405C286.941 142.813 281.371 138.835 274.162 134.504C266.952 130.172 260.85 127.066 261.057 126.588C261.265 126.111 267.782 128.532 275.089 132.961C282.395 137.389 287.57 142.038 287.266 142.405Z" fill="#E0E0E0"/>
<path d="M303.989 278.873C303.989 278.97 236.08 279.053 152.34 279.053C68.601 279.053 0.671143 278.936 0.671143 278.873C0.671143 278.811 68.5664 278.693 152.34 278.693C236.115 278.693 303.989 278.735 303.989 278.873Z" fill="black"/>
<path d="M214.839 34.1034H37.1545V214.355H214.839V34.1034Z" fill="white"/>
<path d="M214.839 214.355C214.839 214.355 214.839 214.272 214.839 214.133C214.839 213.995 214.839 213.773 214.839 213.497C214.839 212.936 214.839 212.113 214.839 211.006C214.839 208.806 214.839 205.561 214.804 201.319C214.804 192.851 214.756 180.438 214.721 164.649C214.687 133.12 214.631 88.0916 214.562 34.1034L214.874 34.4147L37.2099 34.4632L37.5697 34.1034C37.5697 100.158 37.5697 162.034 37.5212 214.348L37.2099 214.043L165.943 214.196L202.067 214.279L211.601 214.313H214.057H214.68H214.894H214.092H211.67L202.191 214.348L166.144 214.431L37.2099 214.583H36.8985V214.272C36.8985 161.958 36.8985 100.11 36.8501 34.0273V33.6675H37.2306L214.894 33.7159H215.213V34.0273C215.143 88.0985 215.088 133.189 215.053 164.795C215.012 180.556 214.984 192.941 214.97 201.396C214.97 205.602 214.97 208.833 214.929 211.02C214.929 212.099 214.929 212.922 214.929 213.476V214.092C214.909 214.183 214.879 214.271 214.839 214.355Z" fill="#263238"/>
<path d="M51.103 63.5018V68.2828H50.2105V64.2491H49.2003V63.5018H51.103Z" fill="black"/>
<path d="M52.0233 67.7638C52.0233 67.6902 52.0377 67.6173 52.0659 67.5493C52.0941 67.4813 52.1354 67.4196 52.1874 67.3675C52.2394 67.3155 52.3012 67.2742 52.3692 67.246C52.4372 67.2179 52.5101 67.2034 52.5837 67.2034C52.6573 67.2034 52.7302 67.2179 52.7982 67.246C52.8661 67.2742 52.9279 67.3155 52.98 67.3675C53.032 67.4196 53.0733 67.4813 53.1015 67.5493C53.1296 67.6173 53.1441 67.6902 53.1441 67.7638C53.1441 67.8374 53.1296 67.9103 53.1015 67.9783C53.0733 68.0463 53.032 68.108 52.98 68.1601C52.9279 68.2121 52.8661 68.2534 52.7982 68.2816C52.7302 68.3097 52.6573 68.3242 52.5837 68.3242C52.5101 68.3242 52.4372 68.3097 52.3692 68.2816C52.3012 68.2534 52.2394 68.2121 52.1874 68.1601C52.1354 68.108 52.0941 68.0463 52.0659 67.9783C52.0377 67.9103 52.0233 67.8374 52.0233 67.7638Z" fill="black"/>
<path d="M110.682 44.1773C110.658 43.6639 110.789 43.1552 111.057 42.7167C111.325 42.2783 111.719 41.9302 112.186 41.7172C112.654 41.5042 113.175 41.4362 113.682 41.5218C114.188 41.6074 114.658 41.8428 115.03 42.1976C115.402 42.5525 115.659 43.0105 115.768 43.5127C115.877 44.0149 115.834 44.5383 115.643 45.0155C115.452 45.4927 115.122 45.9018 114.697 46.1902C114.272 46.4786 113.77 46.633 113.256 46.6335C112.923 46.6504 112.59 46.5994 112.278 46.4835C111.966 46.3675 111.681 46.1892 111.44 45.9593C111.199 45.7294 111.008 45.4528 110.877 45.1464C110.747 44.84 110.68 44.5103 110.682 44.1773ZM114.937 44.1773C114.937 43.8448 114.838 43.5197 114.654 43.2432C114.469 42.9667 114.206 42.7512 113.899 42.624C113.592 42.4967 113.254 42.4634 112.928 42.5283C112.601 42.5932 112.302 42.7533 112.067 42.9884C111.832 43.2236 111.671 43.5232 111.607 43.8493C111.542 44.1754 111.575 44.5135 111.702 44.8207C111.83 45.1279 112.045 45.3905 112.321 45.5752C112.598 45.76 112.923 45.8586 113.256 45.8586C113.478 45.8643 113.698 45.8247 113.905 45.7422C114.111 45.6596 114.298 45.5359 114.455 45.3785C114.612 45.2211 114.735 45.0334 114.816 44.8269C114.898 44.6203 114.937 44.3993 114.93 44.1773H114.937Z" fill="black"/>
<path d="M121.019 41.7903V46.5712H120.292L117.656 43.3332V46.5712H116.77V41.7903H117.504L120.14 45.0145V41.7903H121.019Z" fill="black"/>
<path d="M122.305 41.7903H123.191V45.8171H125.696V46.5712H122.305V41.7903Z" fill="black"/>
<path d="M126.395 41.7903H127.28V46.5712H126.395V41.7903Z" fill="black"/>
<path d="M132.822 41.7903V46.5712H132.089L129.46 43.3332V46.5712H128.581V41.7903H129.314L131.944 45.0145V41.7903H132.822Z" fill="black"/>
<path d="M137.693 45.824V46.5712H134.102V41.7903H137.562V42.5306H134.995V43.776H137.306V44.5025H134.995V45.824H137.693Z" fill="black"/>
<path d="M141.533 42.5375H139.949V41.7903H143.989V42.5375H142.405V46.5712H141.512L141.533 42.5375Z" fill="black"/>
<path d="M148.265 45.824V46.5712H144.681V41.7903H148.141V42.5306H145.539V43.776H147.843V44.5025H145.539V45.824H148.265Z" fill="black"/>
<path d="M148.833 46.0662L149.144 45.3743C149.6 45.7134 150.153 45.8977 150.721 45.9001C151.469 45.9001 151.78 45.6303 151.78 45.2774C151.78 44.2465 148.936 44.9245 148.936 43.1464C148.936 42.3715 149.552 41.7211 150.867 41.7211C151.426 41.7108 151.977 41.857 152.458 42.1431L152.174 42.835C151.778 42.5941 151.324 42.4627 150.86 42.4545C150.119 42.4545 149.822 42.7451 149.822 43.1049C149.822 44.122 152.652 43.4577 152.652 45.2151C152.652 45.9831 152.029 46.5989 150.721 46.5989C150.051 46.6296 149.388 46.4427 148.833 46.0662Z" fill="black"/>
<path d="M154.451 42.5375H152.866V41.7903H156.921V42.5375H155.336V46.5712H154.451V42.5375Z" fill="black"/>
<path d="M73.2435 84.5076H70.8496L70.3791 85.6146H69.4658L71.6176 80.8336H72.4894L74.6481 85.6146H73.7209L73.2435 84.5076ZM72.946 83.8157L72.0466 81.74L71.154 83.8157H72.946Z" fill="black"/>
<path d="M49.145 46.5643C50.2187 46.5643 51.0892 45.6939 51.0892 44.6201C51.0892 43.5464 50.2187 42.6759 49.145 42.6759C48.0712 42.6759 47.2008 43.5464 47.2008 44.6201C47.2008 45.6939 48.0712 46.5643 49.145 46.5643Z" fill="black"/>
<path d="M55.033 46.5643C56.1067 46.5643 56.9772 45.6939 56.9772 44.6201C56.9772 43.5464 56.1067 42.6759 55.033 42.6759C53.9592 42.6759 53.0888 43.5464 53.0888 44.6201C53.0888 45.6939 53.9592 46.5643 55.033 46.5643Z" fill="black"/>
<path d="M60.921 46.5643C61.9947 46.5643 62.8652 45.6939 62.8652 44.6201C62.8652 43.5464 61.9947 42.6759 60.921 42.6759C59.8472 42.6759 58.9767 43.5464 58.9767 44.6201C58.9767 45.6939 59.8472 46.5643 60.921 46.5643Z" fill="black"/>
<path d="M214.839 54.2374C214.839 54.3343 175.263 54.4173 126.45 54.4173C77.637 54.4173 38.054 54.3343 38.054 54.2374C38.054 54.1405 77.6232 54.0575 126.45 54.0575C175.277 54.0575 214.839 54.1405 214.839 54.2374Z" fill="black"/>
<path d="M195.411 67.6047C195.411 67.7016 164.601 67.7846 126.602 67.7846C88.6035 67.7846 57.7798 67.7016 57.7798 67.6047C57.7798 67.5078 88.5897 67.4248 126.602 67.4248C164.615 67.4248 195.411 67.5009 195.411 67.6047Z" fill="black"/>
<path d="M110.889 72.2819C110.889 72.3788 99.1272 72.4618 84.5975 72.4618C70.0678 72.4618 58.2641 72.3788 58.2641 72.2819C58.2641 72.1851 70.0262 72.1021 84.5975 72.1021C99.1687 72.1021 110.889 72.1782 110.889 72.2819Z" fill="black"/>
<path d="M65.8057 86.3688H59.5026V80.0657H65.8057V86.3688ZM60.1945 85.6769H65.1138V80.7576H60.1945V85.6769Z" fill="black"/>
<path d="M74.3575 96.2835C74.3575 97.1 73.714 97.5774 72.4824 97.5774H70.1093V92.7964H72.3441C73.4926 92.7964 74.1084 93.2807 74.1084 94.0418C74.1156 94.2574 74.0616 94.4705 73.9526 94.6567C73.8436 94.8428 73.6841 94.9942 73.4926 95.0935C73.7499 95.1651 73.9755 95.3217 74.1325 95.5377C74.2895 95.7538 74.3688 96.0167 74.3575 96.2835ZM70.9949 93.516V94.8305H72.2541C72.863 94.8305 73.2159 94.6161 73.2159 94.1802C73.2159 93.7443 72.863 93.4883 72.2541 93.4883L70.9949 93.516ZM73.458 96.2143C73.458 95.7369 73.0982 95.5224 72.4271 95.5224H70.9949V96.9062H72.4271C73.0982 96.9062 73.458 96.671 73.458 96.2143Z" fill="black"/>
<path d="M65.8057 98.3384H59.5026V92.063H65.8057V98.3384ZM60.1945 97.6465H65.1138V92.7549H60.1945V97.6465Z" fill="black"/>
<path d="M69.7633 107.153C69.7881 106.648 69.9606 106.161 70.2593 105.752C70.5581 105.344 70.9701 105.032 71.4443 104.855C71.9184 104.678 72.434 104.645 72.9272 104.758C73.4204 104.871 73.8696 105.127 74.2191 105.493L73.6448 106.032C73.4839 105.853 73.2863 105.71 73.0655 105.613C72.8448 105.517 72.6058 105.468 72.3648 105.472C71.9189 105.472 71.4913 105.649 71.176 105.964C70.8607 106.28 70.6836 106.707 70.6836 107.153C70.6836 107.599 70.8607 108.027 71.176 108.342C71.4913 108.657 71.9189 108.834 72.3648 108.834C72.6065 108.838 72.846 108.789 73.067 108.691C73.2879 108.593 73.4851 108.448 73.6448 108.267L74.2191 108.814C73.8696 109.18 73.4204 109.435 72.9272 109.548C72.434 109.662 71.9184 109.628 71.4443 109.451C70.9701 109.274 70.5581 108.962 70.2593 108.554C69.9606 108.146 69.7881 107.659 69.7633 107.153Z" fill="black"/>
<path d="M65.8057 110.301H59.5026V103.998H65.8057V110.301ZM60.1945 109.609H65.1138V104.69H60.1945V109.609Z" fill="black"/>
<path d="M70.1093 116.729H72.1849C73.7348 116.729 74.7934 117.684 74.7934 119.116C74.7934 120.548 73.7348 121.51 72.1849 121.51H70.1093V116.729ZM72.1849 120.756C72.4088 120.77 72.6332 120.739 72.8444 120.663C73.0555 120.587 73.249 120.469 73.4126 120.316C73.5763 120.163 73.7068 119.977 73.796 119.771C73.8852 119.566 73.9312 119.344 73.9312 119.119C73.9312 118.895 73.8852 118.673 73.796 118.467C73.7068 118.262 73.5763 118.076 73.4126 117.923C73.249 117.769 73.0555 117.651 72.8444 117.576C72.6332 117.5 72.4088 117.468 72.1849 117.483H70.9949V120.756H72.1849Z" fill="black"/>
<path d="M65.8057 122.271H59.5026V115.968H65.8057V122.271ZM60.1945 121.579H65.1138V116.66H60.1945V121.579Z" fill="black"/>
<path d="M126.595 83.2207C126.595 83.3175 116.217 83.4005 103.375 83.4005C90.5339 83.4005 80.1486 83.3175 80.1486 83.2207C80.1486 83.1238 90.527 83.0408 103.375 83.0408C116.224 83.0408 126.595 83.1169 126.595 83.2207Z" fill="black"/>
<path d="M190.526 95.1834C190.526 95.2872 165.812 95.3633 135.341 95.3633C104.87 95.3633 80.1486 95.2872 80.1486 95.1834C80.1486 95.0796 104.856 95.0035 135.341 95.0035C165.825 95.0035 190.526 95.0866 190.526 95.1834Z" fill="black"/>
<path d="M95.3356 119.116C95.3356 119.213 91.9384 119.296 87.7248 119.296C83.5112 119.296 80.114 119.213 80.114 119.116C80.114 119.019 83.5112 118.936 87.7248 118.936C91.9384 118.936 95.3356 119.047 95.3356 119.116Z" fill="black"/>
<path d="M135.334 107.153C135.334 107.25 122.984 107.333 107.741 107.333C92.4989 107.333 80.1486 107.25 80.1486 107.153C80.1486 107.056 92.4989 106.973 107.741 106.973C122.984 106.973 135.334 107.049 135.334 107.153Z" fill="black"/>
<path d="M51.276 136.15V136.898H47.7474V136.302L49.6501 134.504C50.1136 134.061 50.1967 133.777 50.1967 133.514C50.1967 133.071 49.8922 132.822 49.3041 132.822C49.0923 132.811 48.8809 132.851 48.6873 132.937C48.4936 133.024 48.3233 133.155 48.1902 133.32L47.5675 132.843C47.7868 132.578 48.0649 132.369 48.3796 132.231C48.6944 132.092 49.037 132.03 49.3802 132.047C50.4181 132.047 51.0892 132.573 51.0892 133.431C51.0817 133.726 51.0068 134.015 50.87 134.277C50.7333 134.538 50.5384 134.765 50.3004 134.939L49.0204 136.157L51.276 136.15Z" fill="black"/>
<path d="M51.795 136.379C51.795 136.23 51.854 136.087 51.9591 135.982C52.0642 135.877 52.2067 135.818 52.3554 135.818C52.504 135.818 52.6466 135.877 52.7517 135.982C52.8568 136.087 52.9158 136.23 52.9158 136.379C52.9158 136.527 52.8568 136.67 52.7517 136.775C52.6466 136.88 52.504 136.939 52.3554 136.939C52.2067 136.939 52.0642 136.88 51.9591 136.775C51.854 136.67 51.795 136.527 51.795 136.379Z" fill="black"/>
<path d="M71.5692 153.122H69.1821L68.7117 154.229H67.7914L69.9432 149.448H70.8219L72.9806 154.229H72.0327L71.5692 153.122ZM71.2786 152.43L70.3791 150.355L69.4797 152.43H71.2786Z" fill="black"/>
<path d="M193.736 136.219C193.736 136.316 162.926 136.399 124.928 136.399C86.9291 136.399 56.1193 136.344 56.1193 136.219C56.1193 136.095 86.9222 136.04 124.935 136.04C162.947 136.04 193.736 136.123 193.736 136.219Z" fill="black"/>
<path d="M109.222 140.897C109.222 140.994 97.4597 141.077 82.8885 141.077C68.3173 141.077 56.5551 140.994 56.5551 140.897C56.5551 140.8 68.3173 140.717 82.8885 140.717C97.4597 140.717 109.222 140.793 109.222 140.897Z" fill="black"/>
<path d="M64.1037 155.025H57.8005V148.722H64.1037V155.025ZM58.4924 154.333H63.4118V149.414H58.4924V154.333Z" fill="black"/>
<path d="M72.6831 164.898C72.6831 165.715 72.0397 166.192 70.815 166.192H68.4349V161.411H70.649C71.7975 161.411 72.4133 161.896 72.4133 162.657C72.4188 162.872 72.3641 163.084 72.2553 163.27C72.1465 163.456 71.9879 163.608 71.7975 163.708C72.0593 163.775 72.2903 163.929 72.4516 164.146C72.6128 164.363 72.6946 164.628 72.6831 164.898ZM69.3274 162.131V163.452H70.5798C71.1955 163.452 71.5415 163.231 71.5415 162.795C71.5415 162.359 71.1955 162.103 70.5798 162.103L69.3274 162.131ZM71.7906 164.829C71.7906 164.352 71.4308 164.137 70.7597 164.137H69.3274V165.521H70.7597C71.4308 165.5 71.7906 165.286 71.7906 164.808V164.829Z" fill="black"/>
<path d="M64.1037 166.953H57.8005V160.65H64.1037V166.953ZM58.4924 166.261H63.4118V161.342H58.4924V166.261Z" fill="black"/>
<path d="M68.0959 175.782C68.0926 175.449 68.1574 175.12 68.2862 174.814C68.4151 174.507 68.6053 174.231 68.8451 174C69.0849 173.77 69.3693 173.592 69.6807 173.476C69.9921 173.36 70.324 173.309 70.6559 173.326C71.0099 173.311 71.3627 173.375 71.6892 173.512C72.0157 173.65 72.3078 173.858 72.5447 174.121L71.9774 174.661C71.8158 174.482 71.6182 174.34 71.3976 174.243C71.1769 174.147 70.9383 174.098 70.6974 174.1C70.2515 174.1 69.8238 174.278 69.5085 174.593C69.1932 174.908 69.0161 175.336 69.0161 175.782C69.0161 176.228 69.1932 176.655 69.5085 176.971C69.8238 177.286 70.2515 177.463 70.6974 177.463C70.939 177.466 71.1784 177.417 71.3993 177.319C71.6201 177.221 71.8173 177.077 71.9774 176.896L72.5447 177.442C72.1962 177.809 71.7474 178.065 71.2543 178.179C70.7613 178.293 70.2456 178.259 69.7715 178.082C69.2974 177.905 68.8858 177.593 68.5879 177.184C68.29 176.775 68.1189 176.287 68.0959 175.782Z" fill="black"/>
<path d="M64.1037 178.916H57.8005V172.613H64.1037V178.916ZM58.4924 178.224H63.4118V173.305H58.4924V178.224Z" fill="black"/>
<path d="M68.4349 185.344H70.5106C72.0604 185.344 73.119 186.299 73.119 187.738C73.119 189.177 72.0604 190.125 70.5106 190.125H68.4349V185.344ZM70.5106 189.377C70.7386 189.398 70.9684 189.372 71.1855 189.299C71.4025 189.226 71.602 189.109 71.7712 188.954C71.9403 188.8 72.0754 188.612 72.1679 188.403C72.2603 188.193 72.3081 187.967 72.3081 187.738C72.3081 187.509 72.2603 187.282 72.1679 187.073C72.0754 186.863 71.9403 186.675 71.7712 186.521C71.602 186.367 71.4025 186.249 71.1855 186.177C70.9684 186.104 70.7386 186.077 70.5106 186.098H69.3551V189.377H70.5106Z" fill="black"/>
<path d="M64.1037 190.886H57.8005V184.583H64.1037V190.886ZM58.4924 190.194H63.4118V185.275H58.4924V190.194Z" fill="black"/>
<path d="M124.928 151.835C124.928 151.932 114.549 152.015 101.701 152.015C88.8526 152.015 78.4742 151.932 78.4742 151.835C78.4742 151.739 88.8526 151.656 101.701 151.656C114.549 151.656 124.928 151.739 124.928 151.835Z" fill="black"/>
<path d="M188.852 163.798C188.852 163.902 164.144 163.978 133.666 163.978C103.189 163.978 78.4742 163.902 78.4742 163.798C78.4742 163.694 103.182 163.618 133.666 163.618C164.151 163.618 188.852 163.701 188.852 163.798Z" fill="black"/>
<path d="M93.6682 187.731C93.6682 187.835 90.2641 187.911 86.0574 187.911C81.8507 187.911 78.4466 187.835 78.4466 187.731C78.4466 187.627 81.8507 187.551 86.0574 187.551C90.2641 187.551 93.6682 187.634 93.6682 187.731Z" fill="black"/>
<path d="M133.666 175.782C133.666 175.879 121.309 175.962 106.074 175.962C90.8383 175.962 78.4742 175.879 78.4742 175.782C78.4742 175.685 90.8314 175.602 106.074 175.602C121.316 175.602 133.666 175.664 133.666 175.782Z" fill="black"/>
<path d="M178.349 204.149H149.863C148.715 204.149 147.578 203.923 146.518 203.483C145.457 203.044 144.493 202.4 143.682 201.587C142.87 200.775 142.227 199.811 141.788 198.75C141.349 197.689 141.124 196.552 141.125 195.404C141.125 193.086 142.046 190.863 143.684 189.225C145.323 187.586 147.546 186.665 149.863 186.665H178.349C180.666 186.665 182.889 187.586 184.528 189.225C186.167 190.863 187.087 193.086 187.087 195.404C187.088 196.552 186.863 197.689 186.424 198.75C185.985 199.811 185.342 200.775 184.53 201.587C183.719 202.4 182.755 203.044 181.694 203.483C180.634 203.923 179.497 204.149 178.349 204.149Z" fill="#FB923C"/>
<path d="M156.976 193.328V198.081H156.07L153.676 195.196V198.081H152.59V193.328H153.496L155.855 196.213V193.328H156.976Z" fill="white"/>
<path d="M161.778 197.23V198.116H158.097V193.363H161.688V194.248H159.211V195.279H161.418V196.13H159.211V197.23H161.778Z" fill="white"/>
<path d="M165.597 198.081L164.449 196.435L163.321 198.081H162.062L163.819 195.667L162.151 193.328H163.397L164.49 194.871L165.562 193.328H166.753L165.092 195.625L166.87 198.081H165.597Z" fill="white"/>
<path d="M168.206 194.228H166.683V193.328H170.835V194.228H169.313V198.081H168.206V194.228Z" fill="white"/>
<path d="M176.847 197.722C176.789 197.721 176.733 197.706 176.682 197.678C176.631 197.651 176.588 197.611 176.557 197.562C176.507 197.486 176.489 197.393 176.507 197.304C176.525 197.214 176.578 197.136 176.653 197.085L178.861 195.611C178.896 195.59 178.924 195.559 178.944 195.522C178.963 195.486 178.973 195.445 178.971 195.404C178.971 195.362 178.96 195.321 178.94 195.285C178.919 195.248 178.89 195.218 178.854 195.196L176.667 193.902C176.59 193.855 176.535 193.779 176.513 193.691C176.491 193.603 176.505 193.509 176.551 193.431C176.598 193.353 176.673 193.297 176.76 193.273C176.848 193.25 176.941 193.262 177.02 193.307L179.207 194.594C179.343 194.676 179.457 194.792 179.537 194.929C179.617 195.067 179.662 195.223 179.666 195.382C179.67 195.541 179.634 195.699 179.561 195.841C179.488 195.982 179.38 196.103 179.248 196.193L177.041 197.659C176.984 197.699 176.917 197.72 176.847 197.722Z" fill="white"/>
<path d="M58.7208 98.2277C58.5132 98.0202 59.8485 96.3389 61.7097 94.4708C63.5709 92.6027 65.2522 91.2742 65.4667 91.4818C65.6812 91.6894 64.3389 93.3776 62.4777 95.2388C60.6165 97.1 58.9352 98.4422 58.7208 98.2277Z" fill="#FB923C"/>
<path d="M66.6152 98.8851C66.4077 99.0996 64.6157 97.6466 62.6161 95.6471C60.6165 93.6475 59.1566 91.8624 59.3781 91.648C59.5995 91.4335 61.3845 92.8864 63.3772 94.886C65.3698 96.8856 66.8297 98.6776 66.6152 98.8851Z" fill="#FB923C"/>
<path d="M57.2055 155.33C56.991 155.115 58.3333 153.434 60.1945 151.573C62.0557 149.711 63.737 148.376 63.9515 148.584C64.1659 148.791 62.8237 150.472 60.9556 152.341C59.0875 154.209 57.4131 155.537 57.2055 155.33Z" fill="#FB923C"/>
<path d="M65.1138 155.987C64.8994 156.194 63.1143 154.748 61.1147 152.749C59.1152 150.749 57.6553 148.957 57.8767 148.75C58.0981 148.542 59.8762 149.988 61.8758 151.988C63.8754 153.987 65.3076 155.772 65.1138 155.987Z" fill="#FB923C"/>
<path d="M191.398 295.852L142.82 280.257C142.69 280.217 142.554 280.2 142.419 280.209L105.057 282.976C98.4907 267.063 90.2641 247.171 86.5209 238.086C85.8972 236.597 84.8923 235.298 83.6073 234.32C82.3223 233.343 80.8025 232.721 79.2007 232.517L38.739 227.231C38.2579 227.172 37.7699 227.241 37.3238 227.431C36.8778 227.62 36.4892 227.923 36.1971 228.31C35.905 228.696 35.7195 229.153 35.6593 229.634C35.599 230.115 35.6661 230.603 35.8538 231.05L58.6378 284.18C58.9394 284.885 59.3842 285.52 59.9439 286.044C60.5037 286.568 61.1663 286.97 61.8896 287.224L108.17 305.691C109.228 306.113 110.374 306.265 111.505 306.134L114.466 305.809C124.72 304.736 175.353 299.582 191.19 297.921C191.441 297.908 191.679 297.806 191.861 297.632C192.043 297.459 192.157 297.226 192.182 296.976C192.207 296.726 192.142 296.475 191.998 296.269C191.854 296.063 191.641 295.915 191.398 295.852Z" fill="#E0E0E0"/>
<path d="M191.398 295.852C191.56 295.905 191.707 295.995 191.827 296.115C191.947 296.235 192.037 296.382 192.09 296.544C192.152 296.749 192.154 296.967 192.094 297.173C192.033 297.378 191.914 297.561 191.751 297.7C191.532 297.868 191.265 297.961 190.989 297.963L190.076 298.06L178.708 299.263L136.891 303.615L123.053 305.055L115.684 305.816L111.899 306.224C110.589 306.428 109.247 306.273 108.018 305.774L77.0628 293.445L68.7947 290.144L64.5811 288.47L62.457 287.626C62.1041 287.474 61.7651 287.349 61.3846 287.19C61.0225 287.03 60.6791 286.83 60.3606 286.595C59.7198 286.121 59.183 285.52 58.7831 284.831C58.3956 284.139 58.1465 283.412 57.8282 282.7L55.9809 278.403C54.7401 275.525 53.4924 272.616 52.2378 269.678C47.2077 257.916 41.9909 245.794 36.6564 233.354L35.923 231.645C35.6129 231.076 35.4534 230.438 35.4594 229.791C35.4992 229.131 35.7586 228.504 36.1962 228.008C36.6337 227.513 37.2244 227.178 37.8741 227.058C38.0333 227.023 38.1993 227.058 38.3654 227.009L38.8428 227.044L39.7561 227.168L41.5757 227.404L45.2012 227.874L59.5095 229.749L73.4857 231.576L76.9452 232.025C78.0868 232.198 79.2284 232.275 80.4046 232.544C82.6773 233.13 84.6505 234.541 85.9398 236.502C86.5164 237.479 87.0005 238.507 87.3858 239.574C87.8102 240.607 88.2345 241.636 88.6589 242.66L91.1704 248.755L96.069 260.628C99.2656 268.391 102.344 275.85 105.271 282.949L105.119 282.852L141.526 280.16L142.536 280.084C142.719 280.082 142.899 280.115 143.069 280.181L143.547 280.34L145.373 280.949L149.054 282.132L155.994 284.409L168.24 288.359L185.364 293.894L189.862 295.368C190.879 295.7 191.398 295.88 191.398 295.88C191.398 295.88 190.872 295.728 189.848 295.41L185.337 293.984L168.206 288.491L155.952 284.575L148.964 282.333L145.283 281.157L143.394 280.555C143.097 280.433 142.786 280.352 142.467 280.313L141.457 280.389L105.057 283.156H104.953L104.904 283.052C101.971 275.961 98.8919 268.523 95.6816 260.746L90.7761 248.873C89.9458 246.862 89.1063 244.83 88.2576 242.777C87.8355 241.753 87.4066 240.702 86.9845 239.692C86.6048 238.647 86.13 237.64 85.5661 236.682C84.3305 234.799 82.4391 233.443 80.2593 232.876C79.18 232.614 78.0176 232.531 76.8829 232.365L73.4235 231.915L59.4404 230.095L45.1321 228.227L41.4996 227.757L39.68 227.514C39.0974 227.397 38.5014 227.359 37.9087 227.404C37.3392 227.512 36.8219 227.806 36.4385 228.241C36.0551 228.676 35.8275 229.226 35.7915 229.804C35.7872 230.398 35.9375 230.982 36.2274 231.5L36.9816 233.209L52.556 269.54C53.8153 272.473 55.0607 275.382 56.2922 278.265C56.9149 279.704 57.5238 281.136 58.1396 282.561C58.4509 283.253 58.7208 284.014 59.0806 284.637C59.4535 285.285 59.9579 285.848 60.5612 286.29C60.8605 286.512 61.183 286.699 61.5229 286.851C61.855 286.996 62.2148 287.128 62.5746 287.273L64.6987 288.124L68.9054 289.805L77.2081 293.106L108.149 305.47C109.331 305.954 110.624 306.105 111.886 305.906L115.677 305.497L123.046 304.75L136.884 303.366L178.715 299.125L190.09 297.983L191.003 297.9C191.267 297.9 191.524 297.815 191.737 297.658C191.894 297.528 192.01 297.354 192.07 297.159C192.13 296.963 192.132 296.755 192.076 296.558C192.01 296.314 191.851 296.105 191.633 295.977C191.481 295.887 191.398 295.859 191.398 295.852Z" fill="#263238"/>
<path d="M128.878 286.235L147.096 293.86L169.797 291.493L150.708 283.613L128.878 286.235Z" fill="#F5F5F5"/>
<path d="M115.144 300.647L150.708 297.437L116.75 283.973L105.832 284.796L111.602 298.717L115.144 300.647Z" fill="#F5F5F5"/>
<path d="M187.876 295.832L187.634 295.873L186.907 295.963L184.14 296.247L173.858 297.25L139.956 300.412L113.304 302.82H113.193L113.152 302.716L107.25 288.318L105.631 284.291C105.451 283.83 105.313 283.477 105.216 283.232C105.165 283.11 105.121 282.986 105.084 282.859C105.084 282.859 105.147 282.976 105.257 283.211L105.714 284.256L107.409 288.248C108.862 291.708 110.938 296.655 113.429 302.605L113.276 302.508L139.921 300.038L173.858 296.98L184.119 296.108L186.887 295.887L187.613 295.838L187.876 295.832Z" fill="black"/>
<path d="M37.03 229.154H37.3345L38.2339 229.258L41.6934 229.708L54.3826 231.437C59.7379 232.185 66.1448 233.084 73.1951 234.129L78.6196 234.966L80.0033 235.201C80.2317 235.236 80.4738 235.291 80.6952 235.347C80.8129 235.347 80.9374 235.395 81.055 235.43C81.6386 235.664 82.1683 236.015 82.6118 236.46C82.7915 236.652 82.9346 236.875 83.0338 237.118L83.3037 237.81C84.7497 241.421 86.2442 245.164 87.7802 248.991C93.8965 264.316 99.4247 278.195 103.438 288.255C105.423 293.272 107.029 297.34 108.149 300.163C108.689 301.547 109.111 302.654 109.409 303.415C109.547 303.774 109.651 304.051 109.727 304.259C109.766 304.353 109.799 304.45 109.824 304.549C109.775 304.46 109.731 304.367 109.692 304.273L109.34 303.435L108.018 300.218C106.876 297.395 105.25 293.348 103.175 288.345L87.4827 249.122C85.9467 245.296 84.4522 241.553 83.0061 237.941L82.7363 237.249C82.6529 237.045 82.5334 236.857 82.3835 236.696C82.074 236.359 81.6998 236.089 81.2833 235.9C81.1798 235.85 81.0735 235.806 80.9651 235.769L80.633 235.686C80.4116 235.637 80.1902 235.589 79.9411 235.554L78.5573 235.312L73.1329 234.461L54.3411 231.693L41.6657 229.846L38.2062 229.334L37.3137 229.189L37.03 229.154Z" fill="black"/>
<path d="M72.7938 260.96C74.5236 263.278 74.8695 265.942 73.5757 266.911C72.2818 267.879 69.8187 266.793 68.089 264.475C66.3593 262.157 66.0133 259.5 67.3071 258.525C68.601 257.549 71.0641 258.649 72.7938 260.96Z" fill="white"/>
<path d="M291.694 221.446C289.376 208.301 274.84 200.378 270.038 196.006L277.254 205.657C280.948 220.89 282.347 236.589 281.406 252.236C281.309 253.945 281.496 256.249 282.713 256.491C283.153 256.527 283.59 256.391 283.931 256.11C288.193 253.377 290.961 247.116 291.577 240.667C292.192 234.219 292.746 227.528 291.694 221.446Z" fill="#FB923C"/>
<path d="M281.053 206.723C280.361 205.402 280.645 201.188 276.902 205.588L276.659 203.942L253.529 186.16L201.977 188.838C197.03 189.149 189.599 197.715 187.745 201.292C186.222 214.597 185.918 226.407 185.918 226.407C185.918 226.407 184.147 241.2 185.918 248.195C187.689 255.19 189.786 257.715 192.525 263.154C194.53 266.869 197.03 270.295 199.956 273.338L202.364 292.019L256.221 296.863L280.873 295.479C280.873 295.479 278.666 258.636 278.666 257.985C278.666 257.681 281.745 250.568 285.052 243.02C290.67 230.102 287.501 219.191 281.053 206.723Z" fill="#455A64"/>
<path d="M145.802 273.733C146.072 273.733 148.763 255.543 150.528 251.412C152.188 247.517 187.745 201.285 187.745 201.285L196.116 228.268L192.525 242.701L173.153 266.011L167.68 282.907L145.802 273.733Z" fill="#455A64"/>
<path d="M288.221 220.547C285.668 204.364 273.062 205.069 273.062 205.069L260.531 226.871V271.954L200.081 277.185L198.96 292.365C198.96 292.365 259.189 306.134 273.103 301.519C282.312 298.468 290.089 290.767 290.94 278.181C291.791 265.596 290.781 236.737 288.221 220.547Z" fill="#455A64"/>
<path d="M173.215 265.983C173.039 264.952 172.808 263.932 172.523 262.925C171.765 260.508 170.396 258.327 168.549 256.592C166.702 254.858 164.439 253.629 161.979 253.024C160.955 252.794 159.921 252.619 158.879 252.498C159.164 252.464 159.452 252.464 159.737 252.498C160.512 252.53 161.284 252.632 162.041 252.803C164.565 253.362 166.892 254.593 168.774 256.367C170.656 258.14 172.023 260.39 172.731 262.877C172.948 263.623 173.097 264.387 173.173 265.16C173.221 265.432 173.235 265.708 173.215 265.983Z" fill="black"/>
<path d="M202.15 276.562C202.236 276.539 202.324 276.523 202.413 276.514L203.181 276.403L206.142 276.009L217.053 274.625L253.031 270.252L261.03 269.298L260.87 269.471C261.334 257.21 261.562 246.403 261.479 238.661C261.479 234.793 261.396 231.686 261.348 229.549C261.348 228.497 261.299 227.673 261.286 227.099V226.463C261.286 226.317 261.286 226.248 261.286 226.241C261.293 226.315 261.293 226.389 261.286 226.463C261.286 226.622 261.286 226.829 261.327 227.092C261.327 227.673 261.396 228.476 261.445 229.549C261.535 231.68 261.631 234.786 261.687 238.661C261.811 246.403 261.645 257.224 261.196 269.478V269.63H261.043L253.045 270.591L217.032 274.86L206.114 276.113L203.139 276.431L202.364 276.507L202.15 276.562Z" fill="black"/>
<path d="M291.763 276.562C291.773 276.655 291.773 276.747 291.763 276.839C291.763 277.033 291.763 277.303 291.722 277.642C291.659 278.674 291.541 279.701 291.369 280.721C291.097 282.338 290.702 283.931 290.186 285.488C289.479 287.544 288.532 289.508 287.363 291.341C285.941 293.573 284.146 295.543 282.056 297.167C279.655 299.031 276.879 300.355 273.919 301.048C272.326 301.432 270.708 301.702 269.076 301.858C267.379 302.01 265.674 302.075 263.97 302.052C260.397 301.98 256.833 301.647 253.308 301.055L232.89 297.7L223.986 296.219L216.23 294.787C211.504 293.901 207.671 293.23 205.014 292.829L201.949 292.379L201.153 292.268C201.062 292.26 200.971 292.242 200.884 292.213H201.153L201.956 292.296C202.648 292.372 203.7 292.49 205.035 292.677C207.699 293.036 211.539 293.673 216.278 294.524L224.02 295.908L232.932 297.354L253.35 300.689C256.862 301.287 260.414 301.627 263.977 301.706C265.707 301.706 267.395 301.657 269.049 301.526C270.661 301.377 272.261 301.114 273.836 300.737C276.759 300.061 279.501 298.763 281.876 296.932C283.946 295.338 285.729 293.403 287.148 291.21C288.319 289.399 289.273 287.458 289.992 285.426C290.521 283.885 290.934 282.308 291.231 280.707C291.459 279.385 291.597 278.348 291.646 277.642L291.729 276.839C291.734 276.746 291.745 276.654 291.763 276.562Z" fill="black"/>
<path d="M200.517 277.676C200.489 277.584 200.47 277.489 200.461 277.393C200.427 277.178 200.378 276.895 200.33 276.549C200.219 275.774 200.06 274.694 199.866 273.324V273.373L195.286 268.301C194.393 267.028 193.587 265.697 192.871 264.316C192.072 262.744 191.365 261.127 190.754 259.473C189.404 255.734 188.476 251.856 187.987 247.911C187.504 243.641 187.404 239.337 187.689 235.049C187.904 231.105 188.312 227.563 188.699 224.601C189.087 221.64 189.453 219.253 189.716 217.6L190.028 215.704C190.062 215.503 190.09 215.344 190.118 215.212C190.123 215.155 190.137 215.099 190.159 215.046C190.165 215.102 190.165 215.157 190.159 215.212C190.159 215.351 190.159 215.51 190.104 215.711C190.042 216.181 189.965 216.818 189.862 217.62C189.64 219.274 189.315 221.668 188.955 224.636C188.596 227.604 188.27 231.133 188.056 235.077C187.792 239.342 187.898 243.623 188.374 247.87C188.856 251.79 189.766 255.646 191.086 259.369C191.684 261.006 192.377 262.607 193.162 264.164C193.862 265.537 194.65 266.864 195.521 268.135L200.039 273.269L200.413 276.5C200.448 276.853 200.475 277.137 200.503 277.351C200.527 277.458 200.532 277.568 200.517 277.676Z" fill="black"/>
<path d="M269.74 279.358C269.284 278.852 268.866 278.313 268.488 277.746C267.734 276.728 266.675 275.345 265.437 273.871C264.198 272.397 263.029 271.103 262.164 270.19C261.667 269.716 261.205 269.208 260.78 268.668C261.343 269.059 261.863 269.509 262.33 270.01C263.52 271.158 264.644 272.371 265.7 273.643C266.763 274.906 267.758 276.225 268.682 277.593C269.093 278.144 269.448 278.735 269.74 279.358Z" fill="black"/>
<path d="M160.595 275.954C160.083 272.999 157.391 270.695 157.391 270.695C157.391 270.695 156.104 267.097 154.181 266.15C152.257 265.202 150.721 267.097 149.047 266.585C147.373 266.073 143.782 265.942 142.626 266.585C141.471 267.229 140.059 270.82 140.059 270.82C138.895 270.867 137.755 271.174 136.725 271.719C135.851 272.17 135.095 272.82 134.517 273.615C134.016 273.42 133.467 273.381 132.943 273.505C132.419 273.628 131.945 273.908 131.584 274.307C130.882 275.127 130.357 276.084 130.041 277.116L129.128 279.565C128.952 279.939 128.871 280.35 128.892 280.762C128.963 281.101 129.146 281.406 129.413 281.628C129.679 281.849 130.013 281.973 130.359 281.98C130.711 281.982 131.059 281.909 131.381 281.767C131.703 281.625 131.991 281.417 132.227 281.157C132.698 280.692 133.114 280.174 133.466 279.614L133.694 281.219C133.694 281.219 134.075 283.758 136.129 283.91C137.548 284.021 139.084 282.374 139.084 282.374L142.675 281.987L143.187 285.578C143.423 286.27 143.876 286.868 144.477 287.284C145.079 287.7 145.798 287.912 146.529 287.889C147.816 287.889 149.476 285.709 149.476 285.709L152.818 286.989C152.818 286.989 156.665 289.688 158.464 288.788C158.967 288.534 159.368 288.115 159.602 287.602C159.836 287.089 159.888 286.512 159.751 285.965C160.519 285.095 161.126 284.094 161.543 283.011C162.027 281.475 161.134 278.908 160.595 275.954Z" fill="#E5AB8E"/>
<path d="M133.611 280.603C133.465 279.333 133.509 278.048 133.742 276.791C133.862 275.519 134.175 274.273 134.67 273.096C134.766 273.096 134.386 274.777 134.095 276.846C133.805 278.915 133.742 280.603 133.611 280.603Z" fill="#EB996E"/>
<path d="M139.222 277.227C139.44 278.1 139.543 278.998 139.527 279.897C139.6 280.547 139.534 281.205 139.333 281.828C139.132 282.312 138.849 282.52 138.828 282.464C138.807 282.409 138.973 282.194 139.091 281.772C139.209 281.169 139.235 280.55 139.167 279.939C139.061 279.037 139.08 278.124 139.222 277.227Z" fill="#EB996E"/>
<path d="M141.616 275.698C141.685 275.767 141.215 276.389 140.558 277.026C139.9 277.663 139.319 278.175 139.243 278.105C139.167 278.036 139.644 277.413 140.302 276.777C140.959 276.14 141.547 275.628 141.616 275.698Z" fill="#EB996E"/>
<path d="M142.094 268.792C142.171 269.44 142.199 270.092 142.177 270.744C142.177 271.954 142.225 273.615 142.322 275.448C142.419 277.282 142.564 278.943 142.668 280.146C142.766 280.792 142.808 281.445 142.792 282.098C142.601 281.471 142.476 280.826 142.419 280.174C142.246 278.977 142.066 277.317 141.962 275.469C141.858 273.622 141.872 271.954 141.921 270.744C141.91 270.089 141.968 269.435 142.094 268.792Z" fill="#EB996E"/>
<path d="M155.558 270.169C155.558 270.169 155.406 270.515 155.163 271.138C154.826 272.02 154.558 272.927 154.361 273.85C154.236 274.445 154.105 275.089 153.96 275.774C153.822 276.524 153.618 277.26 153.351 277.974C153.052 278.781 152.549 279.496 151.891 280.05C151.531 280.361 151.103 280.583 150.641 280.698C150.18 280.812 149.697 280.815 149.234 280.707C148.752 280.598 148.317 280.342 147.988 279.973C147.685 279.608 147.491 279.164 147.428 278.693C147.33 277.853 147.314 277.005 147.38 276.161C147.458 274.746 147.676 273.341 148.03 271.968C148.268 271.043 148.573 270.137 148.943 269.256C149.075 268.945 149.179 268.71 149.262 268.564C149.297 268.48 149.343 268.401 149.4 268.329C149.314 268.666 149.205 268.996 149.075 269.318C148.757 270.209 148.491 271.116 148.279 272.038C147.964 273.401 147.774 274.791 147.712 276.189C147.657 277.005 147.678 277.825 147.774 278.638C147.83 279.045 147.998 279.428 148.258 279.745C148.54 280.055 148.909 280.272 149.317 280.368C149.728 280.462 150.155 280.458 150.564 280.356C150.973 280.254 151.351 280.056 151.669 279.78C152.287 279.261 152.763 278.595 153.053 277.842C153.488 276.51 153.846 275.154 154.126 273.781C154.343 272.852 154.649 271.946 155.039 271.076C155.147 270.838 155.269 270.607 155.406 270.384C155.489 270.239 155.544 270.162 155.558 270.169Z" fill="#EB996E"/>
<path d="M156.914 271.726C156.817 272.493 156.478 273.21 155.947 273.772C155.416 274.334 154.72 274.713 153.96 274.853C154.566 274.453 155.141 274.009 155.682 273.525C156.137 272.957 156.549 272.356 156.914 271.726Z" fill="#EB996E"/>
<path d="M149.483 280.672C149.71 281.633 149.769 282.625 149.656 283.606C149.619 284.478 149.496 285.345 149.289 286.194V286.242C149.263 286.255 149.235 286.263 149.206 286.264C149.176 286.264 149.147 286.259 149.121 286.247C149.094 286.235 149.071 286.217 149.052 286.194C149.033 286.172 149.02 286.146 149.012 286.117C149.012 286.048 149.012 286.021 149.012 286.021C149.012 286.021 149.013 286.055 149.061 286.083C149.109 286.111 149.158 286.138 149.179 286.083L149.137 286.138C149.137 285.668 149.241 284.685 149.303 283.551C149.295 282.588 149.356 281.626 149.483 280.672Z" fill="#EB996E"/>
<path d="M157.627 277.808C157.36 278.248 157.044 278.657 156.686 279.026C155.893 279.948 155.197 280.949 154.61 282.015C154.026 283.078 153.694 284.262 153.641 285.474C153.641 286.408 153.8 286.975 153.738 286.989C153.496 286.522 153.374 286.001 153.385 285.474C153.365 284.205 153.677 282.952 154.292 281.842C154.901 280.749 155.655 279.744 156.533 278.853C156.852 278.459 157.219 278.108 157.627 277.808Z" fill="#EB996E"/>
<path d="M156.208 284.187C155.992 283.409 156.028 282.583 156.311 281.827C156.595 281.071 157.111 280.424 157.786 279.98C160.2 278.264 167.431 273.753 167.583 273.753C167.735 273.753 176.072 270.986 179.58 270.626C183.088 270.266 198.441 277.891 198.441 277.891C198.441 277.891 202.004 283.025 201.43 287.951C200.856 292.877 197.645 293.161 197.645 293.161L193.19 292.075L188.596 291.196C188.596 291.196 178.432 294.026 176.833 293.507C175.235 292.988 174.682 291.251 176.411 290.31C178.141 289.369 183.116 287.896 183.116 287.896L186.942 286.277L174.488 288.055C174.488 288.055 163.957 290.13 162.726 289.84C161.494 289.549 161.307 288.629 161.204 287.764C161.204 287.764 156.962 289.84 155.703 288.705C154.444 287.57 153.89 285.1 156.208 284.187Z" fill="#E5AB8E"/>
<path d="M183.088 281.157C182.779 281.206 182.466 281.223 182.154 281.205C181.559 281.205 180.694 281.205 179.629 281.274C178.386 281.331 177.151 281.504 175.941 281.793C175.227 281.975 174.533 282.223 173.865 282.533C173.173 282.852 172.481 283.225 171.79 283.64C171.084 284.044 170.348 284.393 169.589 284.685C168.88 284.947 168.137 285.108 167.382 285.163C166.139 285.163 164.9 285.302 163.687 285.578C162.896 285.83 162.198 286.311 161.681 286.962C161.506 287.214 161.351 287.48 161.217 287.757C161.217 287.757 161.217 287.667 161.259 287.515C161.331 287.292 161.433 287.08 161.563 286.885C162.062 286.167 162.777 285.626 163.604 285.343C164.829 285.022 166.089 284.853 167.355 284.837C168.861 284.661 170.308 284.148 171.589 283.336C172.281 282.942 172.973 282.54 173.706 282.215C174.389 281.903 175.1 281.658 175.83 281.482C177.062 281.194 178.322 281.043 179.587 281.032C180.666 281.032 181.531 281.032 182.133 281.074C182.453 281.071 182.773 281.099 183.088 281.157Z" fill="#EB996E"/>
<path d="M179.324 275.905C179.253 275.953 179.176 275.992 179.096 276.023C178.951 276.092 178.722 276.182 178.404 276.286C177.555 276.547 176.688 276.746 175.809 276.881C174.709 277.074 173.381 277.22 171.969 277.573C170.449 278.032 168.988 278.671 167.617 279.475C165.064 280.896 162.398 282.104 159.647 283.087C158.595 283.461 157.73 283.737 157.128 283.917C156.823 284.028 156.508 284.109 156.187 284.159C156.474 284.006 156.775 283.88 157.087 283.786L159.557 282.845C162.268 281.8 164.904 280.567 167.444 279.157C168.84 278.339 170.332 277.698 171.886 277.247C173.169 276.958 174.467 276.74 175.775 276.597C176.646 276.487 177.51 276.327 178.362 276.12C178.679 276.03 179 275.959 179.324 275.905Z" fill="#EB996E"/>
<path d="M189.433 278.873C189.341 278.603 189.274 278.325 189.232 278.043C189.067 277.396 188.748 276.798 188.302 276.301C187.856 275.803 187.297 275.421 186.672 275.186C186.397 275.111 186.128 275.014 185.869 274.895C185.869 274.853 186.215 274.812 186.755 274.943C187.456 275.132 188.088 275.519 188.575 276.057C189.058 276.599 189.373 277.27 189.481 277.988C189.554 278.281 189.537 278.59 189.433 278.873Z" fill="#EB996E"/>
<path d="M195.189 286.643C195.176 286.254 195.142 285.866 195.085 285.481C194.85 284.581 194.318 283.787 193.577 283.225C192.814 282.671 191.972 282.235 191.079 281.932C190.691 281.829 190.318 281.673 189.972 281.468C190.377 281.473 190.777 281.548 191.156 281.689C192.11 281.935 193.01 282.36 193.805 282.942C194.613 283.551 195.159 284.443 195.335 285.439C195.435 285.845 195.383 286.273 195.189 286.643Z" fill="#EB996E"/>
<path d="M161.245 287.75C161.069 287.907 160.865 288.029 160.643 288.11C160.065 288.382 159.469 288.614 158.858 288.802C158.438 288.949 158.008 289.067 157.571 289.155C157.045 289.224 156.509 289.17 156.007 288.996C155.724 288.892 155.466 288.73 155.249 288.52C155.032 288.311 154.861 288.058 154.748 287.778C154.462 287.209 154.347 286.57 154.416 285.938C154.488 285.46 154.735 285.026 155.108 284.72C155.426 284.44 155.783 284.207 156.167 284.028L156.077 284.236C155.795 283.378 155.86 282.444 156.257 281.634C156.586 281.026 157.03 280.488 157.564 280.05C157.907 279.764 158.272 279.507 158.657 279.282C158.79 279.186 158.937 279.114 159.093 279.067C159.128 279.116 158.533 279.461 157.71 280.209C157.223 280.653 156.82 281.18 156.52 281.765C156.178 282.513 156.139 283.363 156.409 284.139L156.45 284.27L156.319 284.339C155.668 284.678 154.887 285.176 154.811 285.993C154.753 286.556 154.853 287.124 155.101 287.633C155.193 287.872 155.334 288.089 155.515 288.27C155.696 288.452 155.914 288.593 156.153 288.684C156.595 288.846 157.068 288.908 157.537 288.864C157.961 288.788 158.382 288.688 158.796 288.567C159.564 288.352 160.18 288.138 160.595 287.986C160.803 287.884 161.021 287.806 161.245 287.75Z" fill="#EB996E"/>
<path d="M214.853 147.788C213.351 132.801 210.176 117.884 210.833 102.815L198.51 110.509C199.126 116.473 193.764 121.095 190.657 126.215C188.798 129.343 187.708 132.867 187.476 136.498C187.244 140.129 187.876 143.764 189.322 147.103C190.429 149.594 192 151.946 192.408 154.644C193.1 159.197 190.284 163.826 191.322 168.316C192.512 173.485 198.836 176.321 203.935 174.868C209.034 173.415 212.687 168.641 214.189 163.584C215.69 158.526 215.379 153.067 214.853 147.788Z" fill="#263238"/>
<path d="M199.175 107.976C199.856 104.32 201.498 100.91 203.931 98.0969C206.365 95.2837 209.503 93.1681 213.023 91.9669C216.543 90.7657 220.32 90.5222 223.965 91.2613C227.611 92.0003 230.994 93.6954 233.769 96.1728C236.018 98.1862 237.858 100.698 240.46 102.227C243.4 103.95 243.781 103.368 247.019 104.413C250.257 105.458 256.601 113.913 256.705 117.317L259.224 132.123C259.307 135.617 254.948 137.866 251.571 136.967C248.195 136.067 245.815 133.085 243.878 130.165C241.94 127.246 240.1 124.084 237.118 122.25C232.171 119.213 225.819 120.763 220.215 122.25C214.611 123.738 208.1 125.018 203.437 121.558C199.451 118.548 198.261 112.875 199.175 107.976Z" fill="#263238"/>
<path d="M197.389 129.425C197.389 119.683 203.125 107.388 212.853 107.831L243.504 113.643C244.931 113.706 246.282 114.303 247.289 115.315C248.296 116.328 248.886 117.682 248.942 119.109L250.098 192.103H250.305C250.305 192.103 239.657 218.88 219.315 213.856C215.282 212.86 218.264 202.821 217.198 198.42L216.998 198.462C216.956 197.929 216.922 197.438 216.88 196.933C216.285 193.64 216.037 190.294 216.14 186.949C215.718 181.075 215.572 178.646 215.572 178.722C215.572 178.798 203.049 177.408 199.507 161.39C197.749 153.461 197.355 140.253 197.389 129.425Z" fill="#E5AB8E"/>
<path d="M202.8 142.17C202.827 142.71 203.064 143.219 203.461 143.588C203.858 143.956 204.383 144.155 204.924 144.142C205.19 144.147 205.453 144.099 205.7 144.001C205.947 143.903 206.171 143.756 206.36 143.57C206.549 143.384 206.699 143.161 206.8 142.916C206.902 142.671 206.953 142.407 206.951 142.142C206.925 141.601 206.687 141.092 206.291 140.724C205.894 140.356 205.369 140.157 204.827 140.17C204.562 140.165 204.298 140.212 204.051 140.31C203.805 140.409 203.58 140.555 203.391 140.742C203.202 140.928 203.053 141.15 202.951 141.396C202.85 141.641 202.798 141.904 202.8 142.17Z" fill="#263238"/>
<path d="M200.662 136.116C200.932 136.372 202.433 135.112 204.668 134.988C206.903 134.863 208.605 135.873 208.82 135.59C208.937 135.458 208.64 134.988 207.899 134.51C206.892 133.897 205.72 133.612 204.544 133.694C203.394 133.776 202.299 134.219 201.416 134.96C200.724 135.5 200.524 136.005 200.662 136.116Z" fill="#263238"/>
<path d="M222.934 141.042C222.961 141.583 223.198 142.091 223.595 142.46C223.992 142.828 224.517 143.027 225.058 143.014C225.324 143.019 225.587 142.972 225.834 142.873C226.081 142.775 226.305 142.629 226.494 142.442C226.683 142.256 226.833 142.033 226.934 141.788C227.036 141.543 227.087 141.28 227.085 141.014C227.058 140.47 226.818 139.958 226.417 139.589C226.016 139.22 225.485 139.023 224.941 139.042C224.677 139.039 224.415 139.089 224.171 139.189C223.927 139.288 223.705 139.435 223.518 139.621C223.331 139.807 223.183 140.029 223.083 140.273C222.983 140.517 222.932 140.778 222.934 141.042Z" fill="#263238"/>
<path d="M222.63 135.216C222.899 135.465 224.401 134.213 226.636 134.081C228.871 133.95 230.573 134.974 230.787 134.683C230.898 134.552 230.614 134.081 229.867 133.604C228.859 132.994 227.687 132.709 226.511 132.788C225.351 132.857 224.242 133.291 223.342 134.026C222.699 134.593 222.491 135.098 222.63 135.216Z" fill="#263238"/>
<path d="M215.524 152.257C215.524 152.126 214.14 151.974 211.857 151.822C211.283 151.822 210.736 151.711 210.618 151.33C210.535 150.744 210.631 150.145 210.895 149.614C211.352 148.231 211.822 146.729 212.32 145.179C214.292 138.856 215.676 133.673 215.42 133.597C215.164 133.521 213.344 138.579 211.393 144.896L210.044 149.365C209.725 150.072 209.668 150.869 209.885 151.614C209.979 151.811 210.117 151.985 210.289 152.12C210.46 152.256 210.661 152.35 210.874 152.396C211.195 152.463 211.523 152.488 211.85 152.472C214.119 152.458 215.524 152.382 215.524 152.257Z" fill="#263238"/>
<path d="M215.572 178.764C223.194 178.418 230.571 175.966 236.883 171.679C236.883 171.679 232.095 183.268 215.821 182.749L215.572 178.764Z" fill="#EB996E"/>
<path d="M216.79 157.578C217.182 157.017 217.71 156.566 218.325 156.267C218.941 155.968 219.622 155.831 220.305 155.869C220.8 155.881 221.287 155.994 221.737 156.201C222.186 156.408 222.589 156.705 222.92 157.073C223.241 157.427 223.446 157.871 223.507 158.345C223.568 158.819 223.481 159.3 223.259 159.723C222.926 160.145 222.473 160.458 221.961 160.622C221.448 160.786 220.898 160.794 220.381 160.643C219.303 160.334 218.299 159.811 217.427 159.107C217.158 158.946 216.923 158.735 216.735 158.484C216.645 158.366 216.593 158.224 216.584 158.077C216.576 157.929 216.611 157.782 216.686 157.654" fill="#EB996E"/>
<path d="M222.173 153.406C221.806 153.406 221.945 155.828 219.98 157.668C218.015 159.508 215.413 159.405 215.413 159.744C215.413 159.896 216.015 160.18 217.108 160.145C218.529 160.081 219.882 159.517 220.928 158.554C221.931 157.627 222.534 156.347 222.609 154.983C222.657 153.966 222.346 153.378 222.173 153.406Z" fill="#263238"/>
<path d="M221.557 126.754C221.813 127.349 224.027 126.927 226.663 127.086C229.299 127.246 231.465 127.827 231.776 127.259C231.915 126.99 231.514 126.443 230.628 125.876C229.444 125.224 228.127 124.85 226.777 124.783C225.427 124.716 224.08 124.957 222.837 125.488C221.903 125.966 221.481 126.471 221.557 126.754Z" fill="#263238"/>
<path d="M201.091 129.605C201.513 130.089 203.021 129.473 204.869 129.335C206.716 129.197 208.328 129.473 208.633 128.92C208.778 128.65 208.501 128.159 207.782 127.723C206.829 127.2 205.742 126.973 204.66 127.072C203.578 127.171 202.549 127.59 201.707 128.276C201.084 128.837 200.904 129.37 201.091 129.605Z" fill="#263238"/>
<path d="M213.13 103.666L214.389 101.826C223.798 102.313 233.097 104.077 242.03 107.07C245.6 108.267 249.226 109.741 251.786 112.501C255.315 116.293 256.179 121.773 256.871 126.907C259.514 146.439 261.95 166.58 256.941 185.648C255.308 183.351 252.333 182.458 249.537 182.092C246.742 181.725 243.829 181.739 241.235 180.611C239.825 179.966 238.567 179.033 237.54 177.872C236.513 176.712 235.74 175.349 235.27 173.872C234.346 170.891 234.501 167.68 235.706 164.801C237.014 161.598 239.498 158.429 238.633 155.115C237.727 151.607 233.527 149.829 232.351 146.404C230.323 140.481 238.439 134.545 236.357 128.643C235.582 126.464 233.548 124.969 231.417 124.07C229.286 123.17 226.989 122.734 224.837 121.897C221.259 120.415 218.22 117.874 216.127 114.616C214.035 111.357 212.989 107.536 213.13 103.666Z" fill="#263238"/>
<path d="M260.995 113.318C250.935 99.2171 244.12 97.5081 234.655 96.9823L247.801 126.457C249.773 131.203 252.485 136.96 252.907 142.073C253.405 148.141 251.302 153.219 248.486 158.609C245.109 165.085 241.401 171.257 235.596 175.685C229.791 180.113 216.866 185.683 210.155 182.811L219.516 188.049L241.878 188.132L267.928 188.236C267.928 188.236 270.972 185.565 273.65 178.674C280.368 161.411 272.217 129.045 260.995 113.318Z" fill="#FB923C"/>
<path d="M279.545 205.159C279.545 205.159 273.94 193.66 266.627 187.336C259.314 181.012 254.823 181.075 244.39 181.96C233.956 182.846 219.357 184.493 215.898 183.614L215.572 178.771C213.856 178.598 206.82 175.173 205.45 173.104C202.835 175.782 201.693 178.639 202.288 181.677L200.579 182.32C198.058 183.242 195.965 185.061 194.699 187.428C193.433 189.795 193.083 192.546 193.716 195.155C194.366 197.645 195.937 199.175 199.092 199.721C211.615 201.887 245.095 192.837 255.176 192.802C265.257 192.768 279.545 205.159 279.545 205.159Z" fill="#FB923C"/>
<path d="M197.957 199.59C198.251 199.581 198.544 199.597 198.836 199.638C199.403 199.693 200.219 199.783 201.319 199.859C204.372 200.097 207.435 200.148 210.494 200.012C215.025 199.778 219.529 199.167 223.958 198.185C226.463 197.639 229.071 196.974 231.749 196.199L240.01 193.646C245.677 191.923 251.357 190.747 256.553 191.259C261.131 191.678 265.562 193.095 269.533 195.411C272.199 196.973 274.61 198.936 276.68 201.229C277.243 201.849 277.769 202.501 278.258 203.181C278.439 203.398 278.603 203.63 278.749 203.872C278.531 203.679 278.336 203.461 278.168 203.222C277.815 202.772 277.254 202.143 276.514 201.354C271.234 195.824 264.121 192.405 256.505 191.737C251.412 191.266 245.822 192.429 240.176 194.144C237.346 194.995 234.599 195.902 231.908 196.684C229.216 197.466 226.594 198.116 224.069 198.649C219.607 199.617 215.07 200.191 210.508 200.365C207.434 200.467 204.357 200.354 201.299 200.026C200.219 199.915 199.382 199.79 198.822 199.7C198.531 199.688 198.241 199.651 197.957 199.59Z" fill="#263238"/>
<path d="M280.147 201.382C267.513 184.956 243.289 178.681 224.263 186.9L204.198 191.155C198.905 192.069 190.415 193.792 190.014 198.697C189.647 203.892 190.778 209.084 193.273 213.656C197.936 221.779 195.404 232.662 200.067 240.785C202.267 244.625 204.516 248.52 207.726 251.571C210.937 254.623 215.296 256.761 219.696 256.283C224.595 255.757 228.608 252.18 231.721 248.361C238.426 240.134 242.611 230.143 248.887 221.592C255.162 213.04 262.566 206.744 275.753 205.934C278.147 205.782 284.976 208.972 284.976 208.972C285.17 208.003 280.748 202.15 280.147 201.382Z" fill="#FB923C"/>
<g opacity="0.3">
<path d="M253.142 191.612C244.417 191.612 235.845 195.805 227.39 197.673C193.377 205.159 193.377 192.332 193.377 192.332C192.311 198.358 197.971 201.126 203.928 202.509C215.303 205.139 227.452 206.55 235.658 203.928C242.272 201.852 249.177 200.309 255.854 198.393C262.531 196.476 272.148 197.21 277.206 201.956C272.681 194.518 261.867 191.591 253.142 191.612Z" fill="black"/>
</g>
<g opacity="0.3">
<path d="M208.937 190.692C209.344 191.583 209.937 192.376 210.677 193.017C211.418 193.658 212.287 194.132 213.227 194.407C215.111 194.95 217.083 195.12 219.032 194.906C226.144 194.421 232.98 192.048 239.712 189.696C234.33 189.509 229.12 191.384 223.84 192.463C218.561 193.543 212.611 193.612 208.321 190.387" fill="black"/>
</g>
<path d="M281.855 206.647C281.855 206.647 281.793 206.598 281.696 206.495L281.274 206.01C280.908 205.574 280.347 204.966 279.607 204.191C277.523 201.999 275.003 200.267 272.211 199.105C270.261 198.37 268.214 197.927 266.136 197.791C263.752 197.597 261.355 197.674 258.988 198.019C253.965 198.711 248.659 200.475 243.027 202.08C237.395 203.686 232.019 205.36 226.906 205.63C222.398 205.824 217.883 205.501 213.448 204.668C209.671 203.976 206.661 203.174 204.578 202.655L202.184 202.046L201.569 201.88L201.354 201.811C201.427 201.8 201.502 201.8 201.575 201.811L202.205 201.942L204.613 202.489C206.688 202.966 209.719 203.72 213.497 204.384C217.912 205.182 222.403 205.479 226.885 205.27C231.942 204.986 237.325 203.388 242.93 201.707C248.534 200.026 253.875 198.33 258.94 197.659C261.333 197.322 263.756 197.257 266.163 197.466C268.745 197.614 271.272 198.274 273.596 199.407C275.92 200.54 277.997 202.124 279.704 204.066C280.437 204.862 280.984 205.485 281.33 205.934L281.724 206.439L281.855 206.647Z" fill="black"/>
<path d="M269.152 189.723C269.1 189.689 269.051 189.65 269.007 189.606L268.606 189.239C268.267 188.907 267.734 188.443 267.042 187.855C265.049 186.245 262.865 184.888 260.538 183.815C257.085 182.233 253.414 181.178 249.648 180.687C245.032 180.114 240.361 180.126 235.748 180.722C231.13 181.332 226.548 182.187 222.021 183.282C220.021 183.752 217.961 183.915 215.911 183.766C214.109 183.631 212.379 183.004 210.909 181.953C209.729 181.058 208.722 179.956 207.934 178.701C207.34 177.765 206.824 176.782 206.391 175.761C206.038 174.924 205.803 174.253 205.651 173.796L205.492 173.277C205.469 173.22 205.455 173.159 205.45 173.097C205.45 173.097 205.485 173.153 205.526 173.263C205.568 173.374 205.644 173.568 205.72 173.775C205.893 174.218 206.149 174.875 206.522 175.706C206.974 176.707 207.504 177.672 208.107 178.591C208.895 179.81 209.896 180.879 211.061 181.746C212.503 182.753 214.192 183.348 215.946 183.469C217.962 183.6 219.987 183.427 221.952 182.957C226.485 181.839 231.077 180.975 235.706 180.369C240.35 179.77 245.052 179.77 249.696 180.369C253.49 180.884 257.183 181.973 260.649 183.6C262.983 184.694 265.162 186.09 267.132 187.751C267.666 188.205 268.176 188.685 268.661 189.191L269.035 189.578C269.118 189.675 269.159 189.716 269.152 189.723Z" fill="black"/>
<path d="M265.07 189.384H264.897L264.385 189.301L262.413 188.976C259.997 188.604 257.563 188.357 255.121 188.236C251.497 188.057 247.864 188.173 244.258 188.582C239.847 189.174 235.476 190.031 231.168 191.149C226.573 192.256 222.104 193.224 217.959 193.162C216.003 193.174 214.053 192.942 212.154 192.47C210.499 192.002 208.968 191.173 207.671 190.042C205.81 188.416 204.299 186.429 203.229 184.202C202.822 183.396 202.5 182.549 202.267 181.677C202.3 181.726 202.326 181.779 202.343 181.836L202.53 182.32C202.703 182.749 202.966 183.365 203.354 184.133C204.46 186.313 205.983 188.254 207.837 189.848C209.114 190.936 210.614 191.732 212.231 192.179C214.105 192.636 216.03 192.856 217.959 192.837C222.055 192.837 226.49 191.917 231.105 190.803C235.43 189.676 239.82 188.821 244.251 188.243C247.875 187.852 251.524 187.762 255.162 187.973C257.612 188.115 260.052 188.399 262.469 188.824C263.327 188.983 263.984 189.114 264.434 189.218L264.939 189.336C265.022 189.357 265.07 189.377 265.07 189.384Z" fill="black"/>
<path d="M265.707 158.332C265.645 158.725 265.557 159.113 265.444 159.495C265.336 159.949 265.202 160.397 265.043 160.837C264.863 161.356 264.69 161.951 264.413 162.58C264.136 163.21 263.866 163.916 263.5 164.656C263.133 165.396 262.725 166.137 262.275 166.932C260.255 170.333 257.626 173.333 254.519 175.782C253.792 176.335 253.135 176.868 252.443 177.297C251.751 177.726 251.129 178.134 250.527 178.473C249.925 178.812 249.371 179.089 248.887 179.331C248.472 179.548 248.045 179.74 247.607 179.905C247.246 180.071 246.874 180.21 246.493 180.32C246.831 180.112 247.185 179.932 247.552 179.781C247.897 179.622 248.32 179.421 248.797 179.151C249.274 178.881 249.828 178.625 250.402 178.252C250.976 177.878 251.627 177.518 252.277 177.048C252.928 176.577 253.612 176.072 254.353 175.526C257.4 173.067 259.999 170.098 262.033 166.753C262.483 165.971 262.925 165.237 263.271 164.518C263.617 163.798 263.963 163.134 264.219 162.497C264.475 161.861 264.697 161.293 264.911 160.788C265.126 160.283 265.25 159.834 265.361 159.474C265.443 159.084 265.559 158.702 265.707 158.332Z" fill="black"/>
<path d="M264.662 199.576C264.474 199.576 264.287 199.559 264.102 199.527L263.41 199.437C263.147 199.403 262.835 199.437 262.496 199.389C260.54 199.342 258.59 199.644 256.74 200.282C255.464 200.72 254.222 201.252 253.024 201.873C251.653 202.596 250.32 203.39 249.032 204.253C246.306 206.073 243.456 208.301 240.397 210.549L224.788 222.138L220.021 225.598L218.714 226.497C218.568 226.615 218.41 226.717 218.243 226.802C218.375 226.672 218.516 226.552 218.665 226.442L219.931 225.459L224.629 221.896L240.197 210.259C243.255 208.017 246.105 205.789 248.866 203.976C250.167 203.113 251.514 202.321 252.9 201.603C254.119 200.989 255.381 200.467 256.678 200.039C258.558 199.416 260.539 199.149 262.517 199.251C262.863 199.251 263.174 199.285 263.437 199.327L264.129 199.451C264.31 199.477 264.488 199.519 264.662 199.576Z" fill="black"/>
<path d="M286.989 220.789C286.855 220.475 286.753 220.148 286.685 219.814C286.519 219.184 286.284 218.264 285.951 217.143C285.578 215.828 285.104 214.545 284.533 213.303C283.839 211.792 282.892 210.411 281.731 209.221C280.576 208.026 279.132 207.151 277.538 206.682C276.227 206.33 274.864 206.211 273.511 206.329C272.259 206.469 271.016 206.682 269.789 206.965C269.863 206.916 269.945 206.878 270.031 206.855C270.197 206.792 270.439 206.709 270.723 206.619C271.626 206.351 272.553 206.17 273.491 206.08C274.88 205.917 276.287 206.014 277.642 206.363C279.298 206.832 280.802 207.729 282.001 208.965C283.192 210.185 284.157 211.607 284.851 213.165C285.419 214.428 285.881 215.735 286.235 217.074C286.533 218.208 286.733 219.149 286.858 219.786C286.931 220.116 286.975 220.452 286.989 220.789Z" fill="black"/>
<path d="M274.715 91.6565C288.319 91.0245 298.835 79.4838 298.203 65.8797C297.571 52.2756 286.03 41.7597 272.426 42.3917C258.822 43.0238 248.306 54.5644 248.938 68.1685C249.57 81.7726 261.111 92.2886 274.715 91.6565Z" fill="white"/>
<path d="M259.853 95.5223C260.081 95.4582 260.312 95.405 260.545 95.3632C261.211 95.2807 261.886 95.4089 262.476 95.7299C262.881 95.9409 263.236 96.2386 263.513 96.6017C263.822 97.0238 264.002 97.5259 264.032 98.0477C264.097 98.6479 263.977 99.2535 263.687 99.7831C263.397 100.313 262.952 100.741 262.412 101.01C261.872 101.279 261.262 101.376 260.664 101.288C260.067 101.2 259.511 100.931 259.071 100.518C258.675 100.179 258.383 99.7354 258.227 99.2378C258.1 98.7879 258.074 98.3152 258.151 97.854C258.253 97.1901 258.558 96.5739 259.023 96.0897C259.355 95.7507 259.597 95.633 259.584 95.6123C259.522 95.6311 259.464 95.659 259.411 95.6953C259.34 95.7314 259.273 95.773 259.21 95.8198C259.123 95.8842 259.04 95.9535 258.961 96.0274C258.534 96.4354 258.224 96.9503 258.064 97.5185C257.903 98.0866 257.897 98.6875 258.048 99.2585C258.201 99.7965 258.509 100.278 258.933 100.642C259.395 101.053 259.963 101.326 260.573 101.431C261.229 101.57 261.913 101.482 262.513 101.183C263.113 100.884 263.595 100.391 263.88 99.7844C264.162 99.2337 264.286 98.6161 264.24 97.9993C264.202 97.4401 264.003 96.904 263.666 96.4564C263.371 96.071 262.989 95.7605 262.552 95.55C261.93 95.2289 261.221 95.1195 260.531 95.2387C260.425 95.2542 260.321 95.2797 260.22 95.3148C260.141 95.3348 260.065 95.3627 259.992 95.3978C259.909 95.4739 259.846 95.5223 259.853 95.5223Z" fill="#263238"/>
<path d="M253.038 81.0549L252.838 80.7021L252.229 79.6919C252.097 79.4636 251.945 79.2145 251.779 78.9446C251.613 78.6748 251.488 78.3427 251.322 77.9968C251.156 77.6508 250.983 77.3049 250.797 76.8897C250.695 76.6894 250.609 76.4811 250.541 76.267C250.464 76.0456 250.381 75.8242 250.298 75.5751C249.46 73.3308 248.968 70.9723 248.838 68.5801C248.647 65.4119 249.065 62.2365 250.07 59.2258L250.506 57.9665C250.679 57.5445 250.88 57.1363 251.066 56.7142C251.156 56.5066 251.253 56.2991 251.35 56.0846C251.438 55.8682 251.544 55.6599 251.668 55.4619L252.36 54.2234C252.478 54.0158 252.595 53.8083 252.72 53.6007L253.149 53.0057L254.014 51.8018C254.311 51.4074 254.664 51.0407 254.996 50.6532L255.501 50.079C255.584 49.989 255.667 49.8852 255.757 49.7953L256.041 49.5324C256.783 48.7866 257.576 48.0931 258.414 47.4567C258.843 47.1454 259.258 46.7648 259.715 46.495L261.099 45.644C261.334 45.5056 261.562 45.3464 261.791 45.2219L262.545 44.8621C263.05 44.6269 263.548 44.364 264.067 44.1702C265.134 43.7458 266.227 43.3899 267.34 43.1047L268.184 42.8902L268.613 42.7864L269.049 42.7242L270.799 42.4613C271.394 42.399 271.989 42.3852 272.591 42.3506C272.889 42.3506 273.193 42.3021 273.497 42.3506L274.404 42.3921C275.631 42.437 276.854 42.5641 278.064 42.7726L279.884 43.2085L280.34 43.3192C280.492 43.3607 280.638 43.4161 280.79 43.4645L281.683 43.7759L282.582 44.0803L283.454 44.4677L284.326 44.869L284.761 45.0628C284.907 45.1389 285.038 45.2219 285.183 45.3049L286.858 46.2667L288.449 47.4014C292.72 50.6015 295.829 55.1078 297.305 60.2359C297.471 60.8655 297.631 61.5021 297.79 62.1248L298.08 64.0413L298.149 64.5187V64.9961L298.198 65.9509L298.246 66.9058L298.205 67.8536L298.163 68.8015V69.272L298.101 69.7356C298.011 70.3583 297.928 70.9741 297.845 71.5899C297.6 72.7958 297.274 73.9839 296.869 75.1462L296.579 76.0041C296.482 76.2947 296.337 76.5576 296.219 76.8344C295.963 77.381 295.742 77.9345 295.465 78.4603C295.188 78.9862 294.877 79.4912 294.586 80.0032L294.365 80.3838C294.282 80.5083 294.192 80.6259 294.109 80.7436L293.604 81.4355C292.936 82.3675 292.208 83.255 291.424 84.0923C291.03 84.5005 290.608 84.8672 290.207 85.2547L289.591 85.822C289.39 86.0088 289.155 86.168 288.94 86.334L287.64 87.3304C287.197 87.6417 286.719 87.9046 286.256 88.1883C285.369 88.7412 284.444 89.2314 283.488 89.6551L283.142 89.8212L282.783 89.9595L282.091 90.2155C281.606 90.3816 281.143 90.5822 280.665 90.7206L279.226 91.0873L278.534 91.2672L277.843 91.3779L276.459 91.5924C276.23 91.6326 275.999 91.6557 275.767 91.6616H275.075C274.618 91.6616 274.162 91.7239 273.691 91.7308L272.356 91.6754C269.186 91.5195 266.075 90.7536 263.195 89.4199C262.877 89.2746 262.559 89.1431 262.254 88.9978L261.396 88.4997L260.566 88.0292C260.428 87.9461 260.289 87.877 260.165 87.7939L259.798 87.531L258.414 86.5347C257.978 86.2026 257.605 85.8428 257.224 85.5245L256.684 85.054C256.511 84.9101 256.347 84.7553 256.193 84.5905L255.259 83.7602C255.003 83.4835 254.754 83.2344 254.567 82.9922L254.035 82.3003L253.343 81.3663C253.184 81.1587 253.094 81.0549 253.094 81.0549L253.329 81.3801C253.488 81.6015 253.723 81.9129 254.021 82.328L254.54 83.0199C254.747 83.269 254.996 83.518 255.232 83.7948L256.062 84.7012C256.214 84.87 256.378 85.0273 256.553 85.1717L257.093 85.6491C257.466 85.9673 257.84 86.341 258.276 86.6661L259.66 87.6763L260.026 87.9392C260.158 88.0292 260.296 88.0984 260.428 88.1814L261.258 88.6588L262.123 89.1639L263.064 89.5928C265.956 90.9466 269.083 91.7267 272.273 91.8899L273.615 91.9522C274.065 91.9522 274.528 91.9107 274.999 91.8899L275.691 91.8484C275.923 91.8475 276.154 91.8267 276.383 91.7861L277.801 91.5716L278.493 91.461L279.185 91.2811L280.638 90.9144C281.115 90.776 281.586 90.5822 282.07 90.4162L282.796 90.1533C282.914 90.1048 283.039 90.0702 283.156 90.0149L283.509 89.8488C284.48 89.4223 285.421 88.9299 286.325 88.3751C286.782 88.0914 287.259 87.8285 287.709 87.5172L289.023 86.5139C289.245 86.341 289.473 86.1887 289.715 86.0019L290.331 85.4277C290.732 85.0402 291.168 84.6666 291.563 84.2584C292.353 83.4142 293.088 82.5198 293.763 81.5808C293.929 81.3386 294.102 81.1034 294.275 80.8889C294.358 80.7712 294.448 80.6536 294.531 80.5291L294.752 80.1416L295.645 78.5918C295.922 78.059 296.15 77.4986 296.406 76.952C296.524 76.6683 296.676 76.3985 296.773 76.1148L297.063 75.243C297.473 74.0725 297.801 72.875 298.046 71.659C298.136 71.0433 298.226 70.4136 298.309 69.7909L298.378 69.3205V68.843L298.419 67.8952L298.461 66.9334L298.412 65.9717L298.357 65.01V64.5187L298.281 64.0413L297.99 62.111C297.831 61.4744 297.672 60.8379 297.506 60.2013C296.046 55.0129 292.925 50.4462 288.622 47.2007L287.017 46.0522L285.322 45.0835C285.183 45.0005 285.045 44.9175 284.9 44.8414L284.457 44.6407L283.578 44.2394L282.7 43.852L281.793 43.5406L280.887 43.2293L280.437 43.077L279.974 42.9733C279.365 42.821 278.749 42.6757 278.14 42.5374C276.919 42.3232 275.684 42.1937 274.445 42.1499L273.532 42.1084C273.228 42.1084 272.923 42.1084 272.619 42.1084C272.01 42.1499 271.408 42.1568 270.813 42.2191L269.042 42.4889L268.606 42.5581C268.46 42.5581 268.315 42.6273 268.177 42.6619L267.319 42.8833C266.198 43.1666 265.098 43.5249 264.025 43.9557C263.5 44.1771 262.995 44.447 262.483 44.6822L261.728 45.0489C261.479 45.1735 261.251 45.3326 261.036 45.4779L259.653 46.3359C259.196 46.6403 258.774 46.9931 258.345 47.3114C257.501 47.9479 256.701 48.6414 255.951 49.3871L255.667 49.6569C255.577 49.7469 255.494 49.8506 255.411 49.9475C255.328 50.0444 255.072 50.335 254.899 50.5218C254.567 50.9162 254.208 51.2829 253.917 51.6772L253.045 52.895L252.616 53.4969C252.492 53.7045 252.374 53.919 252.256 54.1265L251.565 55.3719C251.444 55.5733 251.34 55.7838 251.253 56.0016L250.963 56.6381C250.776 57.0602 250.575 57.4753 250.409 57.8973C250.243 58.3194 250.118 58.7484 249.973 59.1704C248.969 62.2001 248.561 65.3953 248.769 68.5801C248.907 70.9841 249.414 73.3526 250.271 75.6028L250.52 76.2947C250.588 76.5088 250.674 76.7171 250.776 76.9174L251.315 78.0244C251.488 78.3635 251.627 78.6817 251.786 78.9654L252.243 79.7057L252.872 80.709C252.955 80.9373 253.038 81.0549 253.038 81.0549Z" fill="#263238"/>
<path d="M261.12 67.6461L264.773 63.9929L271.816 70.2545L285.64 56.9495L289.03 60.6026L271.297 77.298L261.12 67.6461Z" fill="#FB923C"/>
</svg>
