<svg width="572" height="571" viewBox="0 0 572 571" fill="none" xmlns="http://www.w3.org/2000/svg">
<path d="M480.442 91.3999C487.28 95.6275 495.161 97.8669 503.201 97.8669C511.241 97.8669 519.122 95.6275 525.96 91.3999C533.97 86.4484 540.146 79.02 543.552 70.2412C546.959 61.4624 547.409 51.8123 544.835 42.7544C542.261 33.6965 536.804 25.7251 529.29 20.0491C521.777 14.3731 512.617 11.3022 503.201 11.3022C493.785 11.3022 484.625 14.3731 477.112 20.0491C469.598 25.7251 464.141 33.6965 461.567 42.7544C458.993 51.8123 459.443 61.4624 462.85 70.2412C466.256 79.02 472.432 86.4484 480.442 91.3999Z" fill="#EBEBEB"/>
<path d="M490.026 49.6316C490.026 52.2388 490.799 54.7874 492.247 56.9551C493.696 59.1229 495.754 60.8125 498.163 61.8102C500.572 62.8079 503.222 63.0689 505.779 62.5603C508.336 62.0517 510.685 60.7962 512.529 58.9527C514.372 57.1092 515.628 54.7604 516.136 52.2033C516.645 49.6463 516.384 46.9958 515.386 44.5871C514.388 42.1785 512.699 40.1197 510.531 38.6713C508.363 37.2228 505.815 36.4497 503.208 36.4497C501.476 36.4479 499.761 36.7876 498.161 37.4494C496.561 38.1112 495.107 39.0821 493.882 40.3065C492.658 41.531 491.687 42.9848 491.025 44.585C490.364 46.1851 490.024 47.9001 490.026 49.6316Z" fill="white"/>
<path d="M480.442 85.9687V91.3999C487.281 95.6275 495.162 97.8668 503.201 97.8668C511.241 97.8668 519.122 95.6275 525.961 91.3999V85.9826C526.036 82.9465 525.502 79.9261 524.392 77.0992C523.282 74.2723 521.618 71.6961 519.497 69.5222C517.376 67.3483 514.842 65.6208 512.043 64.4412C509.245 63.2617 506.238 62.6541 503.201 62.6541C500.164 62.6541 497.158 63.2617 494.359 64.4412C491.561 65.6208 489.026 67.3483 486.906 69.5222C484.785 71.6961 483.12 74.2723 482.01 77.0992C480.9 79.9261 480.367 82.9465 480.442 85.9826V85.9687Z" fill="white"/>
<path d="M116.272 93.2501C121.84 79.2502 115.005 63.3869 101.005 57.8185C87.0054 52.2501 71.1421 59.0852 65.5737 73.0851C60.0053 87.085 66.8404 102.948 80.8403 108.517C94.8402 114.085 110.703 107.25 116.272 93.2501Z" fill="#EBEBEB"/>
<path d="M104.833 86.5521C100.665 94.8863 90.9422 99.8034 90.9422 99.8034C90.9422 99.8034 81.1356 94.8724 77.0518 86.5521C73.6209 79.6069 75.7878 72.1339 81.2189 70.4948C88.9836 68.1473 90.9422 81.6765 90.9422 81.6765C90.9422 81.6765 92.9285 68.1473 100.665 70.4948C106.097 72.1339 108.263 79.6902 104.833 86.5521Z" fill="white"/>
<path d="M525.141 329.913C537.014 310.53 530.926 285.191 511.543 273.318C492.16 261.445 466.822 267.533 454.949 286.916C443.076 306.299 449.163 331.637 468.546 343.51C487.929 355.383 513.267 349.296 525.141 329.913Z" fill="#EBEBEB"/>
<path d="M508.666 319.354C499.082 329.564 482.775 332.425 482.775 332.425C482.775 332.425 470.76 321.035 468.426 307.242C466.495 295.727 472.899 285.851 481.427 285.837C493.679 285.837 490.665 306.228 490.665 306.228C490.665 306.228 499.429 287.559 509.639 294.338C516.751 299.061 516.64 310.826 508.666 319.354Z" fill="white"/>
<path fill-rule="evenodd" clip-rule="evenodd" d="M40.9646 240.401C39.2422 239.332 37.7559 237.776 35.4084 238.012C34.5334 238.095 34.7278 237.373 34.7139 236.887C34.7139 228.275 34.6815 219.672 34.6167 211.079C34.6167 210.44 34.6167 209.926 35.3251 209.592C41.8952 206.245 44.715 199.716 48.7293 194.133C50.7845 191.357 52.2605 188.197 53.0695 184.839C53.8784 181.482 54.0038 177.996 53.4381 174.589C53.1464 172.644 54.0493 171.811 55.7995 171.38C57.8969 170.894 59.9666 171.464 60.7167 172.908C62.6187 176.417 63.9015 180.228 64.5087 184.173C64.8976 187.437 63.7309 190.618 63.3419 193.896C63.0502 196.272 62.5085 198.605 62.064 200.994C62.6474 201.411 63.3141 201.203 63.9253 201.203L85.747 201.133C88.8029 201.133 90.317 202.008 90.7476 204.036C90.9684 205.264 90.791 206.53 90.2412 207.649C89.6914 208.769 88.7981 209.683 87.6917 210.259C87.15 210.523 86.1638 210.259 86.1082 211.134C86.0526 212.009 87.0527 211.912 87.4972 212.259C90.1364 214.051 89.6641 217.816 86.6221 219.941C85.8998 220.469 84.4691 220.232 84.4414 221.33C84.4136 222.427 85.8304 222.177 86.3582 222.719C88.4973 224.816 87.4556 228.733 84.2747 230.331C83.8416 230.466 83.4191 230.633 83.0106 230.831C82.6495 231.067 82.2883 231.345 83.0106 231.845C86.1638 234.081 86.1082 237.206 83.0106 239.498L82.0661 240.193C80.9182 240.882 79.5777 241.179 78.2463 241.04L44.0343 241.165C43.4976 241.252 42.9489 241.229 42.4213 241.097C41.8938 240.966 41.3982 240.729 40.9646 240.401Z" fill="#EBEBEB"/>
<path fill-rule="evenodd" clip-rule="evenodd" d="M8.51667 225.33C8.51667 219.871 8.51667 214.399 8.51667 208.926C8.51667 207.815 8.6139 207.273 9.90571 207.273C16.587 207.342 23.2404 207.273 29.9078 207.273C31.2968 207.273 31.4218 207.704 31.4218 208.87C31.4218 219.871 31.4635 230.877 31.5469 241.888C31.5469 243.277 31.1718 243.68 29.7689 243.666C23.296 243.666 16.8231 243.666 10.3224 243.735C8.71114 243.735 8.48889 243.207 8.50278 241.79C8.51667 236.276 8.51667 230.803 8.51667 225.33Z" fill="#EBEBEB"/>
<path fill-rule="evenodd" clip-rule="evenodd" d="M534.961 418.906C533.961 418.281 533.086 417.364 531.738 417.517C531.224 417.517 531.335 417.142 531.321 416.864C531.321 411.808 531.321 406.752 531.321 401.696C531.291 401.525 531.315 401.349 531.39 401.192C531.464 401.035 531.586 400.905 531.738 400.821C535.6 398.863 537.294 395.029 539.614 391.751C540.823 390.12 541.692 388.262 542.169 386.289C542.646 384.316 542.722 382.267 542.392 380.263C542.225 379.124 542.753 378.624 543.781 378.388C544.294 378.205 544.853 378.193 545.373 378.353C545.894 378.513 546.349 378.837 546.67 379.277C547.787 381.341 548.538 383.583 548.893 385.903C548.887 387.817 548.658 389.723 548.212 391.584C548.032 392.973 547.712 394.362 547.462 395.751C547.795 395.987 548.198 395.862 548.559 395.862H561.366C563.172 395.862 564.047 396.362 564.297 397.557C564.44 398.292 564.337 399.054 564.003 399.725C563.669 400.395 563.123 400.937 562.45 401.266C562.13 401.432 561.561 401.266 561.519 401.779C561.477 402.293 562.075 402.238 562.38 402.446C563.922 403.502 563.644 405.683 561.866 406.961C561.436 407.266 560.602 407.127 560.575 407.752C560.547 408.377 561.352 408.252 561.7 408.6C561.978 408.954 562.169 409.369 562.258 409.811C562.347 410.252 562.331 410.709 562.212 411.143C562.094 411.578 561.875 411.978 561.574 412.313C561.272 412.648 560.897 412.908 560.477 413.072C560.222 413.155 559.971 413.252 559.727 413.364C559.519 413.517 559.311 413.67 559.727 413.961C561.575 415.281 561.547 417.114 559.727 418.462L559.172 418.865C558.503 419.275 557.716 419.451 556.935 419.365C550.231 419.365 543.531 419.388 536.836 419.434C536.504 419.484 536.165 419.462 535.842 419.371C535.519 419.28 535.218 419.122 534.961 418.906Z" fill="#EBEBEB"/>
<path fill-rule="evenodd" clip-rule="evenodd" d="M515.82 410.058C515.82 406.85 515.82 403.627 515.82 400.418C515.82 399.765 515.82 399.446 516.681 399.46C520.598 399.46 524.515 399.46 528.432 399.46C529.196 399.46 529.321 399.71 529.321 400.391C529.321 406.873 529.321 413.355 529.321 419.837C529.321 420.67 529.099 420.893 528.28 420.893C524.474 420.893 520.682 420.893 516.876 420.893C515.931 420.893 515.806 420.573 515.806 419.754C515.876 416.489 515.834 413.267 515.82 410.058Z" fill="#EBEBEB"/>
<path d="M72.9404 393.251H67.926C67.1764 393.266 66.4315 393.13 65.7362 392.849C65.0408 392.569 64.4094 392.151 63.8799 391.62C63.3504 391.089 62.9338 390.457 62.6552 389.761C62.3766 389.065 62.2417 388.319 62.2588 387.57C62.2661 386.069 62.8655 384.632 63.9267 383.571C64.988 382.509 66.4252 381.91 67.926 381.903H74.8712L78.1354 362.942H71.8431C70.34 362.942 68.8985 362.345 67.8357 361.282C66.7729 360.22 66.1758 358.778 66.1758 357.275C66.1758 355.772 66.7729 354.331 67.8357 353.268C68.8985 352.205 70.34 351.608 71.8431 351.608H80.1773L82.3442 338.634C82.5566 337.298 83.2496 336.084 84.2931 335.223C85.3366 334.361 86.6588 333.909 88.0115 333.953C88.8383 333.966 89.6529 334.156 90.4009 334.508C91.1489 334.861 91.8131 335.369 92.3494 335.999C92.8856 336.628 93.2815 337.365 93.5108 338.159C93.74 338.954 93.7972 339.788 93.6787 340.607L91.7341 351.608H108.805L110.986 338.634C111.2 337.278 111.91 336.049 112.977 335.184C114.044 334.32 115.393 333.881 116.764 333.953C117.586 333.971 118.393 334.164 119.134 334.52C119.874 334.876 120.529 335.386 121.055 336.016C121.582 336.647 121.967 337.383 122.185 338.174C122.404 338.966 122.45 339.796 122.321 340.607L120.459 351.608H125.501C126.999 351.619 128.431 352.22 129.487 353.281C130.543 354.343 131.137 355.778 131.141 357.275C131.12 358.767 130.519 360.192 129.467 361.249C128.415 362.307 126.993 362.914 125.501 362.942H118.556L115.292 381.903H121.487C122.234 381.895 122.975 382.037 123.667 382.319C124.358 382.601 124.987 383.018 125.516 383.545C126.045 384.073 126.463 384.7 126.747 385.391C127.031 386.082 127.174 386.823 127.168 387.57C127.161 389.074 126.56 390.515 125.496 391.579C124.432 392.643 122.992 393.244 121.487 393.251H113.32L111.028 406.641C110.815 407.978 110.122 409.191 109.079 410.053C108.035 410.915 106.713 411.366 105.36 411.322C104.531 411.325 103.712 411.149 102.957 410.806C102.202 410.463 101.53 409.961 100.987 409.335C100.444 408.709 100.042 407.973 99.8091 407.177C99.5763 406.381 99.5178 405.545 99.6377 404.724L101.721 393.279H84.5944L82.3164 406.669C82.0692 408 81.356 409.199 80.3048 410.052C79.2535 410.905 77.9329 411.355 76.5797 411.322C75.7535 411.337 74.9344 411.167 74.1821 410.825C73.4299 410.483 72.7633 409.978 72.231 409.346C71.6988 408.714 71.3142 407.971 71.1053 407.172C70.8964 406.372 70.8685 405.536 71.0236 404.724L72.9404 393.251ZM103.583 381.903L106.861 362.942H89.845L86.5669 381.903H103.583Z" fill="#EBEBEB"/>
<path d="M430.506 260.904H426.505C425.91 260.908 425.32 260.793 424.77 260.567C424.22 260.34 423.72 260.006 423.3 259.585C422.88 259.164 422.548 258.663 422.323 258.112C422.098 257.561 421.985 256.971 421.991 256.376C421.998 255.181 422.476 254.037 423.321 253.192C424.166 252.347 425.31 251.869 426.505 251.861H432.061L434.673 236.749H429.617C428.461 236.685 427.374 236.18 426.578 235.339C425.782 234.499 425.339 233.385 425.339 232.227C425.339 231.07 425.782 229.956 426.578 229.115C427.374 228.274 428.461 227.77 429.617 227.706H436.242L437.951 217.372C438.123 216.305 438.677 215.337 439.51 214.649C440.344 213.962 441.399 213.601 442.479 213.635C443.138 213.646 443.787 213.797 444.383 214.079C444.98 214.36 445.509 214.765 445.936 215.268C446.363 215.77 446.678 216.357 446.861 216.99C447.043 217.624 447.088 218.289 446.994 218.941L445.452 227.706H459.078L460.814 217.372C460.99 216.294 461.556 215.318 462.403 214.629C463.25 213.941 464.321 213.587 465.412 213.635C466.067 213.651 466.71 213.807 467.3 214.091C467.89 214.375 468.413 214.782 468.833 215.284C469.254 215.786 469.563 216.372 469.739 217.002C469.916 217.633 469.956 218.294 469.857 218.941L468.371 227.706H472.455C473.651 227.713 474.795 228.194 475.639 229.042C476.482 229.891 476.955 231.038 476.955 232.234C476.937 233.424 476.458 234.559 475.618 235.402C474.778 236.244 473.644 236.727 472.455 236.749H466.898L464.218 251.931H469.163C469.758 251.925 470.348 252.038 470.899 252.263C471.45 252.488 471.95 252.82 472.372 253.24C472.793 253.66 473.127 254.16 473.353 254.71C473.58 255.26 473.694 255.85 473.691 256.445C473.687 257.645 473.209 258.795 472.36 259.643C471.512 260.491 470.362 260.97 469.163 260.973H462.648L460.828 271.641C460.648 272.704 460.092 273.667 459.26 274.353C458.429 275.039 457.378 275.403 456.3 275.378C455.641 275.375 454.99 275.231 454.391 274.954C453.793 274.677 453.262 274.274 452.833 273.773C452.405 273.272 452.089 272.685 451.908 272.051C451.728 271.417 451.686 270.751 451.786 270.099L453.439 260.973H439.798L437.965 271.641C437.778 272.711 437.212 273.678 436.37 274.365C435.528 275.051 434.467 275.411 433.381 275.378C432.721 275.387 432.068 275.25 431.467 274.976C430.867 274.701 430.336 274.297 429.912 273.791C429.487 273.286 429.181 272.692 429.015 272.054C428.848 271.415 428.826 270.748 428.95 270.099L430.506 260.904ZM454.925 251.931L457.536 236.818H443.979L441.368 251.931H454.925Z" fill="#EBEBEB"/>
<path d="M286.324 570.061C443.949 570.061 571.729 553.599 571.729 533.293C571.729 512.987 443.949 496.525 286.324 496.525C128.699 496.525 0.918945 512.987 0.918945 533.293C0.918945 553.599 128.699 570.061 286.324 570.061Z" fill="#EBEBEB"/>
<path d="M83.3305 332.634C81.8122 338.163 80.8124 343.823 80.3441 349.538C80.4969 349.816 80.4552 350.927 80.3441 350.58C80.3441 351.511 78.9551 351.344 78.9551 350.427C78.9551 349.83 78.9551 349.233 78.9551 348.649C75.6491 344.551 70.857 341.954 66.9816 338.384C63.8545 335.591 61.5816 331.969 60.4253 327.939C57.2028 316.826 60.217 305.117 56.3555 294.06C53.0218 284.531 47.035 276.239 41.979 267.668C36.6312 258.529 32.6863 248.93 32.2557 238.235C31.9362 230.053 32.9225 219.136 39.2009 212.996C45.8127 206.482 54.008 211.371 59.0641 217.163C73.7462 234.012 80.5386 255.292 83.2888 277.072C84.8029 289.115 86.3725 301.241 86.0669 313.395C85.7951 319.883 84.8785 326.328 83.3305 332.634Z" fill="#FB923C"/>
<path d="M80.3996 353.955C81.2032 342.587 81.0685 331.172 79.9968 319.827C80.0096 319.786 80.0096 319.742 79.9968 319.702C80.1913 310.478 80.9136 301.283 80.5524 292.046C80.1327 282.06 78.803 272.134 76.5798 262.39C76.5798 262.279 76.3714 262.307 76.3992 262.39C78.196 271.963 79.2686 281.658 79.6079 291.393C79.8023 296.616 79.7607 301.829 79.4829 307.034C79.3995 308.728 79.2328 310.437 79.1217 312.145C75.2839 286.243 65.9234 261.468 51.6744 239.499C51.4799 239.207 50.9521 239.499 51.1327 239.832C61.3151 256.528 68.8541 274.698 73.4822 293.699C66.3982 280.628 55.7443 269.877 47.8268 257.306C47.8268 257.237 47.6601 257.306 47.7018 257.306C54.7997 271.308 66.551 282.309 74.0934 296.116C75.3991 301.746 76.4501 307.413 77.2465 313.118C78.3086 320.945 78.8792 328.832 78.955 336.731C74.649 328.702 70.1902 321.007 66.676 312.506C66.5787 312.284 66.2593 312.506 66.3287 312.659C69.329 321.493 73.3433 331.008 78.9828 338.537C78.9828 344.093 78.8254 349.682 78.5105 355.303C77.6354 370.193 75.0935 384.903 73.9128 399.752C73.9159 399.834 73.9483 399.913 74.0042 399.974C74.06 400.034 74.1357 400.073 74.2176 400.083C74.2996 400.093 74.3824 400.074 74.4513 400.028C74.5201 399.983 74.5705 399.914 74.5935 399.835C77.5664 384.691 79.5063 369.362 80.3996 353.955Z" fill="#263238"/>
<path d="M64.5784 239.041C64.5784 238.929 64.3701 239.041 64.4118 239.11C67.1898 246.639 68.6761 254.264 70.6346 261.987C70.656 262.054 70.7008 262.111 70.7609 262.148C70.821 262.185 70.8923 262.198 70.9617 262.186C71.031 262.175 71.0937 262.138 71.1383 262.084C71.1829 262.029 71.2062 261.96 71.2041 261.89C70.3985 254.07 67.6065 246.25 64.5784 239.041Z" fill="#263238"/>
<path d="M133.697 270.585C131.879 274.999 129.786 279.295 127.432 283.448C122.529 292.352 117.417 300.505 116.501 310.867C116.084 315.493 115.931 320.146 114.528 324.605C113.237 328.436 111.393 332.058 109.055 335.356C103.735 343.093 97.0957 349.76 92.1785 357.789C87.0579 366.161 83.2758 375.281 80.969 384.82C80.844 385.347 80.0245 385.209 80.1495 384.681C80.1495 384.681 80.1495 384.611 80.1495 384.57C80.1495 384.528 80.1495 384.57 80.1495 384.458C79.3716 362.234 81.1496 339.843 87.9281 318.549C90.9171 309.185 94.5131 300.026 98.6931 291.129C102.332 283.42 106.847 275.989 113.222 270.224C117.39 266.502 126.335 259.445 132.224 263.182C135.016 264.974 134.808 267.807 133.697 270.585Z" fill="#FB923C"/>
<path d="M111.305 320.966C107.389 327.414 103.075 333.612 98.3874 339.523C96.2344 342.301 94.0537 345.079 91.9145 347.927C90.9006 349.316 89.7615 350.58 88.8309 352.01C89.4143 349.677 89.9838 347.329 90.5811 344.996C93.4425 333.772 96.1372 322.452 100.471 311.659C104.853 301.208 110.011 291.1 115.903 281.42C116.056 281.156 115.639 280.975 115.486 281.225C110.792 288.948 106.027 296.657 102.082 304.839C99.8991 309.38 97.9972 314.052 96.3872 318.826C98.1953 308.694 100.73 298.704 103.971 288.934C103.971 288.916 103.964 288.898 103.951 288.885C103.938 288.872 103.92 288.865 103.902 288.865C103.883 288.865 103.866 288.872 103.853 288.885C103.84 288.898 103.832 288.916 103.832 288.934C99.6222 298.786 96.9879 309.239 96.0261 319.91C95.1001 322.79 94.2065 325.702 93.3453 328.647C89.8449 341.148 86.7751 353.65 83.9276 366.248C83.8755 357.963 84.5916 349.69 86.0667 341.537C86.0667 341.343 85.8306 341.301 85.775 341.537C83.6091 350.038 82.886 358.842 83.6359 367.582C82.5525 372.388 81.5014 377.189 80.4828 381.986C78.302 392.223 75.6212 402.655 74.3433 413.059C74.3445 413.107 74.3623 413.153 74.3939 413.19C74.4254 413.226 74.4686 413.25 74.5161 413.259C74.5637 413.267 74.6126 413.258 74.6545 413.235C74.6964 413.211 74.7288 413.173 74.7461 413.128C76.274 407.572 77.1908 401.71 78.4409 396.029C79.691 390.348 80.9829 384.653 82.3024 378.972C84.2332 370.707 86.2612 362.456 88.3169 354.219C89.706 351.205 92.359 348.524 94.3454 345.982C96.54 343.204 98.7208 340.426 100.846 337.648C104.849 332.424 108.426 326.887 111.542 321.091C111.625 320.924 111.43 320.841 111.305 320.966Z" fill="#263238"/>
<path d="M112.306 311.464C107.417 317.705 103.181 324.431 99.6655 331.536C99.6655 331.633 99.7628 331.73 99.8183 331.633C104.083 324.966 108.264 318.257 112.5 311.589C112.584 311.464 112.389 311.353 112.306 311.464Z" fill="#263238"/>
<path d="M17.7126 291.657C20.5879 296.616 23.8799 302.575 22.6436 308.52C21.8519 312.298 19.1016 315.354 18.6015 319.202C17.4903 327.689 25.9495 333.3 32.0613 337.259C47.3406 347.26 68.2456 356.192 71.0237 376.638C71.1348 377.361 72.4127 377.18 72.2877 376.472C72.2942 376.425 72.2942 376.379 72.2877 376.333C72.2877 376.333 72.3711 376.333 72.3711 376.208C74.3611 365.888 74.2524 355.273 72.0516 344.996C69.7736 334.467 65.1758 324.994 59.7447 315.743C50.5632 300.075 40.84 284.031 26.9496 272.03C23.1159 268.71 15.2401 262.737 12.1842 270.238C9.21166 277.558 14.1844 285.615 17.7126 291.657Z" fill="#FB923C"/>
<path d="M31.6723 324.869C41.7983 335.829 57.8833 341.968 66.5926 354.233C61.7276 335.561 52.5341 318.297 39.7565 303.839C39.4231 303.45 39.9509 302.922 40.3121 303.27C49.6264 312.32 57.0777 323.108 62.2449 335.023C59.8322 326.707 56.6708 318.627 52.7995 310.881C52.6606 310.59 53.0773 310.326 53.244 310.618C58.0431 319.074 61.4791 328.233 63.4256 337.759C74.899 365.54 75.9269 398.127 73.5517 427.394C73.5517 427.81 72.8849 427.824 72.8988 427.394C73.5517 404.322 73.1766 380.847 67.6483 358.317C67.5371 357.845 67.4121 357.386 67.2871 356.928C57.8139 343.718 41.7983 337.593 31.5056 325.064C31.4084 324.925 31.5611 324.744 31.6723 324.869Z" fill="#263238"/>
<path d="M29.3524 315.465C34.6585 320.341 39.8813 325.313 45.2013 330.189C45.2013 330.189 45.2013 330.328 45.1318 330.286C39.1122 326.242 33.6886 321.375 29.019 315.826C28.9711 315.782 28.9427 315.721 28.9401 315.655C28.9375 315.59 28.9609 315.527 29.0051 315.479C29.0493 315.431 29.1107 315.403 29.1759 315.4C29.241 315.397 29.3045 315.421 29.3524 315.465Z" fill="#263238"/>
<path d="M28.4912 294.352C33.1883 302.057 38.5025 309.369 44.3817 316.215C44.4651 316.298 44.3817 316.423 44.2428 316.34C37.6519 310.071 32.2248 302.682 28.2134 294.518C28.2022 294.483 28.2034 294.444 28.2167 294.409C28.23 294.374 28.2547 294.345 28.2867 294.326C28.3188 294.307 28.3564 294.299 28.3934 294.303C28.4305 294.308 28.4649 294.325 28.4912 294.352Z" fill="#263238"/>
<path d="M52.3967 448.049H98.9155L92.6509 385.459H59.5642L52.3967 448.049Z" fill="#455A64"/>
<path d="M58.3972 395.64H93.6787L92.6508 385.459H59.564L58.3972 395.64Z" fill="#263238"/>
<path d="M53.8689 388.514H97.4707V378.527H53.8689V388.514Z" fill="#455A64"/>
<path d="M0.807861 448.048L72.1903 447.715L143.573 447.59L286.324 447.354L429.075 447.59L500.457 447.701L571.84 448.048L500.457 448.396L429.075 448.507L286.324 448.743L143.573 448.507L72.1903 448.382L0.807861 448.048Z" fill="#263238"/>
<path d="M407.559 0.737549H165.061C161.809 0.768411 158.594 1.43962 155.601 2.71285C152.608 3.98608 149.895 5.83639 147.618 8.15813C145.34 10.4799 143.541 13.2276 142.326 16.2443C141.11 19.261 140.5 22.4878 140.531 25.7402V524.959C140.472 531.527 143.022 537.849 147.622 542.537C152.221 547.225 158.494 549.896 165.061 549.962H407.559C414.13 549.899 420.408 547.231 425.012 542.543C429.617 537.855 432.173 531.53 432.117 524.959V25.7263C432.173 19.1564 429.617 12.8334 425.012 8.1475C420.406 3.46155 414.129 0.796239 407.559 0.737549ZM416.782 509.527C416.782 522.667 406.948 533.293 394.808 533.293H177.854C165.686 533.293 155.852 522.667 155.852 509.527V44.6449C155.852 17.8782 165.686 16.5725 177.854 16.5725H221.303C223.831 16.5725 225.901 19.4478 225.901 23.0038V24.5456C225.901 32.8798 230.457 32.8798 236.069 32.8798H336.565C342.219 32.8798 346.733 32.8798 346.733 24.5456V23.0038C346.733 19.4478 348.775 16.5725 351.345 16.5725H394.808C406.948 16.5725 416.782 20.1424 416.782 44.6449V509.527Z" fill="#263238"/>
<path d="M300.02 22.4901H272.614C272.391 22.4919 272.17 22.4494 271.963 22.3649C271.757 22.2803 271.569 22.1556 271.412 21.9979C271.254 21.8401 271.129 21.6526 271.045 21.4461C270.96 21.2397 270.918 21.0185 270.919 20.7955C270.919 20.346 271.098 19.915 271.416 19.5972C271.734 19.2794 272.165 19.1008 272.614 19.1008H300.02C300.469 19.1008 300.9 19.2794 301.218 19.5972C301.536 19.915 301.714 20.346 301.714 20.7955C301.716 21.0185 301.674 21.2397 301.589 21.4461C301.505 21.6526 301.38 21.8401 301.222 21.9979C301.064 22.1556 300.877 22.2803 300.67 22.3649C300.464 22.4494 300.243 22.4919 300.02 22.4901Z" fill="white"/>
<path d="M416.796 44.6449V509.527C416.796 522.667 406.947 533.293 394.807 533.293H177.854C165.686 533.293 155.852 522.667 155.852 509.527V44.6449C155.852 17.8782 165.686 16.5725 177.854 16.5725H221.303C223.831 16.5725 225.901 19.4478 225.901 23.0037V24.5456C225.901 32.8798 230.457 32.8798 236.068 32.8798H336.565C342.218 32.8798 346.747 32.8798 346.747 24.5456V23.0037C346.747 19.4478 348.775 16.5725 351.344 16.5725H394.807C406.947 16.5725 416.796 20.1423 416.796 44.6449Z" fill="white"/>
<path d="M416.782 44.6449V116.291H155.838V44.6449C155.838 17.8782 165.686 16.5725 177.854 16.5725H221.317C223.845 16.5725 225.901 19.4478 225.901 23.0037V24.5456C225.901 32.8798 230.471 32.8798 236.069 32.8798H336.565C342.219 32.8798 346.747 32.8798 346.747 24.5456V23.0037C346.747 19.4478 348.789 16.5725 351.358 16.5725H394.807C406.948 16.5725 416.782 20.1423 416.782 44.6449Z" fill="#FB923C"/>
<path d="M213.816 27.0182L213.386 27.4349C213.314 27.5204 213.235 27.5994 213.15 27.6711C212.077 26.5986 210.624 25.9943 209.108 25.9903C208.352 25.9861 207.604 26.1339 206.907 26.4251C206.21 26.7162 205.579 27.1447 205.052 27.6849C204.985 27.5997 204.91 27.5206 204.829 27.4488L204.413 27.0321C204.579 26.8654 204.76 26.7126 204.94 26.5598C205.316 26.2499 205.726 25.9842 206.163 25.7681C206.676 25.5114 207.223 25.329 207.788 25.2264C208.066 25.2264 208.33 25.1569 208.607 25.1152H209.316H209.872C210.385 25.1729 210.889 25.2942 211.372 25.4764C211.718 25.6055 212.052 25.7635 212.372 25.9487C212.718 26.1418 213.044 26.3699 213.344 26.6293L213.789 27.0182H213.816Z" fill="white"/>
<path d="M206.385 28.9907L205.76 28.2962C206.203 27.8518 206.729 27.4993 207.308 27.2587C207.887 27.0181 208.508 26.8943 209.135 26.8943C209.763 26.8943 210.384 27.0181 210.963 27.2587C211.542 27.4993 212.068 27.8518 212.511 28.2962L211.844 28.9629C211.481 28.5971 211.048 28.3088 210.57 28.1154C210.093 27.922 209.581 27.8275 209.066 27.8378C208.056 27.8566 207.093 28.2705 206.385 28.9907Z" fill="white"/>
<path d="M211.163 29.6851L210.497 30.3379C210.126 29.9737 209.627 29.7692 209.108 29.7684C208.849 29.7668 208.592 29.8177 208.353 29.9179C208.115 30.0182 207.899 30.1658 207.719 30.3518L207.052 29.6851C207.321 29.4146 207.642 29.2 207.995 29.0536C208.347 28.9072 208.726 28.8318 209.108 28.8318C209.489 28.8318 209.868 28.9072 210.22 29.0536C210.573 29.2 210.894 29.4146 211.163 29.6851Z" fill="white"/>
<path d="M209.705 30.9213C209.705 31.0797 209.642 31.2316 209.53 31.3436C209.418 31.4556 209.266 31.5185 209.108 31.5185C208.949 31.5185 208.797 31.4556 208.685 31.3436C208.573 31.2316 208.51 31.0797 208.51 30.9213C208.51 30.7629 208.573 30.6109 208.685 30.4989C208.797 30.3869 208.949 30.324 209.108 30.324C209.266 30.324 209.418 30.3869 209.53 30.4989C209.642 30.6109 209.705 30.7629 209.705 30.9213Z" fill="white"/>
<path d="M174.59 30.0043C175.541 30.0043 176.312 29.2331 176.312 28.2818C176.312 27.3306 175.541 26.5594 174.59 26.5594C173.639 26.5594 172.867 27.3306 172.867 28.2818C172.867 29.2331 173.639 30.0043 174.59 30.0043Z" fill="white"/>
<path d="M178.313 28.2961C178.313 27.9521 178.415 27.6158 178.606 27.33C178.798 27.0442 179.069 26.8216 179.388 26.6906C179.706 26.5596 180.055 26.5261 180.393 26.5942C180.73 26.6623 181.039 26.8291 181.281 27.0733C181.524 27.3175 181.688 27.6282 181.753 27.9659C181.819 28.3036 181.782 28.6532 181.649 28.9702C181.515 29.2872 181.291 29.5574 181.003 29.7465C180.716 29.9356 180.379 30.0351 180.035 30.0323C179.577 30.0287 179.139 29.8441 178.816 29.5189C178.493 29.1937 178.312 28.7541 178.313 28.2961Z" fill="white"/>
<path d="M185.494 30.0043C186.445 30.0043 187.216 29.2331 187.216 28.2818C187.216 27.3306 186.445 26.5594 185.494 26.5594C184.543 26.5594 183.771 27.3306 183.771 28.2818C183.771 29.2331 184.543 30.0043 185.494 30.0043Z" fill="white"/>
<path d="M189.202 28.2957C189.202 27.9523 189.304 27.6166 189.495 27.3311C189.686 27.0456 189.957 26.823 190.274 26.6916C190.591 26.5602 190.941 26.5258 191.277 26.5928C191.614 26.6598 191.924 26.8252 192.166 27.068C192.409 27.3108 192.575 27.6202 192.642 27.957C192.709 28.2938 192.674 28.6429 192.543 28.9602C192.411 29.2775 192.189 29.5486 191.903 29.7394C191.618 29.9302 191.282 30.032 190.939 30.032C190.478 30.032 190.037 29.8491 189.711 29.5235C189.385 29.1979 189.202 28.7562 189.202 28.2957Z" fill="white"/>
<path d="M194.647 28.2957C194.647 27.9523 194.749 27.6166 194.94 27.3311C195.131 27.0456 195.402 26.823 195.719 26.6916C196.037 26.5602 196.386 26.5258 196.722 26.5928C197.059 26.6598 197.369 26.8252 197.611 27.068C197.854 27.3108 198.02 27.6202 198.087 27.957C198.154 28.2938 198.119 28.6429 197.988 28.9602C197.856 29.2775 197.634 29.5486 197.348 29.7394C197.063 29.9302 196.727 30.032 196.384 30.032C195.923 30.032 195.482 29.8491 195.156 29.5235C194.83 29.1979 194.647 28.7562 194.647 28.2957Z" fill="white"/>
<path d="M397.196 32.0464H383.139V25.5179H397.196V32.0464ZM383.834 31.3519H396.502V26.2541H383.834V31.3519Z" fill="white"/>
<path d="M393.377 26.6431H384.306V30.9491H393.377V26.6431Z" fill="white"/>
<path d="M398.474 27.0599H397.224V30.5464H398.474V27.0599Z" fill="white"/>
<path d="M322.286 308.617H228.762V322.007H322.286V308.617Z" fill="#FB923C"/>
<path d="M343.538 308.617H330.148V322.007H343.538V308.617Z" fill="#DBDBDB"/>
<path d="M334.148 315.312C334.148 315.477 334.099 315.638 334.008 315.775C333.916 315.912 333.786 316.019 333.634 316.082C333.482 316.145 333.314 316.162 333.152 316.13C332.991 316.097 332.842 316.018 332.726 315.901C332.609 315.785 332.53 315.636 332.497 315.475C332.465 315.313 332.482 315.146 332.545 314.993C332.608 314.841 332.715 314.711 332.852 314.619C332.989 314.528 333.15 314.479 333.315 314.479C333.424 314.479 333.533 314.5 333.634 314.542C333.735 314.584 333.827 314.645 333.904 314.723C333.982 314.8 334.043 314.892 334.085 314.993C334.127 315.094 334.148 315.203 334.148 315.312Z" fill="#263238"/>
<path d="M337.718 315.312C337.718 315.477 337.669 315.638 337.578 315.775C337.486 315.912 337.356 316.019 337.204 316.082C337.051 316.145 336.884 316.162 336.722 316.13C336.56 316.097 336.412 316.018 336.295 315.901C336.179 315.785 336.099 315.636 336.067 315.475C336.035 315.313 336.052 315.146 336.115 314.993C336.178 314.841 336.285 314.711 336.422 314.619C336.559 314.528 336.72 314.479 336.885 314.479C336.994 314.479 337.103 314.5 337.204 314.542C337.305 314.584 337.397 314.645 337.474 314.723C337.551 314.8 337.613 314.892 337.655 314.993C337.697 315.094 337.718 315.203 337.718 315.312Z" fill="#263238"/>
<path d="M341.191 315.312C341.191 315.477 341.142 315.638 341.05 315.775C340.959 315.912 340.829 316.019 340.676 316.082C340.524 316.145 340.356 316.162 340.195 316.13C340.033 316.097 339.885 316.018 339.768 315.901C339.651 315.785 339.572 315.636 339.54 315.475C339.508 315.313 339.524 315.146 339.587 314.993C339.65 314.841 339.757 314.711 339.894 314.619C340.031 314.528 340.193 314.479 340.357 314.479C340.467 314.479 340.575 314.5 340.676 314.542C340.777 314.584 340.869 314.645 340.947 314.723C341.024 314.8 341.085 314.892 341.127 314.993C341.169 315.094 341.191 315.203 341.191 315.312Z" fill="#263238"/>
<path d="M175.118 68.6888L169.02 62.966L175.118 57.2571L176.076 58.2572L171.034 62.966L176.076 67.6887L175.118 68.6888Z" fill="white"/>
<path d="M402.072 60.605C402.732 60.605 403.267 60.0701 403.267 59.4104C403.267 58.7506 402.732 58.2158 402.072 58.2158C401.412 58.2158 400.878 58.7506 400.878 59.4104C400.878 60.0701 401.412 60.605 402.072 60.605Z" fill="white"/>
<path d="M402.072 64.8694C402.732 64.8694 403.267 64.3345 403.267 63.6748C403.267 63.0151 402.732 62.4802 402.072 62.4802C401.412 62.4802 400.878 63.0151 400.878 63.6748C400.878 64.3345 401.412 64.8694 402.072 64.8694Z" fill="white"/>
<path d="M403.281 67.9531C403.299 68.1217 403.281 68.2923 403.229 68.4537C403.177 68.6151 403.091 68.7638 402.978 68.89C402.865 69.0162 402.726 69.1171 402.571 69.1862C402.416 69.2552 402.249 69.2909 402.079 69.2909C401.909 69.2909 401.742 69.2552 401.587 69.1862C401.432 69.1171 401.293 69.0162 401.18 68.89C401.067 68.7638 400.981 68.6151 400.929 68.4537C400.877 68.2923 400.859 68.1217 400.878 67.9531C400.909 67.6567 401.05 67.3826 401.272 67.1834C401.493 66.9842 401.781 66.874 402.079 66.874C402.377 66.874 402.665 66.9842 402.887 67.1834C403.108 67.3826 403.249 67.6567 403.281 67.9531Z" fill="white"/>
<path d="M191.064 356.108C189.567 357.037 187.814 357.468 186.057 357.339C184.299 357.209 182.629 356.526 181.284 355.387C179.939 354.249 178.99 352.714 178.572 351.002C178.155 349.29 178.291 347.49 178.96 345.86C179.629 344.23 180.798 342.855 182.298 341.931C183.799 341.007 185.553 340.582 187.31 340.717C189.067 340.853 190.735 341.541 192.076 342.685C193.417 343.828 194.361 345.366 194.773 347.079C195.182 348.783 195.044 350.573 194.378 352.194C193.713 353.814 192.553 355.184 191.064 356.108Z" fill="#DBDBDB"/>
<path d="M189.23 348.121C189.23 348.621 189.082 349.11 188.804 349.526C188.527 349.942 188.132 350.266 187.67 350.457C187.208 350.648 186.7 350.698 186.209 350.601C185.719 350.503 185.268 350.262 184.915 349.909C184.561 349.555 184.32 349.105 184.223 348.615C184.125 348.124 184.175 347.616 184.367 347.154C184.558 346.692 184.882 346.297 185.298 346.019C185.714 345.742 186.202 345.593 186.702 345.593C187.373 345.593 188.016 345.86 188.49 346.334C188.964 346.808 189.23 347.451 189.23 348.121Z" fill="white"/>
<path d="M191.064 355.094V356.108C189.75 356.917 188.238 357.345 186.695 357.345C185.153 357.345 183.64 356.917 182.327 356.108V355.066C182.39 353.95 182.877 352.901 183.69 352.133C184.502 351.365 185.577 350.937 186.695 350.937C187.813 350.937 188.888 351.365 189.701 352.133C190.513 352.901 191.001 353.95 191.064 355.066V355.094Z" fill="white"/>
<path d="M390.501 343.607C390.648 343.61 390.787 343.67 390.89 343.773C390.994 343.877 391.053 344.016 391.057 344.162C391.057 344.31 390.998 344.451 390.894 344.555C390.79 344.659 390.649 344.718 390.501 344.718C390.429 344.718 390.357 344.703 390.291 344.675C390.224 344.647 390.164 344.606 390.113 344.554C390.063 344.503 390.023 344.441 389.997 344.374C389.97 344.307 389.958 344.235 389.96 344.162C389.96 344.017 390.016 343.878 390.117 343.774C390.219 343.67 390.356 343.61 390.501 343.607Z" fill="black"/>
<path d="M392.154 343.607C392.301 343.61 392.44 343.67 392.543 343.773C392.647 343.877 392.707 344.016 392.71 344.162C392.71 344.31 392.652 344.451 392.547 344.555C392.443 344.659 392.302 344.718 392.154 344.718C392.082 344.718 392.011 344.703 391.944 344.675C391.877 344.647 391.817 344.606 391.766 344.554C391.716 344.503 391.676 344.441 391.65 344.374C391.624 344.307 391.611 344.235 391.613 344.162C391.613 344.017 391.669 343.878 391.771 343.774C391.872 343.67 392.01 343.61 392.154 343.607Z" fill="black"/>
<path d="M393.849 343.607C393.995 343.61 394.135 343.67 394.238 343.773C394.341 343.877 394.401 344.016 394.405 344.162C394.417 344.242 394.413 344.323 394.391 344.4C394.369 344.478 394.331 344.549 394.279 344.61C394.226 344.672 394.162 344.721 394.089 344.754C394.016 344.788 393.936 344.805 393.856 344.805C393.776 344.805 393.696 344.788 393.623 344.754C393.55 344.721 393.485 344.672 393.433 344.61C393.381 344.549 393.343 344.478 393.321 344.4C393.299 344.323 393.295 344.242 393.307 344.162C393.311 344.018 393.368 343.881 393.469 343.778C393.569 343.675 393.705 343.614 393.849 343.607Z" fill="black"/>
<path d="M179.382 366.581L206.357 366.331L228.665 366.178L273.281 366.067L294.533 366.178L316.827 366.331L339.135 366.581L316.827 366.831L294.533 366.97L273.281 367.095L228.665 366.97L206.357 366.831L179.382 366.581Z" fill="#263238"/>
<path d="M179.368 371.304C191.953 371.096 209.927 370.999 222.581 370.915L260.349 370.79L298.131 370.915L308.715 371.304L298.131 371.707L260.349 371.818L222.581 371.707C209.996 371.624 191.967 371.526 179.368 371.304Z" fill="#263238"/>
<path d="M179.368 376.763C193.092 376.555 212.705 376.457 226.456 376.374L267.627 376.249L308.785 376.374L320.327 376.763L308.785 377.166L267.627 377.291L226.456 377.166C212.705 377.082 193.106 376.944 179.368 376.763Z" fill="#263238"/>
<path d="M251.973 342.718H201.954V348.121H251.973V342.718Z" fill="#455A64"/>
<path d="M241.861 350.816H201.954V354.08H241.861V350.816Z" fill="#DBDBDB"/>
<path d="M178.382 388.056L205.343 387.875L232.291 387.82L286.185 387.709L340.08 387.82L367.041 387.875L393.988 388.056L367.041 388.223L340.08 388.278L286.185 388.403L232.291 388.278L205.343 388.223L178.382 388.056Z" fill="#DBDBDB"/>
<path d="M191.064 414.795C189.567 415.723 187.814 416.153 186.058 416.023C184.301 415.894 182.631 415.211 181.287 414.073C179.943 412.935 178.994 411.4 178.576 409.689C178.158 407.978 178.293 406.179 178.961 404.549C179.629 402.92 180.797 401.544 182.296 400.619C183.795 399.694 185.548 399.268 187.304 399.401C189.06 399.535 190.729 400.222 192.071 401.363C193.413 402.504 194.358 404.04 194.772 405.752C195.185 407.458 195.049 409.25 194.383 410.874C193.717 412.498 192.555 413.87 191.064 414.795Z" fill="#DBDBDB"/>
<path d="M189.23 406.78C189.23 407.28 189.082 407.769 188.804 408.185C188.527 408.6 188.132 408.925 187.67 409.116C187.208 409.307 186.7 409.357 186.209 409.26C185.719 409.162 185.268 408.921 184.915 408.568C184.561 408.214 184.32 407.764 184.223 407.273C184.125 406.783 184.175 406.275 184.367 405.813C184.558 405.351 184.882 404.956 185.298 404.678C185.714 404.4 186.202 404.252 186.702 404.252C187.372 404.256 188.013 404.523 188.486 404.997C188.959 405.47 189.227 406.111 189.23 406.78Z" fill="white"/>
<path d="M191.064 413.753V414.795C189.75 415.603 188.238 416.031 186.695 416.031C185.153 416.031 183.64 415.603 182.327 414.795V413.753C182.293 413.159 182.381 412.564 182.586 412.004C182.79 411.445 183.106 410.934 183.515 410.501C183.924 410.068 184.417 409.724 184.964 409.488C185.511 409.253 186.1 409.131 186.695 409.131C187.291 409.131 187.88 409.253 188.426 409.488C188.973 409.724 189.466 410.068 189.875 410.501C190.284 410.934 190.6 411.445 190.805 412.004C191.009 412.564 191.097 413.159 191.064 413.753Z" fill="white"/>
<path d="M390.501 402.28C390.649 402.28 390.79 402.338 390.894 402.442C390.998 402.546 391.057 402.688 391.057 402.835C391.057 402.908 391.043 402.979 391.014 403.046C390.986 403.112 390.945 403.173 390.893 403.223C390.842 403.274 390.78 403.313 390.713 403.34C390.646 403.366 390.574 403.379 390.501 403.377C390.43 403.379 390.358 403.366 390.292 403.34C390.225 403.313 390.165 403.273 390.114 403.222C390.063 403.172 390.024 403.111 389.997 403.045C389.97 402.978 389.958 402.907 389.96 402.835C389.958 402.763 389.97 402.691 389.997 402.624C390.023 402.556 390.063 402.495 390.113 402.443C390.164 402.391 390.224 402.35 390.291 402.322C390.358 402.294 390.429 402.28 390.501 402.28Z" fill="black"/>
<path d="M392.154 402.28C392.302 402.28 392.443 402.338 392.547 402.442C392.652 402.546 392.71 402.688 392.71 402.835C392.71 402.908 392.696 402.979 392.668 403.046C392.639 403.112 392.598 403.173 392.547 403.223C392.495 403.274 392.433 403.313 392.366 403.34C392.299 403.366 392.227 403.379 392.154 403.377C392.083 403.379 392.012 403.366 391.945 403.34C391.878 403.313 391.818 403.273 391.767 403.222C391.716 403.172 391.677 403.111 391.65 403.045C391.624 402.978 391.611 402.907 391.613 402.835C391.611 402.763 391.624 402.691 391.65 402.624C391.676 402.556 391.716 402.495 391.766 402.443C391.817 402.391 391.877 402.35 391.944 402.322C392.011 402.294 392.082 402.28 392.154 402.28Z" fill="black"/>
<path d="M393.849 402.28C393.996 402.28 394.138 402.338 394.242 402.442C394.346 402.546 394.404 402.688 394.404 402.835C394.384 402.966 394.317 403.084 394.216 403.17C394.116 403.256 393.988 403.303 393.856 403.303C393.724 403.303 393.596 403.256 393.495 403.17C393.395 403.084 393.328 402.966 393.307 402.835C393.307 402.69 393.364 402.551 393.465 402.447C393.566 402.343 393.704 402.283 393.849 402.28Z" fill="black"/>
<path d="M179.382 425.226L206.357 424.976L228.665 424.837L273.281 424.712L294.533 424.837L316.827 424.976L339.135 425.226L316.827 425.49L294.533 425.629L273.281 425.754L228.665 425.629L206.357 425.476L179.382 425.226Z" fill="#263238"/>
<path d="M179.368 429.963C191.953 429.754 209.927 429.643 222.581 429.56L260.349 429.449L298.131 429.56L308.715 429.963L298.131 430.365L260.349 430.477L222.581 430.352C209.996 430.268 191.967 430.171 179.368 429.963Z" fill="#263238"/>
<path d="M251.973 401.377H201.954V406.78H251.973V401.377Z" fill="#455A64"/>
<path d="M241.861 409.475H201.954V412.739H241.861V409.475Z" fill="#DBDBDB"/>
<path d="M178.382 443.923L205.343 443.756L232.291 443.701L286.185 443.576L340.08 443.701L367.041 443.756L393.988 443.923L367.041 444.104L340.08 444.159L286.185 444.27L232.291 444.159L205.343 444.09L178.382 443.923Z" fill="#DBDBDB"/>
<path d="M191.064 472.606C189.567 473.535 187.814 473.966 186.057 473.836C184.299 473.707 182.629 473.024 181.284 471.885C179.939 470.747 178.99 469.211 178.572 467.5C178.155 465.788 178.291 463.988 178.96 462.358C179.629 460.728 180.798 459.352 182.298 458.428C183.799 457.504 185.553 457.08 187.31 457.215C189.067 457.351 190.735 458.039 192.076 459.182C193.417 460.325 194.361 461.864 194.773 463.577C195.182 465.281 195.044 467.07 194.378 468.691C193.713 470.312 192.553 471.682 191.064 472.606Z" fill="#DBDBDB"/>
<path d="M189.23 464.592C189.23 465.092 189.082 465.581 188.804 465.996C188.527 466.412 188.132 466.736 187.67 466.927C187.208 467.119 186.7 467.169 186.209 467.071C185.719 466.974 185.268 466.733 184.915 466.379C184.561 466.026 184.32 465.575 184.223 465.085C184.125 464.595 184.175 464.086 184.367 463.624C184.558 463.162 184.882 462.768 185.298 462.49C185.714 462.212 186.202 462.064 186.702 462.064C187.373 462.064 188.016 462.33 188.49 462.804C188.964 463.278 189.23 463.921 189.23 464.592Z" fill="white"/>
<path d="M191.064 471.565V472.607C189.754 473.428 188.24 473.863 186.695 473.863C185.15 473.863 183.636 473.428 182.327 472.607V471.565C182.39 470.449 182.877 469.399 183.69 468.632C184.502 467.864 185.577 467.436 186.695 467.436C187.813 467.436 188.888 467.864 189.701 468.632C190.513 469.399 191.001 470.449 191.064 471.565Z" fill="white"/>
<path d="M390.501 460.105C390.581 460.092 390.662 460.097 390.739 460.119C390.817 460.141 390.888 460.179 390.95 460.231C391.011 460.283 391.06 460.348 391.094 460.421C391.127 460.494 391.145 460.573 391.145 460.654C391.145 460.734 391.127 460.814 391.094 460.887C391.06 460.96 391.011 461.024 390.95 461.076C390.888 461.129 390.817 461.167 390.739 461.189C390.662 461.21 390.581 461.215 390.501 461.202C390.371 461.182 390.252 461.115 390.166 461.014C390.081 460.914 390.033 460.786 390.033 460.654C390.033 460.522 390.081 460.394 390.166 460.293C390.252 460.193 390.371 460.126 390.501 460.105Z" fill="black"/>
<path d="M392.154 460.105C392.234 460.092 392.315 460.097 392.392 460.119C392.47 460.141 392.541 460.179 392.602 460.231C392.664 460.283 392.713 460.348 392.746 460.421C392.78 460.494 392.797 460.573 392.797 460.654C392.797 460.734 392.78 460.814 392.746 460.887C392.713 460.96 392.664 461.024 392.602 461.076C392.541 461.129 392.47 461.167 392.392 461.189C392.315 461.21 392.234 461.215 392.154 461.202C392.024 461.182 391.905 461.115 391.819 461.014C391.733 460.914 391.686 460.786 391.686 460.654C391.686 460.522 391.733 460.394 391.819 460.293C391.905 460.193 392.024 460.126 392.154 460.105Z" fill="black"/>
<path d="M393.849 460.105C393.928 460.092 394.01 460.097 394.087 460.119C394.164 460.141 394.236 460.179 394.297 460.231C394.358 460.283 394.408 460.348 394.441 460.421C394.475 460.494 394.492 460.573 394.492 460.654C394.492 460.734 394.475 460.814 394.441 460.887C394.408 460.96 394.358 461.024 394.297 461.076C394.236 461.129 394.164 461.167 394.087 461.189C394.01 461.21 393.928 461.215 393.849 461.202C393.719 461.182 393.6 461.115 393.514 461.014C393.428 460.914 393.381 460.786 393.381 460.654C393.381 460.522 393.428 460.394 393.514 460.293C393.6 460.193 393.719 460.126 393.849 460.105Z" fill="black"/>
<path d="M228.485 483.052L247.167 482.802L262.627 482.663L293.519 482.538L308.243 482.649L323.689 482.802L339.135 483.052L323.689 483.302L308.243 483.455L293.519 483.566L262.627 483.455L247.167 483.302L228.485 483.052Z" fill="#263238"/>
<path d="M228.485 487.775C237.208 487.566 249.695 487.469 258.418 487.386L284.574 487.261L310.743 487.386L318.077 487.775L310.743 488.177L284.574 488.303L258.418 488.177C249.695 488.066 237.208 488.066 228.485 487.775Z" fill="#263238"/>
<path d="M251.973 459.188H201.954V464.592H251.973V459.188Z" fill="#455A64"/>
<path d="M241.861 467.3H201.954V470.564H241.861V467.3Z" fill="#DBDBDB"/>
<path d="M178.382 515.819H221.706V482.538H178.382V515.819Z" fill="#FB923C"/>
<path opacity="0.2" d="M183.049 490.345C182.89 491.157 182.996 492 183.352 492.748C183.708 493.496 184.295 494.109 185.026 494.498C185.758 494.887 186.595 495.03 187.414 494.907C188.233 494.783 188.991 494.4 189.575 493.813C190.159 493.225 190.54 492.466 190.659 491.646C190.779 490.827 190.632 489.99 190.24 489.261C189.848 488.531 189.232 487.947 188.482 487.594C187.732 487.241 186.889 487.139 186.077 487.303C185.328 487.453 184.641 487.823 184.102 488.364C183.563 488.906 183.196 489.595 183.049 490.345Z" fill="black"/>
<path opacity="0.2" d="M190.397 508.791H221.706L206.052 491.247L190.397 508.791Z" fill="black"/>
<path d="M178.382 508.805H204.232L191.314 497.373L178.382 508.805Z" fill="#FB923C"/>
<path opacity="0.3" d="M178.382 508.805H204.232L191.314 497.373L178.382 508.805Z" fill="black"/>
<path d="M221.72 508.791H178.396V515.819H221.72V508.791Z" fill="#FB923C"/>
<path opacity="0.3" d="M221.72 508.791H178.396V515.819H221.72V508.791Z" fill="black"/>
<path d="M330.648 256.278C317.321 264.508 301.967 268.867 286.303 268.867C270.64 268.867 255.286 264.508 241.958 256.278C226.354 246.63 214.321 232.157 207.685 215.053C201.049 197.949 200.172 179.148 205.187 161.501C210.201 143.853 220.834 128.322 235.473 117.264C250.112 106.205 267.957 100.223 286.303 100.223C304.649 100.223 322.495 106.205 337.134 117.264C351.772 128.322 362.406 143.853 367.42 161.501C372.435 179.148 371.558 197.949 364.922 215.053C358.286 232.157 346.253 246.63 330.648 256.278Z" fill="#A6A6A6"/>
<path d="M282.893 165.074C314.174 183.479 355.123 195.425 365.291 188.994C375.458 182.562 391.682 130.571 390.404 118.222C389.877 112.888 353.637 110.041 350.025 114.472C346.414 118.903 342.552 150.434 340.594 153.365C339.205 155.476 307.187 150.378 287.158 148.364C274.378 147.059 266.391 155.365 282.893 165.074Z" fill="#AD6359"/>
<path d="M390.002 125.264C391.238 119.93 395.558 92.3443 394.947 85.1907C394.336 78.0372 391.21 57.5767 385.696 57.41C380.181 57.2434 380.612 63.3551 380.612 63.3551C380.612 63.3551 377.917 54.9237 372.347 55.3265C366.777 55.7293 367.777 65.0497 367.777 65.0497C367.777 65.0497 364.374 56.6044 358.846 57.3823C353.317 58.1601 355.915 67.4666 355.915 67.4666C355.915 67.4666 353.137 59.5908 348.886 62.1605C343.733 65.2442 350.442 79.1901 350.498 87.1632C350.498 88.9689 348.095 123.736 348.095 123.736L390.002 125.264Z" fill="#AD6359"/>
<path d="M355.775 66.7999C360.693 77.0648 361.068 82.3987 359.762 93.5249C359.762 93.7471 360.054 93.8305 360.095 93.6082C362.373 82.8293 362.873 76.0647 356.262 66.5359C355.873 66.0637 355.47 66.2998 355.775 66.7999Z" fill="#263238"/>
<path d="M367.374 64.4108C371.541 75.523 372 81.3153 371.541 93.0665C371.541 93.1071 371.557 93.1459 371.586 93.1746C371.615 93.2032 371.654 93.2193 371.694 93.2193C371.735 93.2193 371.773 93.2032 371.802 93.1746C371.831 93.1459 371.847 93.1071 371.847 93.0665C373.305 81.5792 373.653 74.8146 368.027 64.258C367.708 63.7718 367.18 63.869 367.374 64.4108Z" fill="#263238"/>
<path d="M380.57 64.0077C383.834 75.12 384.612 81.3845 382.639 92.733C382.627 92.7882 382.636 92.8463 382.666 92.8945C382.696 92.9427 382.744 92.977 382.799 92.9899C382.854 93.0028 382.913 92.9932 382.961 92.9633C383.009 92.9333 383.043 92.8854 383.056 92.8302C386.181 81.454 385.279 73.5504 380.917 63.9522C380.625 63.2854 380.361 63.3132 380.57 64.0077Z" fill="#263238"/>
<path d="M347.136 130.931C347.136 130.931 338.704 119.43 336.121 113.554C333.537 107.679 331.954 82.2594 337.413 81.6065C344.483 80.7592 348.289 95.2469 349.219 102.595C349.219 102.595 365.568 100.622 370.555 110.443C375.542 120.263 347.136 130.931 347.136 130.931Z" fill="#AD6359"/>
<path d="M339.427 82.0095C346.372 85.8849 347.039 95.6081 348.483 102.664C348.501 102.768 348.544 102.866 348.608 102.951C348.671 103.035 348.754 103.103 348.849 103.149C348.944 103.195 349.048 103.218 349.154 103.216C349.259 103.214 349.363 103.187 349.456 103.137C356.401 102.762 366.207 104.248 370.694 110.082C370.72 110.114 370.757 110.135 370.797 110.141C370.838 110.147 370.879 110.138 370.914 110.116C370.948 110.094 370.973 110.059 370.984 110.02C370.994 109.98 370.99 109.938 370.972 109.901C366.999 103.067 357.443 100.817 349.914 101.706C348.525 94.4413 347.497 84.7181 339.468 82.0095C339.413 81.9261 339.385 81.9817 339.427 82.0095Z" fill="#263238"/>
<path d="M331.329 192.827L339.871 151.156C339.871 151.156 307.34 145.78 287.38 146.1C267.419 146.419 260.821 154.115 285.879 169.088C300.534 177.915 315.712 185.843 331.329 192.827Z" fill="#455A64"/>
<path d="M331.801 151.795C330.115 157.527 328.578 163.305 327.189 169.13C326.509 171.991 325.8 174.853 325.147 177.742C324.495 180.631 324.05 183.743 323.383 186.715C323.383 186.924 323.661 187.021 323.717 186.812C324.453 183.965 325.384 181.159 326.148 178.312C326.911 175.464 327.537 172.408 328.3 169.463C329.699 163.629 330.954 157.763 332.065 151.864C332.067 151.832 332.058 151.8 332.039 151.774C332.02 151.747 331.993 151.729 331.962 151.72C331.93 151.712 331.897 151.715 331.868 151.729C331.838 151.742 331.815 151.766 331.801 151.795Z" fill="#263238"/>
<path d="M324.078 259.848C318.745 262.549 313.132 264.659 307.34 266.14L306.146 266.446C305.395 266.64 304.618 266.807 303.868 266.973C292.128 269.523 279.978 269.523 268.239 266.973C267.1 266.723 265.961 266.446 264.836 266.14C258.081 264.381 251.575 261.777 245.473 258.389C244.986 258.139 244.514 257.875 244.084 257.584C243.333 257.153 242.583 256.695 241.819 256.195C238.701 254.263 235.713 252.128 232.874 249.805C232.527 249.555 232.193 249.277 231.86 248.985C229.012 246.587 226.325 244.002 223.818 241.249L223.067 240.429C221.651 238.827 220.294 237.174 218.998 235.47C219.22 234.553 219.456 233.637 219.678 232.692C219.762 232.428 219.817 232.15 219.887 231.886C220.539 229.358 221.276 226.789 221.97 224.136C222.04 223.858 222.137 223.594 222.206 223.302C222.929 220.788 223.693 218.191 224.54 215.593C224.605 215.315 224.688 215.037 224.79 214.76C225.609 212.218 226.471 209.62 227.387 207.009C227.471 206.759 227.582 206.481 227.679 206.203C228.596 203.647 229.54 201.064 230.554 198.466C230.652 198.216 230.749 197.952 230.86 197.688C231.874 195.105 232.957 192.549 234.082 189.965C234.194 189.674 234.319 189.41 234.444 189.132C235.597 186.534 236.805 183.965 238.069 181.395C238.18 181.145 238.305 180.881 238.43 180.645C239.727 178.034 241.083 175.455 242.5 172.908C242.556 172.783 242.621 172.663 242.694 172.547L242.972 172.061C244.445 169.449 245.986 166.866 247.612 164.352C247.778 164.074 247.959 163.796 248.139 163.518C249.848 160.879 251.654 158.295 253.529 155.795C253.661 155.588 253.805 155.389 253.96 155.198L254.14 154.976C255.793 152.781 257.529 150.628 259.321 148.572C259.752 148.078 260.216 147.614 260.71 147.183L260.919 147.016C261.169 146.822 261.405 146.641 261.683 146.461C261.728 146.421 261.78 146.388 261.835 146.364C270.336 140.696 286.532 142.974 288.602 145.989C288.695 146.107 288.779 146.232 288.852 146.364L289.13 146.766C290.844 149.395 292.402 152.123 293.797 154.934C295.186 157.573 296.436 160.49 297.714 163.477C298.867 166.185 299.978 169.033 301.076 171.991C301.076 172.144 301.187 172.283 301.228 172.422C301.294 172.555 301.345 172.695 301.381 172.839C302.409 175.617 303.409 178.395 304.395 181.367C305.229 183.909 306.076 186.493 306.868 189.104C306.951 189.396 307.048 189.646 307.132 189.938C307.965 192.618 308.785 195.341 309.563 198.063C309.591 198.204 309.628 198.344 309.674 198.48C310.438 201.064 311.146 203.647 311.854 206.217C311.854 206.453 311.952 206.662 312.021 206.884C312.743 209.537 313.41 212.176 314.091 214.774L314.313 215.607C314.98 218.204 315.619 220.788 316.23 223.316C316.23 223.399 316.23 223.469 316.23 223.538C316.23 223.608 316.327 223.941 316.369 224.15C317.008 226.789 317.619 229.372 318.202 231.9C318.869 234.845 319.508 237.707 320.091 240.443C320.161 240.735 320.216 240.999 320.272 241.262C320.869 244.041 321.439 246.707 321.953 249.236C321.953 249.43 321.953 249.624 322.064 249.819C322.661 252.778 323.189 255.514 323.647 257.973C323.647 258.111 323.647 258.236 323.717 258.361L324.078 259.848Z" fill="#FB923C"/>
<path opacity="0.1" d="M264.836 266.14C265.961 266.446 267.1 266.724 268.239 266.974H303.867C304.618 266.807 305.395 266.64 306.145 266.446L307.34 266.14H264.836ZM323.828 258.001C323.828 257.862 323.758 257.723 323.731 257.584H244.028C244.514 257.876 244.986 258.139 245.417 258.389H323.828C323.828 258.264 323.828 258.139 323.828 258.001ZM322.133 249.264C322.106 249.186 322.082 249.107 322.064 249.027H231.804C232.138 249.319 232.471 249.597 232.818 249.847H322.175C322.133 249.652 322.092 249.458 322.064 249.264H322.133ZM320.272 240.471H223.04L223.79 241.29H320.411C320.327 241.027 320.272 240.818 320.202 240.471H320.272ZM217.831 240.471C217.818 240.612 217.79 240.752 217.747 240.888C217.747 240.749 217.747 240.61 217.845 240.471H217.831ZM318.272 231.928H219.817C219.817 232.192 219.692 232.47 219.622 232.734H318.48L318.272 231.928ZM316.299 223.594C316.299 223.525 316.299 223.455 316.299 223.372H222.151C222.081 223.664 221.984 223.928 221.914 224.205H316.494C316.438 223.983 316.396 223.789 316.341 223.566L316.299 223.594ZM314.105 214.802H224.748C224.643 215.074 224.555 215.352 224.484 215.635H314.369L314.105 214.802ZM312.035 206.912C311.966 206.69 311.924 206.481 311.868 206.245H227.637C227.54 206.523 227.429 206.801 227.332 207.051H312.063C312.061 207.004 312.066 206.957 312.077 206.912H312.035ZM309.576 198.092L309.451 197.689H230.846C230.735 197.953 230.638 198.216 230.526 198.467H309.701C309.667 198.343 309.639 198.218 309.618 198.092H309.576ZM306.882 189.132H234.43C234.305 189.41 234.18 189.674 234.068 189.966H307.159C307.159 189.674 307.007 189.424 306.923 189.132H306.882ZM304.104 180.59H238.444C238.319 180.826 238.194 181.09 238.083 181.34H304.479C304.358 181.096 304.251 180.846 304.159 180.59H304.104ZM301.228 172.436C301.228 172.297 301.131 172.158 301.075 172.005H242.986L242.722 172.492C242.649 172.607 242.584 172.728 242.528 172.853H301.437C301.4 172.709 301.349 172.569 301.284 172.436H301.228ZM297.714 163.491H248.139C247.973 163.768 247.792 164.046 247.639 164.324H298.089C297.992 164.032 297.867 163.755 297.77 163.491H297.714ZM293.783 154.92H254.168L253.987 155.143C253.833 155.333 253.689 155.533 253.557 155.74H294.228C294.089 155.462 293.964 155.184 293.839 154.92H293.783ZM289.116 146.753L288.838 146.35H261.863C261.807 146.374 261.756 146.407 261.71 146.447C261.432 146.628 261.196 146.808 260.946 147.003L260.738 147.17H289.435C289.336 147.038 289.248 146.899 289.171 146.753H289.116Z" fill="black"/>
<path d="M287.032 168.269C280.476 169.449 269.892 158.962 265.919 150.711C265.655 150.156 266.808 144.405 267.864 137.349C268.503 133.071 269.1 128.278 269.336 123.875L296.603 132.057C294.732 137.478 293.534 143.109 293.033 148.822C293.016 149.43 293.048 150.039 293.13 150.642C293.138 150.739 293.138 150.837 293.13 150.934C293.533 154.406 293.366 167.116 287.032 168.269Z" fill="#AD6359"/>
<path d="M293.172 150.934C293.172 151.128 293.172 151.336 293.172 151.573C276.601 148.072 271.489 139.682 268.558 131.959C268.891 129.251 269.169 126.501 269.294 123.875L296.561 132.043C294.692 137.469 293.498 143.104 293.005 148.822C292.974 149.431 293.006 150.04 293.102 150.642C293.113 150.742 293.136 150.84 293.172 150.934Z" fill="#263238"/>
<path d="M263.085 92.3305C260.043 102.123 265.099 130.487 272.059 136.78C282.129 145.975 298.686 146.919 306.521 134.807C314.119 123.056 306.868 86.1909 299.103 80.4403C287.713 71.9811 267.572 77.8567 263.085 92.3305Z" fill="#AD6359"/>
<path d="M286.324 110.249C286.324 110.249 286.185 110.374 286.199 110.443C286.588 112.346 286.727 114.61 285.102 115.527C285.102 115.527 285.102 115.652 285.102 115.624C287.255 114.902 287.046 111.916 286.324 110.249Z" fill="#263238"/>
<path d="M284.324 108.485C281.198 108.776 282.032 114.985 284.921 114.708C287.81 114.43 286.935 108.235 284.324 108.485Z" fill="#263238"/>
<path d="M298.27 108.415C298.27 108.332 298.436 108.415 298.45 108.554C298.645 110.485 299.186 112.721 301.02 113.082C301.02 113.082 301.02 113.193 301.02 113.179C298.825 113.166 298.145 110.249 298.27 108.415Z" fill="#263238"/>
<path d="M299.728 106.179C302.784 105.526 303.895 111.735 301.02 112.291C298.145 112.846 297.158 106.721 299.728 106.179Z" fill="#263238"/>
<path d="M281.49 105.971C282.275 105.624 283.04 105.234 283.782 104.804C284.647 104.504 285.389 103.928 285.893 103.165C285.994 102.894 286.008 102.599 285.933 102.32C285.859 102.042 285.699 101.793 285.477 101.609C284.963 101.324 284.383 101.183 283.796 101.2C283.21 101.217 282.639 101.392 282.143 101.706C281.047 102.184 280.167 103.05 279.67 104.137C279.559 104.392 279.526 104.675 279.578 104.949C279.629 105.223 279.761 105.475 279.957 105.672C280.153 105.87 280.404 106.004 280.678 106.057C280.951 106.111 281.234 106.08 281.49 105.971Z" fill="#263238"/>
<path d="M301.714 102.72C300.857 102.668 300.004 102.566 299.158 102.415C298.242 102.44 297.345 102.151 296.616 101.595C296.428 101.375 296.313 101.101 296.288 100.812C296.263 100.523 296.33 100.233 296.478 99.984C296.862 99.5442 297.357 99.2155 297.912 99.0322C298.466 98.849 299.06 98.8179 299.631 98.9423C300.821 98.9989 301.949 99.4936 302.798 100.331C303.006 100.53 303.148 100.789 303.203 101.072C303.258 101.355 303.224 101.648 303.105 101.911C302.986 102.173 302.788 102.392 302.539 102.537C302.289 102.682 302.001 102.746 301.714 102.72Z" fill="#263238"/>
<path d="M289.602 121.75C290.19 122.445 290.916 123.011 291.733 123.413C292.551 123.815 293.443 124.043 294.352 124.084C295.15 124.132 295.951 124.062 296.728 123.875C296.879 123.853 297.028 123.816 297.172 123.764L297.575 123.639C297.674 123.606 297.759 123.543 297.82 123.458C297.88 123.373 297.911 123.271 297.908 123.167C297.918 123.102 297.918 123.037 297.908 122.972V122.806C297.742 121.319 297.297 119.097 297.297 119.097C297.881 119.291 300.798 120.167 300.659 119.403C299.422 113.041 298.047 105.985 295.478 99.9561C295.463 99.9124 295.432 99.876 295.391 99.8545C295.35 99.8329 295.302 99.8278 295.258 99.8403C295.213 99.8528 295.175 99.8818 295.152 99.9214C295.128 99.961 295.12 100.008 295.13 100.053C296.075 106.207 298.103 112.152 299.145 118.319C298.105 117.994 297.025 117.816 295.936 117.791C295.728 117.875 296.867 122.097 296.88 122.764C296.889 122.786 296.889 122.811 296.88 122.834C294.436 123.486 292.463 122.986 289.824 121.639C289.588 121.458 289.463 121.611 289.602 121.75Z" fill="#263238"/>
<path d="M295.561 123.32C294.931 124.389 294.036 125.279 292.963 125.903C292.368 126.221 291.687 126.342 291.019 126.251C289.546 126.056 289.352 124.764 289.477 123.611C289.557 123.005 289.701 122.409 289.907 121.833C291.583 122.924 293.566 123.445 295.561 123.32Z" fill="#263238"/>
<path d="M292.963 125.903C292.368 126.221 291.687 126.342 291.019 126.251C289.546 126.056 289.352 124.764 289.477 123.611C290.231 123.547 290.984 123.739 291.617 124.154C292.249 124.57 292.723 125.186 292.963 125.903Z" fill="#FF9CBD"/>
<path opacity="0.2" d="M263.141 111.777C264.919 110.721 267.933 104.387 269.267 101.79C270.6 99.1923 269.558 87.1216 269.142 83.5518C266.312 85.8731 264.21 88.9589 263.085 92.4416C261.78 96.5115 261.96 104.109 263.141 111.777Z" fill="#263238"/>
<path d="M293.366 90.6078C292.497 91.9444 291.301 93.0367 289.891 93.7806C288.481 94.5246 286.904 94.8955 285.31 94.8582C283.687 94.8207 282.101 94.3699 280.7 93.5484C279.3 92.7268 278.133 91.5617 277.309 90.1633C277.309 90.0799 277.128 90.1633 277.17 90.1633C277.907 91.7111 279.051 93.0291 280.48 93.9761C281.91 94.9231 283.569 95.4633 285.282 95.5388C286.978 95.5321 288.641 95.0777 290.105 94.2216C291.568 93.3655 292.779 92.138 293.616 90.6633C293.63 90.6078 293.45 90.4827 293.366 90.6078Z" fill="#263238"/>
<path d="M280.768 68.9946C275.406 69.8141 270.864 73.4256 269.378 77.3288C268.547 79.5622 268.503 82.0121 269.253 84.274C269.253 84.3712 269.475 84.274 269.447 84.274C269.071 82.2463 269.248 80.1548 269.96 78.2191C270.671 76.2834 271.89 74.5749 273.489 73.2728C275.225 71.7635 277.289 70.6791 279.516 70.1053C281.744 69.5315 284.075 69.4841 286.324 69.9669C288.515 70.3944 290.484 71.5855 291.88 73.3284C292.005 73.5089 292.394 73.3284 292.283 73.1478C290.366 69.9669 285.643 68.2584 280.768 68.9946Z" fill="#263238"/>
<path d="M313.494 76.5788C312.266 74.0449 310.186 72.0238 307.618 70.8699C304.062 69.2586 300.381 70.0504 296.728 70.8699C296.713 70.8764 296.7 70.887 296.692 70.9006C296.683 70.9142 296.678 70.9301 296.678 70.9463C296.678 70.9625 296.683 70.9784 296.692 70.9919C296.7 71.0055 296.713 71.0162 296.728 71.0227C299.826 70.3143 303.02 69.7587 306.104 70.8699C308.657 71.7664 310.821 73.5184 312.23 75.8287C313.598 78.2144 314.061 81.0137 313.533 83.713C313.005 86.4124 311.521 88.8308 309.354 90.5247C308.084 91.4694 306.634 92.1441 305.093 92.5072C303.552 92.8703 301.953 92.9142 300.395 92.636C300.27 92.636 300.214 92.7888 300.395 92.8166C303.208 93.4029 306.138 92.9434 308.636 91.5242C311.134 90.1051 313.029 87.8237 313.966 85.1075C314.864 82.3034 314.696 79.2667 313.494 76.5788Z" fill="#263238"/>
<path d="M262.155 98.0671C262.155 98.0671 255.849 89.0939 259.377 82.996C261.405 79.5512 269.475 78.9539 269.475 78.9539C271.213 75.4998 274.25 72.8768 277.921 71.6615C284.449 69.2863 292.909 72.2032 292.909 72.2032C292.909 72.2032 298.826 67.7583 305.215 70.4253C314.133 74.134 314.689 86.9409 306.827 92.0664C301.27 95.664 292.658 91.4692 292.658 91.4692C291.908 91.6636 284.63 97.3864 277.81 91.1219C277.81 91.1219 273.518 96.0252 268.795 93.5527C268.278 94.8908 267.366 96.0397 266.18 96.8463C264.994 97.6528 263.59 98.0786 262.155 98.0671Z" fill="#263238"/>
<path d="M269.044 115.444C269.044 115.444 262.488 106.387 258.363 108.735C254.237 111.082 259.279 124.292 264.183 126.028C264.797 126.296 265.46 126.436 266.13 126.44C266.8 126.444 267.465 126.313 268.083 126.053C268.701 125.793 269.26 125.411 269.726 124.929C270.192 124.448 270.555 123.876 270.794 123.25L269.044 115.444Z" fill="#AD6359"/>
<path d="M259.932 112.485C259.914 112.485 259.896 112.493 259.883 112.506C259.87 112.519 259.863 112.536 259.863 112.555C259.863 112.573 259.87 112.591 259.883 112.604C259.896 112.617 259.914 112.624 259.932 112.624C263.377 114.013 265.238 117.097 266.544 120.361C266.336 120.018 266.055 119.724 265.723 119.5C265.39 119.275 265.013 119.126 264.617 119.061C264.221 118.996 263.816 119.018 263.429 119.125C263.042 119.232 262.683 119.422 262.377 119.68C262.363 119.697 262.354 119.718 262.352 119.74C262.35 119.762 262.355 119.784 262.365 119.803C262.376 119.822 262.391 119.838 262.411 119.849C262.43 119.859 262.452 119.863 262.474 119.861C263.072 119.659 263.719 119.648 264.323 119.829C264.928 120.011 265.462 120.377 265.849 120.875C266.492 121.714 267.046 122.617 267.502 123.57C267.669 123.875 268.211 123.695 268.1 123.347C268.094 123.32 268.094 123.292 268.1 123.264C268.086 118.903 264.599 112.846 259.932 112.485Z" fill="#263238"/>
<path d="M248.07 153.948C218.386 181.548 180.007 240.637 186.147 253.222C192.981 267.237 234.319 228.525 234.263 226.164C234.263 224.372 249.751 191.785 261.46 165.449C273.17 139.113 255.404 147.128 248.07 153.948Z" fill="#AD6359"/>
<path d="M186.147 253.222C192.147 262.654 209.496 265.154 252.584 275.53C258.543 276.919 280.018 237.623 273.725 235.762C265.808 233.414 234.555 226.039 232.207 225.775C212.358 223.65 182.063 246.819 186.147 253.222Z" fill="#AD6359"/>
<path d="M259.418 234.206C259.418 234.206 276.906 233.998 286.129 236.748C298.478 240.415 307.632 248.666 311.257 252.347C318.827 260.056 331.815 283.906 325.592 288.837C320.036 293.31 307.937 268.251 307.937 268.251C307.937 268.251 324.411 291.782 316.646 295.907C308.882 300.033 296.561 270.168 296.561 270.168C296.561 270.168 312.965 294.713 304.284 297.713C297.714 299.977 285.032 273.544 285.032 273.544C285.032 273.544 298.992 294.74 292.338 297.352C284.99 300.255 271.753 276.586 271.753 276.586C253.695 280.406 243.597 274.849 236.846 270.043C235.221 268.877 259.418 234.206 259.418 234.206Z" fill="#AD6359"/>
<path d="M302.756 259.765C304.784 262.445 306.923 265.168 308.66 268.099C310.396 271.03 312.132 273.891 313.66 276.905C315.708 280.816 317.31 284.944 318.438 289.212C315.896 281.781 309.646 271.432 307.854 268.557C306.062 265.682 304.423 262.751 302.645 259.89C302.589 259.751 302.701 259.695 302.756 259.765Z" fill="#263238"/>
<path d="M292.283 266.029C294.741 269.585 297.311 272.974 299.603 276.683C301.895 280.391 303.77 283.975 305.756 287.795C305.923 288.087 305.756 288.073 305.534 287.795C303.367 284.086 301.062 280.85 298.839 277.141C296.617 273.432 294.547 269.696 292.199 266.112C292.158 266.029 292.255 265.987 292.283 266.029Z" fill="#263238"/>
<path d="M282.337 269.807C286.231 275.165 289.564 280.909 292.283 286.948C292.422 287.24 292.158 287.198 291.991 286.948C288.796 281.1 286.324 276.6 282.157 269.988C282.157 269.849 282.254 269.696 282.337 269.807Z" fill="#263238"/>
<path d="M207.705 231.747C215.493 226.643 224.885 224.577 234.096 225.941C234.207 225.941 234.207 226.15 234.096 226.136C224.554 225.455 211.455 229.9 207.705 231.914C207.677 231.97 207.607 231.817 207.705 231.747Z" fill="#263238"/>
<path d="M205.468 192.716L242.361 213.801C242.361 213.801 257.64 184.562 263.516 165.49C269.392 146.419 264.169 137.71 242.139 156.92C229.2 168.097 216.954 180.051 205.468 192.716Z" fill="#455A64"/>
<path d="M244.32 205.967C239.393 202.578 234.383 199.336 229.29 196.244C226.776 194.702 224.276 193.118 221.734 191.618C219.192 190.118 216.386 188.701 213.761 187.159C213.58 187.048 213.386 187.312 213.566 187.437C216.039 189.021 218.414 190.785 220.887 192.382C223.359 193.979 226.04 195.591 228.624 197.188C233.735 200.346 238.916 203.369 244.167 206.258C244.32 206.272 244.472 206.092 244.32 205.967Z" fill="#263238"/>
<path d="M240.805 212.912C241.361 213.162 241.902 213.398 242.444 213.662L242.208 213.732C243.25 211.037 244.43 208.426 245.569 205.786C246.708 203.147 247.986 200.591 249.264 198.022C250.542 195.452 251.834 192.896 253.237 190.382C254.64 187.868 256.015 185.354 257.557 182.909C256.57 185.618 255.445 188.257 254.279 190.882C253.112 193.507 251.903 196.105 250.653 198.702C249.403 201.3 248.097 203.828 246.75 206.37C245.403 208.912 243.972 211.426 242.583 213.885L242.486 214.037L242.347 213.954C241.777 213.621 241.291 213.259 240.805 212.912Z" fill="#263238"/>
<path d="M258.279 188.035C256.731 190.542 254.601 192.638 252.07 194.147C252.839 192.884 253.773 191.73 254.848 190.716C255.872 189.678 257.025 188.777 258.279 188.035Z" fill="#263238"/>
<path d="M470.426 246.583C468.482 262.473 455.355 276.114 455.355 276.114C455.355 276.114 436.576 273.697 425.116 262.529C415.56 253.208 414.809 239.776 422.685 233.998C433.978 225.664 444.91 246.597 444.91 246.597C444.91 246.597 440.507 223.455 454.466 222.761C464.217 222.386 472.052 233.331 470.426 246.583Z" fill="#FB923C"/>
<path d="M479.511 181.354C472.427 190.771 459.05 194.647 459.05 194.647C459.05 194.647 447.938 186.201 444.757 174.867C442.09 165.421 446.549 156.573 453.688 155.782C463.926 154.67 463.273 172.006 463.273 172.006C463.273 172.006 468.898 155.587 478.066 160.338C484.442 163.644 485.414 173.492 479.511 181.354Z" fill="#FB923C"/>
<path d="M125.015 168.588C118.154 178.159 104.861 182.34 104.861 182.34C104.861 182.34 93.5816 174.158 90.1229 162.893C87.2337 153.503 91.5119 144.558 98.6238 143.614C108.833 142.225 108.569 159.615 108.569 159.615C108.569 159.615 113.82 143.072 123.085 147.6C129.544 150.809 130.752 160.643 125.015 168.588Z" fill="#FB923C"/>
</svg>
