<svg width="559" height="113" viewBox="0 0 559 113" fill="none" xmlns="http://www.w3.org/2000/svg">
<path d="M537.74 59.0668C539.755 50.8438 539.38 42.2161 536.658 34.1992C533.936 26.1822 528.981 19.1095 522.376 13.8135C515.77 8.51754 507.789 5.2186 499.372 4.30496C490.955 3.39132 482.452 4.90099 474.864 8.65631C467.276 12.4116 460.919 18.2563 456.54 25.5025C452.161 32.7488 449.944 41.095 450.148 49.559C450.352 58.0229 452.97 66.2525 457.693 73.279C462.416 80.3056 469.048 85.8368 476.809 89.2217M450.133 48.4771H539.007" stroke="#FDA403" stroke-width="5" stroke-linecap="round" stroke-linejoin="round"/>
<path d="M481.369 68.9864C479.138 62.36 477.823 55.4596 477.462 48.4769C478.3 32.2244 484.288 16.6599 494.558 4.03564C504.825 16.6609 510.809 32.2253 511.645 48.4769C511.492 51.3268 511.187 54.1666 510.733 56.9842M522.34 66.0081L554.867 80.1008L522.34 94.1935L489.828 80.1008L522.356 66.0081H522.34Z" stroke="#FDA403" stroke-width="5" stroke-linecap="round" stroke-linejoin="round"/>
<path d="M504.574 86.5254L504.607 101.861C504.607 101.861 509.974 108.964 522.34 108.964C534.705 108.964 540.097 101.861 540.097 101.861V86.5254M489.82 104.888V80.1006" stroke="#FDA403" stroke-width="5" stroke-linecap="round" stroke-linejoin="round"/>
<path d="M31.3707 46.3537C31.205 44.5308 30.4676 43.1139 29.1584 42.103C27.8658 41.0755 26.018 40.5618 23.6151 40.5618C22.0241 40.5618 20.6984 40.7689 19.6378 41.1832C18.5772 41.5975 17.7817 42.1693 17.2514 42.8984C16.7211 43.611 16.4477 44.4313 16.4311 45.3594C16.398 46.1217 16.5471 46.7928 16.8786 47.3729C17.2266 47.9529 17.7237 48.4666 18.37 48.9141C19.0329 49.3449 19.8284 49.7261 20.7564 50.0575C21.6844 50.389 22.7285 50.679 23.8885 50.9276L28.2635 51.9219C30.7824 52.4688 33.0031 53.1979 34.9254 54.1094C36.8643 55.0208 38.4884 56.1063 39.7976 57.3658C41.1233 58.6252 42.1259 60.0753 42.8054 61.7159C43.4849 63.3565 43.8329 65.196 43.8494 67.2344C43.8329 70.4493 43.0208 73.2086 41.4134 75.5121C39.8059 77.8156 37.4941 79.5805 34.478 80.8068C31.4785 82.0331 27.8575 82.6463 23.6151 82.6463C19.3561 82.6463 15.6439 82.0083 12.4787 80.7322C9.31345 79.4562 6.85251 77.5173 5.09588 74.9155C3.33925 72.3137 2.43608 69.0241 2.38636 65.0469H14.169C14.2685 66.6875 14.7076 68.0547 15.4865 69.1484C16.2654 70.2422 17.3343 71.0708 18.6932 71.6342C20.0687 72.1977 21.6596 72.4794 23.4659 72.4794C25.1231 72.4794 26.5317 72.2557 27.6918 71.8082C28.8684 71.3608 29.7715 70.7393 30.4013 69.9439C31.031 69.1484 31.3542 68.237 31.3707 67.2095C31.3542 66.2483 31.0559 65.428 30.4759 64.7486C29.8958 64.0526 29.0009 63.456 27.7912 62.9588C26.598 62.4451 25.0734 61.9728 23.2173 61.5419L17.8977 60.299C13.4896 59.2881 10.0178 57.6558 7.48224 55.402C4.94673 53.1316 3.68726 50.0658 3.70384 46.2045C3.68726 43.0559 4.53243 40.2966 6.23935 37.9268C7.94626 35.5571 10.3078 33.7093 13.3239 32.3835C16.34 31.0578 19.7786 30.3949 23.6399 30.3949C27.584 30.3949 31.0062 31.066 33.9062 32.4084C36.8229 33.7341 39.085 35.5985 40.6925 38.0014C42.3 40.4044 43.1203 43.1884 43.1534 46.3537H31.3707ZM68.0414 82H49.2239V31.0909H68.0165C73.2036 31.0909 77.6697 32.1101 81.415 34.1484C85.1768 36.1702 88.0769 39.0869 90.1153 42.8984C92.1536 46.6934 93.1728 51.2341 93.1728 56.5206C93.1728 61.8236 92.1536 66.3809 90.1153 70.1925C88.0935 74.004 85.2017 76.929 81.4398 78.9673C77.678 80.9891 73.2118 82 68.0414 82ZM61.5286 71.5099H67.5691C70.4195 71.5099 72.8307 71.0294 74.8028 70.0682C76.7914 69.0904 78.2912 67.5078 79.302 65.3203C80.3295 63.1162 80.8432 60.183 80.8432 56.5206C80.8432 52.8582 80.3295 49.9415 79.302 47.7706C78.2746 45.5831 76.7582 44.0088 74.753 43.0476C72.7644 42.0698 70.3118 41.581 67.3951 41.581H61.5286V71.5099ZM132.926 47.7209C132.644 46.6768 132.23 45.7571 131.683 44.9616C131.136 44.1496 130.465 43.4619 129.669 42.8984C128.874 42.335 127.963 41.9124 126.935 41.6307C125.908 41.3324 124.781 41.1832 123.554 41.1832C121.085 41.1832 118.947 41.7798 117.141 42.973C115.351 44.1662 113.967 45.9062 112.99 48.1932C112.012 50.4635 111.523 53.2228 111.523 56.4709C111.523 59.7356 111.995 62.5196 112.94 64.8232C113.885 67.1267 115.252 68.8833 117.042 70.093C118.831 71.3028 121.002 71.9077 123.554 71.9077C125.808 71.9077 127.714 71.5431 129.272 70.8139C130.846 70.0682 132.039 69.0159 132.851 67.657C133.663 66.2981 134.069 64.6989 134.069 62.8594L136.356 63.1328H123.977V54.1591H145.927V60.8956C145.927 65.4529 144.957 69.3556 143.018 72.6037C141.096 75.8518 138.444 78.3459 135.064 80.0859C131.699 81.826 127.83 82.696 123.455 82.696C118.599 82.696 114.332 81.6437 110.653 79.5391C106.974 77.4344 104.107 74.4349 102.052 70.5405C99.9973 66.6295 98.9699 61.9893 98.9699 56.62C98.9699 52.4439 99.5913 48.7401 100.834 45.5085C102.077 42.2604 103.809 39.5095 106.03 37.2557C108.267 35.0019 110.852 33.295 113.785 32.1349C116.735 30.9749 119.909 30.3949 123.306 30.3949C126.256 30.3949 128.998 30.8175 131.534 31.6626C134.086 32.5078 136.34 33.701 138.295 35.2422C140.267 36.7834 141.866 38.6146 143.093 40.7358C144.319 42.857 145.081 45.1854 145.38 47.7209H132.926ZM194.056 46.3537C193.89 44.5308 193.152 43.1139 191.843 42.103C190.551 41.0755 188.703 40.5618 186.3 40.5618C184.709 40.5618 183.383 40.7689 182.323 41.1832C181.262 41.5975 180.467 42.1693 179.936 42.8984C179.406 43.611 179.133 44.4313 179.116 45.3594C179.083 46.1217 179.232 46.7928 179.563 47.3729C179.911 47.9529 180.409 48.4666 181.055 48.9141C181.718 49.3449 182.513 49.7261 183.441 50.0575C184.369 50.389 185.413 50.679 186.573 50.9276L190.948 51.9219C193.467 52.4688 195.688 53.1979 197.61 54.1094C199.549 55.0208 201.173 56.1063 202.483 57.3658C203.808 58.6252 204.811 60.0753 205.49 61.7159C206.17 63.3565 206.518 65.196 206.534 67.2344C206.518 70.4493 205.706 73.2086 204.098 75.5121C202.491 77.8156 200.179 79.5805 197.163 80.8068C194.163 82.0331 190.542 82.6463 186.3 82.6463C182.041 82.6463 178.329 82.0083 175.164 80.7322C171.998 79.4562 169.537 77.5173 167.781 74.9155C166.024 72.3137 165.121 69.0241 165.071 65.0469H176.854C176.953 66.6875 177.393 68.0547 178.171 69.1484C178.95 70.2422 180.019 71.0708 181.378 71.6342C182.754 72.1977 184.344 72.4794 186.151 72.4794C187.808 72.4794 189.217 72.2557 190.377 71.8082C191.553 71.3608 192.456 70.7393 193.086 69.9439C193.716 69.1484 194.039 68.237 194.056 67.2095C194.039 66.2483 193.741 65.428 193.161 64.7486C192.581 64.0526 191.686 63.456 190.476 62.9588C189.283 62.4451 187.758 61.9728 185.902 61.5419L180.583 60.299C176.175 59.2881 172.703 57.6558 170.167 55.402C167.632 53.1316 166.372 50.0658 166.389 46.2045C166.372 43.0559 167.217 40.2966 168.924 37.9268C170.631 35.5571 172.993 33.7093 176.009 32.3835C179.025 31.0578 182.464 30.3949 186.325 30.3949C190.269 30.3949 193.691 31.066 196.591 32.4084C199.508 33.7341 201.77 35.5985 203.377 38.0014C204.985 40.4044 205.805 43.1884 205.838 46.3537H194.056ZM229.732 82.7209C225.705 82.7209 222.25 81.8923 219.366 80.2351C216.499 78.5779 214.295 76.2744 212.754 73.3246C211.213 70.3582 210.442 66.9278 210.442 63.0334C210.442 59.1224 211.213 55.692 212.754 52.7422C214.312 49.7758 216.524 47.464 219.391 45.8068C222.275 44.1496 225.713 43.321 229.707 43.321C233.237 43.321 236.311 43.959 238.929 45.2351C241.564 46.5111 243.619 48.3175 245.094 50.6541C246.586 52.9742 247.373 55.7003 247.456 58.8324H236.096C235.864 56.8769 235.201 55.344 234.107 54.2337C233.03 53.1233 231.621 52.5682 229.881 52.5682C228.473 52.5682 227.238 52.9659 226.177 53.7614C225.117 54.5402 224.288 55.7003 223.692 57.2415C223.111 58.7661 222.821 60.6553 222.821 62.9091C222.821 65.1629 223.111 67.0687 223.692 68.6264C224.288 70.1676 225.117 71.3359 226.177 72.1314C227.238 72.9103 228.473 73.2997 229.881 73.2997C231.008 73.2997 232.002 73.0594 232.864 72.5788C233.742 72.0982 234.463 71.3939 235.027 70.4659C235.59 69.5213 235.946 68.3778 236.096 67.0355H247.456C247.34 70.1842 246.553 72.9351 245.094 75.2884C243.652 77.6416 241.622 79.4728 239.004 80.782C236.402 82.0746 233.312 82.7209 229.732 82.7209ZM264.992 60.2244V82H252.836V31.0909H264.594V50.8281H265.017C265.879 48.4749 267.287 46.6354 269.243 45.3097C271.215 43.9839 273.626 43.321 276.476 43.321C279.161 43.321 281.498 43.9176 283.486 45.1108C285.475 46.2874 287.016 47.9529 288.11 50.1072C289.22 52.2616 289.767 54.7805 289.75 57.6641V82H277.595V60.0504C277.612 57.9292 277.081 56.272 276.004 55.0788C274.927 53.8857 273.411 53.2891 271.455 53.2891C270.179 53.2891 269.052 53.5708 268.074 54.1342C267.113 54.6811 266.359 55.4683 265.812 56.4957C265.282 57.5232 265.009 58.7661 264.992 60.2244ZM314.322 82.7209C310.311 82.7209 306.864 81.9006 303.981 80.2599C301.114 78.6027 298.901 76.2992 297.344 73.3494C295.802 70.383 295.032 66.9444 295.032 63.0334C295.032 59.1058 295.802 55.6671 297.344 52.7173C298.901 49.7509 301.114 47.4474 303.981 45.8068C306.864 44.1496 310.311 43.321 314.322 43.321C318.332 43.321 321.771 44.1496 324.638 45.8068C327.521 47.4474 329.733 49.7509 331.275 52.7173C332.832 55.6671 333.611 59.1058 333.611 63.0334C333.611 66.9444 332.832 70.383 331.275 73.3494C329.733 76.2992 327.521 78.6027 324.638 80.2599C321.771 81.9006 318.332 82.7209 314.322 82.7209ZM314.396 73.5483C315.854 73.5483 317.089 73.1009 318.1 72.206C319.111 71.3111 319.881 70.0682 320.412 68.4773C320.959 66.8864 321.232 65.0469 321.232 62.9588C321.232 60.8376 320.959 58.9815 320.412 57.3906C319.881 55.7997 319.111 54.5568 318.1 53.6619C317.089 52.767 315.854 52.3196 314.396 52.3196C312.888 52.3196 311.612 52.767 310.568 53.6619C309.541 54.5568 308.753 55.7997 308.206 57.3906C307.676 58.9815 307.411 60.8376 307.411 62.9588C307.411 65.0469 307.676 66.8864 308.206 68.4773C308.753 70.0682 309.541 71.3111 310.568 72.206C311.612 73.1009 312.888 73.5483 314.396 73.5483ZM351.154 31.0909V82H338.998V31.0909H351.154ZM368.814 82.6463C366.378 82.6463 364.216 82.2403 362.326 81.4283C360.454 80.5997 358.971 79.3568 357.877 77.6996C356.8 76.0258 356.261 73.9295 356.261 71.4105C356.261 69.2893 356.634 67.4995 357.38 66.0412C358.125 64.5829 359.153 63.398 360.462 62.4865C361.771 61.575 363.279 60.8873 364.986 60.4233C366.693 59.9427 368.516 59.6196 370.455 59.4538C372.626 59.255 374.374 59.0478 375.7 58.8324C377.026 58.6004 377.987 58.2772 378.583 57.8629C379.197 57.4321 379.503 56.8272 379.503 56.0483V55.924C379.503 54.648 379.064 53.6619 378.186 52.9659C377.307 52.2699 376.123 51.9219 374.631 51.9219C373.024 51.9219 371.731 52.2699 370.753 52.9659C369.775 53.6619 369.154 54.6231 368.889 55.8494L357.678 55.4517C358.009 53.1316 358.863 51.0601 360.238 49.2372C361.63 47.3977 363.536 45.956 365.956 44.9119C368.392 43.8513 371.317 43.321 374.73 43.321C377.167 43.321 379.412 43.611 381.467 44.191C383.522 44.7545 385.312 45.5831 386.836 46.6768C388.361 47.754 389.538 49.0798 390.366 50.6541C391.211 52.2285 391.634 54.0265 391.634 56.0483V82H380.199V76.6804H379.901C379.221 77.973 378.351 79.0668 377.291 79.9616C376.247 80.8565 375.012 81.5277 373.587 81.9751C372.178 82.4226 370.587 82.6463 368.814 82.6463ZM372.568 74.6918C373.877 74.6918 375.054 74.4266 376.098 73.8963C377.158 73.366 378.003 72.6368 378.633 71.7088C379.263 70.7642 379.578 69.6705 379.578 68.4276V64.7983C379.23 64.9806 378.807 65.1463 378.31 65.2955C377.829 65.4446 377.299 65.5855 376.719 65.718C376.139 65.8506 375.543 65.9666 374.929 66.0661C374.316 66.1655 373.728 66.2566 373.164 66.3395C372.021 66.5218 371.043 66.8035 370.231 67.1847C369.436 67.5658 368.823 68.063 368.392 68.6761C367.977 69.2727 367.77 69.9853 367.77 70.8139C367.77 72.0734 368.218 73.0346 369.113 73.6974C370.024 74.3603 371.176 74.6918 372.568 74.6918ZM398.226 82V43.8182H410.034V50.7784H410.432C411.128 48.2595 412.263 46.3868 413.837 45.1605C415.412 43.9176 417.243 43.2962 419.331 43.2962C419.894 43.2962 420.474 43.3376 421.071 43.4205C421.667 43.4867 422.223 43.5945 422.736 43.7436V54.3082C422.156 54.1094 421.394 53.9519 420.449 53.8359C419.521 53.7199 418.693 53.6619 417.964 53.6619C416.522 53.6619 415.221 53.9851 414.061 54.6314C412.917 55.2611 412.014 56.1477 411.351 57.2912C410.705 58.4181 410.382 59.7438 410.382 61.2685V82H398.226Z" fill="black"/>
</svg>
