<svg width="36" height="36" viewBox="0 0 36 36" fill="none" xmlns="http://www.w3.org/2000/svg">
<g id="clarity:note-line">
<path id="Vector" d="M28 30H6V8H19.22L21.22 6H6C5.46957 6 4.96086 6.21071 4.58579 6.58579C4.21071 6.96086 4 7.46957 4 8V30C4 30.5304 4.21071 31.0391 4.58579 31.4142C4.96086 31.7893 5.46957 32 6 32H28C28.5304 32 29.0391 31.7893 29.4142 31.4142C29.7893 31.0391 30 30.5304 30 30V15L28 17V30Z" fill="#263238"/>
<path id="Vector_2" d="M33.5304 5.83994L30.1604 2.46994C30.0109 2.31997 29.8332 2.20099 29.6376 2.1198C29.442 2.03862 29.2322 1.99683 29.0204 1.99683C28.8086 1.99683 28.5989 2.03862 28.4033 2.1198C28.2077 2.20099 28.03 2.31997 27.8804 2.46994L14.1704 16.2599L13.0604 21.0699C13.0132 21.3031 13.0181 21.5438 13.075 21.7749C13.1319 22.0059 13.2392 22.2214 13.3894 22.4059C13.5395 22.5905 13.7287 22.7395 13.9433 22.8422C14.1579 22.9449 14.3925 22.9988 14.6304 22.9999C14.7534 23.0134 14.8775 23.0134 15.0004 22.9999L19.8504 21.9299L33.5304 8.11994C33.6804 7.97039 33.7994 7.7927 33.8806 7.59708C33.9618 7.40146 34.0036 7.19174 34.0036 6.97994C34.0036 6.76815 33.9618 6.55843 33.8806 6.36281C33.7994 6.16718 33.6804 5.9895 33.5304 5.83994ZM18.8104 20.0799L15.1504 20.8899L16.0004 17.2599L26.3204 6.86994L29.1404 9.68994L18.8104 20.0799ZM30.2704 8.55995L27.4504 5.73994L29.0004 4.15994L31.8404 6.99994L30.2704 8.55995Z" fill="#263238"/>
</g>
</svg>
