<svg width="20" height="20" viewBox="0 0 20 20" fill="none" xmlns="http://www.w3.org/2000/svg">
<g id="Group">
<path id="Vector" d="M16.2372 10.4544C16.5939 8.99897 16.5275 7.47194 16.0457 6.05301C15.564 4.63408 14.6869 3.38228 13.5178 2.44494C12.3487 1.50759 10.9361 0.923709 9.44642 0.762003C7.95668 0.600296 6.45175 0.867494 5.10874 1.53215C3.76572 2.19681 2.64051 3.23127 1.86552 4.51379C1.09053 5.7963 0.69802 7.27351 0.734174 8.77156C0.770328 10.2696 1.23365 11.7262 2.0696 12.9698C2.90556 14.2134 4.07936 15.1924 5.45287 15.7915M0.731445 8.58008H16.4614" stroke="#FDA403" stroke-linecap="round" stroke-linejoin="round"/>
<path id="Vector_2" d="M6.25979 12.2101C5.86489 11.0373 5.63226 9.81593 5.56836 8.58007C5.71667 5.70351 6.77635 2.94874 8.59407 0.714355C10.4113 2.94892 11.4705 5.70368 11.6184 8.58007C11.5912 9.08448 11.5373 9.58709 11.4569 10.0858M13.5112 11.6829L19.2684 14.1772L13.5112 16.6715L7.75693 14.1772L13.5141 11.6829H13.5112Z" stroke="#FDA403" stroke-linecap="round" stroke-linejoin="round"/>
<path id="Vector_3" d="M10.3673 15.3144L10.373 18.0287C10.373 18.0287 11.323 19.2858 13.5116 19.2858C15.7001 19.2858 16.6544 18.0287 16.6544 18.0287V15.3144M7.75586 18.5644V14.1772" stroke="#FDA403" stroke-linecap="round" stroke-linejoin="round"/>
</g>
</svg>
